{
.appVersion = "965";
copyright = "Copyright 2017 Google Inc. All Rights Reserved.";
customParameters = (
{
name = licenseURL;
value = "http://scripts.sil.org/OFL";
},
{
name = vendorID;
value = GOOG;
},
{
name = unicodeRanges;
value = (
0,
1,
25,
31,
33,
45
);
},
{
name = codePageRanges;
value = (
"1252"
);
},
{
name = glyphOrder;
value = (
.notdef,
NULL,
CR,
space,
"koKai-lao",
"khoKhai-lao",
"khoKhuay-lao",
"ngoNgu-lao",
"coCok-lao",
"soSang-lao",
"nyoNyung-lao",
"doDek-lao",
"toTa-lao",
"thoThong-lao",
"thoThung-lao",
"noNok-lao",
"boBae-lao",
"poPa-lao",
"phoPhueng-lao",
"foFon-lao",
"phoPhu-lao",
"foFai-lao",
"moMa-lao",
"yoYa-lao",
"roRot-lao",
"loLing-lao",
"woWi-lao",
"soSeua-lao",
"hoHaan-lao",
"oO-lao",
"hoHeuan-lao",
"khmuGo-lao",
"khmuNyo-lao",
"aVowel-lao",
"aaVowel-lao",
"amVowel-lao",
"nyoVowel-lao",
"eVowel-lao",
"aeVowel-lao",
"oVowel-lao",
"ayMaiMuanVowel-lao",
"aiMaiMayVowel-lao",
"amVowel-lao.narrow",
"hoNo-lao",
"hoMo-lao",
"zero-lao",
"one-lao",
"two-lao",
"three-lao",
"four-lao",
"five-lao",
"six-lao",
"seven-lao",
"eight-lao",
"nine-lao",
"koLa-lao",
"ellipsis-lao",
kip,
"maiKanVowel-lao",
"iVowel-lao",
"iiVowel-lao",
"euVowel-lao",
"euuVowel-lao",
"maiKonVowel-lao",
"uVowel-lao",
"uuVowel-lao",
"loVowel-lao",
"maiEk-lao",
"maiTho-lao",
"maiTi-lao",
"maiCatawa-lao",
"karan-lao",
"niggahita-lao",
"niggahita_maiEk-lao",
"niggahita_maiTho-lao",
"niggahita_maiTi-lao",
"niggahita_maiCatawa-lao",
"maiEk-lao.small",
"maiTho-lao.small",
"maiTi-lao.small",
"maiCatawa-lao.small",
"karan-lao.small",
"maiKanVowel-lao.narrow",
"iVowel-lao.narrow",
"iiVowel-lao.narrow",
"euVowel-lao.narrow",
"euuVowel-lao.narrow",
"maiKonVowel-lao.narrow",
"maiEk-lao.narrow",
"maiTho-lao.narrow",
"maiTi-lao.narrow",
"maiCatawa-lao.narrow",
"karan-lao.narrow",
"niggahita-lao.narrow",
"niggahita_maiEk-lao.narrow",
"niggahita_maiTho-lao.narrow",
"niggahita_maiTi-lao.narrow",
"niggahita_maiCatawa-lao.narrow",
"niggahita_maiEk-lao.right",
"niggahita_maiTho-lao.right",

glyphs = (
{
glyphname = .notdef;
lastChange = "2017-01-30 19:51:08 +0000";
layers = (
{
layerId = "64BC062E-13E4-450B-B24E-D8A474022433";
paths = (
{
closed = 1;
nodes = (
"449 0 LINE",
"449 714 LINE",
"49 714 LINE",
"49 0 LINE"
);
},
{
closed = 1;
nodes = (
"97 666 LINE",
"401 666 LINE",
"401 48 LINE",
"97 48 LINE"
);
}
);
width = 498;
},
{
layerId = "6449CA81-A7C3-4005-93E5-765657812F1B";
paths = (
{
closed = 1;
nodes = (
"449 0 LINE",
"449 714 LINE",
"49 714 LINE",
"49 0 LINE"
);
},
{
closed = 1;
nodes = (
"97 666 LINE",
"401 666 LINE",
"401 48 LINE",
"97 48 LINE"
);
}
);
width = 498;
},
{
layerId = "E5D3352E-10FF-4C03-AD9F-F95B1FD01257";
paths = (
{
closed = 1;
nodes = (
"449 0 LINE",
"449 714 LINE",
"49 714 LINE",
"49 0 LINE"
);
},
{
closed = 1;
nodes = (
"97 666 LINE",
"401 666 LINE",
"401 48 LINE",
"97 48 LINE"
);
}
);
width = 498;
}
);
note = .notdef;
},
{
glyphname = "koKai-lao";
lastChange = "2017-01-30 19:51:08 +0000";
layers = (
{
anchors = (
{
name = bottom;
position = "{540, 0}";
},
{
name = top;
position = "{530, 504}";
}
);
layerId = "64BC062E-13E4-450B-B24E-D8A474022433";
paths = (
{
closed = 1;
nodes = (
"157 -9 OFFCURVE",
"185 18 OFFCURVE",
"185 84 CURVE SMOOTH",
"185 337 LINE SMOOTH",
"185 400 OFFCURVE",
"257 498 OFFCURVE",
"385 498 CURVE SMOOTH",
"494 498 OFFCURVE",
"514 426 OFFCURVE",
"514 344 CURVE SMOOTH",
"514 0 LINE",
"540 0 LINE",
"540 343 LINE SMOOTH",
"540 463 OFFCURVE",
"494 523 OFFCURVE",
"384 523 CURVE SMOOTH",
"275 523 OFFCURVE",
"214 465 OFFCURVE",
"181 403 CURVE",
"180 403 LINE",
"170 452 OFFCURVE",
"156 488 OFFCURVE",
"131 523 CURVE",
"111 510 LINE",
"137 474 OFFCURVE",
"159 422 OFFCURVE",
"159 367 CURVE SMOOTH",
"159 80 LINE SMOOTH",
"159 29 OFFCURVE",
"141 15 OFFCURVE",
"107 15 CURVE SMOOTH",
"92 15 OFFCURVE",
"82 18 OFFCURVE",
"69 22 CURVE",
"64 -2 LINE",
"77 -6 OFFCURVE",
"93 -9 OFFCURVE",
"109 -9 CURVE SMOOTH"
);
}
);
width = 624;
},
{
anchors = (
{
name = bottom;
position = "{527, 0}";
},
{
name = top;
position = "{518, 504}";
}
);
layerId = "6449CA81-A7C3-4005-93E5-765657812F1B";
paths = (
{
closed = 1;
nodes = (
"156 -6 OFFCURVE",
"194 35 OFFCURVE",
"194 105 CURVE SMOOTH",
"194 335 LINE SMOOTH",
"194 428 OFFCURVE",
"263 452 OFFCURVE",
"323 452 CURVE SMOOTH",
"407 452 OFFCURVE",
"439 406 OFFCURVE",
"439 326 CURVE SMOOTH",
"439 0 LINE",
"527 0 LINE",
"527 333 LINE SMOOTH",
"527 459 OFFCURVE",
"460 525 OFFCURVE",
"340 525 CURVE SMOOTH",
"276 525 OFFCURVE",
"216 505 OFFCURVE",
"171 449 CURVE",
"168 449 LINE",
"156 478 OFFCURVE",
"133 509 OFFCURVE",
"116 525 CURVE",
"52 476 LINE",
"80 450 OFFCURVE",
"106 410 OFFCURVE",
"106 341 CURVE SMOOTH",
"106 102 LINE SMOOTH",
"106 74 OFFCURVE",
"89 64 OFFCURVE",
"67 64 CURVE SMOOTH",
"57 64 OFFCURVE",
"45 66 OFFCURVE",
"33 69 CURVE",
"20 8 LINE",
"44 -1 OFFCURVE",
"70 -6 OFFCURVE",
"92 -6 CURVE SMOOTH"
);
}
);
width = 608;
},
{
anchors = (
{
name = bottom;
position = "{596, 0}";
},
{
name = top;
position = "{587, 504}";
}
);
layerId = "E5D3352E-10FF-4C03-AD9F-F95B1FD01257";
paths = (
{
closed = 1;
nodes = (
"248 -10 OFFCURVE",
"304 41 OFFCURVE",
"304 134 CURVE SMOOTH",
"304 321 LINE SMOOTH",
"304 360 OFFCURVE",
"325 378 OFFCURVE",
"357 378 CURVE SMOOTH",
"391 378 OFFCURVE",
"404 359 OFFCURVE",
"404 320 CURVE SMOOTH",
"404 0 LINE",
"596 0 LINE",
"596 351 LINE SMOOTH",
"596 449 OFFCURVE",
"543 530 OFFCURVE",
"412 530 CURVE SMOOTH",
"334 530 OFFCURVE",
"277 500 OFFCURVE",
"240 460 CURVE",
"237 460 LINE",
"227 485 OFFCURVE",
"207 507 OFFCURVE",
"183 530 CURVE",
"44 426 LINE",
"97 382 OFFCURVE",
"112 350 OFFCURVE",
"112 284 CURVE SMOOTH",
"112 156 LINE SMOOTH",
"112 141 OFFCURVE",
"105 134 OFFCURVE",
"87 134 CURVE SMOOTH",
"74 134 OFFCURVE",
"62 138 OFFCURVE",
"52 141 CURVE",
"25 20 LINE",
"63 0 OFFCURVE",
"120 -10 OFFCURVE",
"159 -10 CURVE SMOOTH"
);
}
);
width = 640;
}
);
note = uni0E81;
unicode = 0E81;
},
{
glyphname = "khoKhai-lao";
lastChange = "2017-01-30 19:51:08 +0000";
layers = (
{
anchors = (
{
name = bottom;
position = "{479, 0}";
},
{
name = top;
position = "{466, 504}";
}
);
layerId = "64BC062E-13E4-450B-B24E-D8A474022433";
paths = (
{
closed = 1;
nodes = (
"271 -9 OFFCURVE",
"316 65 OFFCURVE",
"394 65 CURVE SMOOTH",
"434 65 OFFCURVE",
"454 45 OFFCURVE",
"454 7 CURVE SMOOTH",
"454 0 LINE",
"480 0 LINE",
"480 8 LINE SMOOTH",
"480 68 OFFCURVE",
"437 87 OFFCURVE",
"394 87 CURVE SMOOTH",
"310 87 OFFCURVE",
"259 15 OFFCURVE",
"173 15 CURVE SMOOTH",
"121 15 OFFCURVE",
"92 41 OFFCURVE",
"92 92 CURVE SMOOTH",
"92 168 OFFCURVE",
"154 187 OFFCURVE",
"269 219 CURVE SMOOTH",
"386 252 OFFCURVE",
"473 279 OFFCURVE",
"473 377 CURVE SMOOTH",
"473 458 OFFCURVE",
"414 523 OFFCURVE",
"269 523 CURVE SMOOTH",
"119 523 OFFCURVE",
"64 454 OFFCURVE",
"64 385 CURVE SMOOTH",
"64 369 OFFCURVE",
"67 345 OFFCURVE",
"74 333 CURVE",
"99 343 LINE",
"94 354 OFFCURVE",
"92 372 OFFCURVE",
"92 385 CURVE SMOOTH",
"92 462 OFFCURVE",
"166 498 OFFCURVE",
"269 498 CURVE SMOOTH",
"374 498 OFFCURVE",
"445 461 OFFCURVE",
"445 376 CURVE SMOOTH",
"445 299 OFFCURVE",
"387 280 OFFCURVE",
"262 243 CURVE SMOOTH",
"138 206 OFFCURVE",
"64 183 OFFCURVE",
"64 93 CURVE SMOOTH",
"64 19 OFFCURVE",
"115 -9 OFFCURVE",
"174 -9 CURVE SMOOTH"
);
}
);
width = 538;
},
{
anchors = (
{
name = bottom;
position = "{537, 0}";
},
{
name = top;
position = "{527, 504}";
}
);
layerId = "6449CA81-A7C3-4005-93E5-765657812F1B";
paths = (
{
closed = 1;
nodes = (
"299 -9 OFFCURVE",
"365 54 OFFCURVE",
"416 54 CURVE SMOOTH",
"437 54 OFFCURVE",
"450 44 OFFCURVE",
"450 20 CURVE SMOOTH",
"450 0 LINE",
"537 0 LINE",
"537 24 LINE SMOOTH",
"537 100 OFFCURVE",
"487 127 OFFCURVE",
"436 127 CURVE SMOOTH",
"350 127 OFFCURVE",
"270 60 OFFCURVE",
"207 60 CURVE SMOOTH",
"172 60 OFFCURVE",
"152 81 OFFCURVE",
"152 106 CURVE SMOOTH",
"152 157 OFFCURVE",
"234 177 OFFCURVE",
"312 200 CURVE SMOOTH",
"418 231 OFFCURVE",
"536 266 OFFCURVE",
"536 369 CURVE SMOOTH",
"536 452 OFFCURVE",
"463 525 OFFCURVE",
"303 525 CURVE SMOOTH",
"140 525 OFFCURVE",
"72 449 OFFCURVE",
"72 370 CURVE SMOOTH",
"72 340 OFFCURVE",
"81 310 OFFCURVE",
"103 292 CURVE",
"173 327 LINE",
"163 338 OFFCURVE",
"156 349 OFFCURVE",
"156 368 CURVE SMOOTH",
"156 427 OFFCURVE",
"223 453 OFFCURVE",
"304 453 CURVE SMOOTH",
"384 453 OFFCURVE",
"451 427 OFFCURVE",
"451 370 CURVE SMOOTH",
"451 311 OFFCURVE",
"381 295 OFFCURVE",
"288 268 CURVE SMOOTH",
"183 238 OFFCURVE",
"67 205 OFFCURVE",
"67 103 CURVE SMOOTH",
"67 25 OFFCURVE",
"132 -9 OFFCURVE",
"203 -9 CURVE SMOOTH"
);
}
);
width = 609;
},
{
anchors = (
{
name = bottom;
position = "{550, 0}";
},
{
name = top;
position = "{540, 504}";
}
);
layerId = "E5D3352E-10FF-4C03-AD9F-F95B1FD01257";
paths = (
{
closed = 1;
nodes = (
"274 -9 OFFCURVE",
"332 30 OFFCURVE",
"372 30 CURVE SMOOTH",
"388 30 OFFCURVE",
"393 24 OFFCURVE",
"393 12 CURVE SMOOTH",
"393 0 LINE",
"550 0 LINE",
"550 57 LINE SMOOTH",
"550 134 OFFCURVE",
"523 186 OFFCURVE",
"435 186 CURVE SMOOTH",
"343 186 OFFCURVE",
"263 136 OFFCURVE",
"222 136 CURVE SMOOTH",
"218 136 OFFCURVE",
"212 134 OFFCURVE",
"212 137 CURVE SMOOTH",
"212 147 OFFCURVE",
"265 168 OFFCURVE",
"345 201 CURVE SMOOTH",
"492 262 OFFCURVE",
"550 298 OFFCURVE",
"550 378 CURVE SMOOTH",
"550 466 OFFCURVE",
"484 530 OFFCURVE",
"300 530 CURVE SMOOTH",
"122 530 OFFCURVE",
"34 470 OFFCURVE",
"34 380 CURVE SMOOTH",
"34 327 OFFCURVE",
"63 283 OFFCURVE",
"96 265 CURVE",
"234 335 LINE",
"225 344 OFFCURVE",
"220 353 OFFCURVE",
"220 363 CURVE SMOOTH",
"220 386 OFFCURVE",
"245 399 OFFCURVE",
"296 399 CURVE SMOOTH",
"345 399 OFFCURVE",
"362 386 OFFCURVE",
"362 372 CURVE SMOOTH",
"362 347 OFFCURVE",
"334 344 OFFCURVE",
"216 290 CURVE SMOOTH",
"92 233 OFFCURVE",
"24 196 OFFCURVE",
"24 111 CURVE SMOOTH",
"24 22 OFFCURVE",
"93 -9 OFFCURVE",
"178 -9 CURVE SMOOTH"
);
}
);
width = 589;
}
);
note = uni0E82;
unicode = 0E82;
},
{
glyphname = "khoKhuay-lao";
lastChange = "2017-01-30 19:51:08 +0000";
layers = (
{
anchors = (
{
name = bottom;
position = "{479, 0}";
},
{
name = top;
position = "{469, 504}";
}
);
layerId = "64BC062E-13E4-450B-B24E-D8A474022433";
paths = (
{
closed = 1;
nodes = (
"230 -9 OFFCURVE",
"261 -5 OFFCURVE",
"281 2 CURVE",
"276 27 LINE",
"262 22 OFFCURVE",
"233 15 OFFCURVE",
"204 15 CURVE SMOOTH",
"139 15 OFFCURVE",
"91 50 OFFCURVE",
"91 121 CURVE SMOOTH",
"91 209 OFFCURVE",
"166 237 OFFCURVE",
"226 237 CURVE SMOOTH",
"264 237 LINE",
"264 259 LINE",
"226 259 LINE SMOOTH",
"144 259 OFFCURVE",
"94 303 OFFCURVE",
"94 374 CURVE SMOOTH",
"94 469 OFFCURVE",
"182 498 OFFCURVE",
"271 498 CURVE SMOOTH",
"369 498 OFFCURVE",
"453 463 OFFCURVE",
"453 354 CURVE SMOOTH",
"453 0 LINE",
"479 0 LINE",
"479 348 LINE SMOOTH",
"479 471 OFFCURVE",
"394 523 OFFCURVE",
"270 523 CURVE SMOOTH",
"148 523 OFFCURVE",
"67 472 OFFCURVE",
"67 374 CURVE SMOOTH",
"67 294 OFFCURVE",
"120 264 OFFCURVE",
"154 251 CURVE",
"154 247 LINE",
"122 236 OFFCURVE",
"64 206 OFFCURVE",
"64 121 CURVE SMOOTH",
"64 37 OFFCURVE",
"121 -9 OFFCURVE",
"205 -9 CURVE SMOOTH"
);
}
);
width = 563;
},
{
anchors = (
{
name = bottom;
position = "{527, 0}";
},
{
name = top;
position = "{517, 504}";
}
);
layerId = "6449CA81-A7C3-4005-93E5-765657812F1B";
paths = (
{
closed = 1;
nodes = (
"262 -9 OFFCURVE",
"299 -3 OFFCURVE",
"318 5 CURVE",
"303 73 LINE",
"288 69 OFFCURVE",
"265 63 OFFCURVE",
"242 63 CURVE SMOOTH",
"186 63 OFFCURVE",
"155 94 OFFCURVE",
"155 142 CURVE SMOOTH",
"155 202 OFFCURVE",
"201 224 OFFCURVE",
"272 224 CURVE SMOOTH",
"292 224 LINE",
"292 288 LINE",
"272 288 LINE SMOOTH",
"203 288 OFFCURVE",
"155 316 OFFCURVE",
"155 369 CURVE SMOOTH",
"155 423 OFFCURVE",
"203 452 OFFCURVE",
"296 452 CURVE SMOOTH",
"400 452 OFFCURVE",
"439 415 OFFCURVE",
"439 346 CURVE SMOOTH",
"439 0 LINE",
"527 0 LINE",
"527 339 LINE SMOOTH",
"527 470 OFFCURVE",
"450 525 OFFCURVE",
"302 525 CURVE SMOOTH",
"149 525 OFFCURVE",
"67 466 OFFCURVE",
"67 373 CURVE SMOOTH",
"67 312 OFFCURVE",
"103 275 OFFCURVE",
"160 257 CURVE",
"160 254 LINE",
"97 237 OFFCURVE",
"67 191 OFFCURVE",
"67 133 CURVE SMOOTH",
"67 62 OFFCURVE",
"112 -9 OFFCURVE",
"228 -9 CURVE SMOOTH"
);
}
);
width = 608;
},
{
anchors = (
{
name = bottom;
position = "{555, 0}";
},
{
name = top;
position = "{545, 504}";
}
);
layerId = "E5D3352E-10FF-4C03-AD9F-F95B1FD01257";
paths = (
{
closed = 1;
nodes = (
"251 -9 OFFCURVE",
"294 -3 OFFCURVE",
"329 9 CURVE",
"298 148 LINE",
"286 145 OFFCURVE",
"265 142 OFFCURVE",
"254 142 CURVE SMOOTH",
"230 142 OFFCURVE",
"217 152 OFFCURVE",
"217 169 CURVE SMOOTH",
"217 190 OFFCURVE",
"235 198 OFFCURVE",
"263 198 CURVE SMOOTH",
"305 198 LINE",
"305 316 LINE",
"259 316 LINE SMOOTH",
"232 316 OFFCURVE",
"217 329 OFFCURVE",
"217 344 CURVE SMOOTH",
"217 366 OFFCURVE",
"244 378 OFFCURVE",
"288 378 CURVE SMOOTH",
"339 378 OFFCURVE",
"363 361 OFFCURVE",
"363 331 CURVE SMOOTH",
"363 0 LINE",
"555 0 LINE",
"555 325 LINE SMOOTH",
"555 470 OFFCURVE",
"461 530 OFFCURVE",
"293 530 CURVE SMOOTH",
"120 530 OFFCURVE",
"29 466 OFFCURVE",
"29 373 CURVE SMOOTH",
"29 317 OFFCURVE",
"62 278 OFFCURVE",
"115 259 CURVE",
"115 257 LINE",
"53 230 OFFCURVE",
"29 181 OFFCURVE",
"29 132 CURVE SMOOTH",
"29 60 OFFCURVE",
"80 -9 OFFCURVE",
"211 -9 CURVE SMOOTH"
);
}
);
width = 599;
}
);
note = uni0E84;
unicode = 0E84;
},
{
glyphname = "ngoNgu-lao";
lastChange = "2017-01-30 19:51:08 +0000";
layers = (
{
anchors = (
{
name = bottom;
position = "{290, -103}";
},
{
name = top;
position = "{290, 504}";
}
);
layerId = "64BC062E-13E4-450B-B24E-D8A474022433";
paths = (
{
closed = 1;
nodes = (
"234 -103 OFFCURVE",
"291 -58 OFFCURVE",
"291 43 CURVE SMOOTH",
"291 428 LINE SMOOTH",
"291 492 OFFCURVE",
"257 523 OFFCURVE",
"200 523 CURVE SMOOTH",
"166 523 OFFCURVE",
"134 512 OFFCURVE",
"115 503 CURVE",
"125 480 LINE",
"146 491 OFFCURVE",
"169 498 OFFCURVE",
"197 498 CURVE SMOOTH",
"247 498 OFFCURVE",
"265 475 OFFCURVE",
"265 428 CURVE SMOOTH",
"265 50 LINE SMOOTH",
"265 -35 OFFCURVE",
"233 -78 OFFCURVE",
"138 -78 CURVE SMOOTH",
"103 -78 OFFCURVE",
"60 -72 OFFCURVE",
"25 -59 CURVE",
"25 -85 LINE",
"53 -95 OFFCURVE",
"103 -103 OFFCURVE",
"142 -103 CURVE SMOOTH"
);
}
);
width = 375;
},
{
anchors = (
{
name = bottom;
position = "{275, -103}";
},
{
name = top;
position = "{275, 504}";
}
);
layerId = "6449CA81-A7C3-4005-93E5-765657812F1B";
paths = (
{
closed = 1;
nodes = (
"221 -103 OFFCURVE",
"284 -51 OFFCURVE",
"284 37 CURVE SMOOTH",
"284 420 LINE SMOOTH",
"284 500 OFFCURVE",
"220 525 OFFCURVE",
"162 525 CURVE SMOOTH",
"126 525 OFFCURVE",
"83 515 OFFCURVE",
"57 501 CURVE",
"76 435 LINE",
"91 444 OFFCURVE",
"120 452 OFFCURVE",
"147 452 CURVE SMOOTH",
"183 452 OFFCURVE",
"196 437 OFFCURVE",
"196 397 CURVE SMOOTH",
"196 44 LINE SMOOTH",
"196 -6 OFFCURVE",
"160 -35 OFFCURVE",
"99 -35 CURVE SMOOTH",
"60 -35 OFFCURVE",
"13 -23 OFFCURVE",
"-28 -3 CURVE",
"-28 -75 LINE",
"10 -93 OFFCURVE",
"63 -103 OFFCURVE",
"111 -103 CURVE SMOOTH"
);
}
);
width = 365;
},
{
anchors = (
{
name = bottom;
position = "{357, -103}";
},
{
name = top;
position = "{357, 504}";
}
);
layerId = "E5D3352E-10FF-4C03-AD9F-F95B1FD01257";
paths = (
{
closed = 1;
nodes = (
"288 -110 OFFCURVE",
"366 -59 OFFCURVE",
"366 44 CURVE SMOOTH",
"366 382 LINE SMOOTH",
"366 481 OFFCURVE",
"319 530 OFFCURVE",
"220 530 CURVE SMOOTH",
"157 530 OFFCURVE",
"95 509 OFFCURVE",
"47 485 CURVE",
"80 360 LINE",
"100 371 OFFCURVE",
"123 378 OFFCURVE",
"143 378 CURVE SMOOTH",
"168 378 OFFCURVE",
"174 367 OFFCURVE",
"174 358 CURVE SMOOTH",
"174 43 LINE SMOOTH",
"174 19 OFFCURVE",
"161 7 OFFCURVE",
"117 7 CURVE SMOOTH",
"77 7 OFFCURVE",
"34 18 OFFCURVE",
"-15 36 CURVE",
"-15 -77 LINE",
"39 -100 OFFCURVE",
"99 -110 OFFCURVE",
"159 -110 CURVE SMOOTH"
);
}
);
width = 410;
}
);
note = uni0E87;
unicode = 0E87;
},
{
glyphname = "coCok-lao";
lastChange = "2017-01-30 19:51:08 +0000";
layers = (
{
anchors = (
{
name = bottom;
position = "{445, 0}";
},
{
name = top;
position = "{445, 504}";
}
);
layerId = "64BC062E-13E4-450B-B24E-D8A474022433";
paths = (
{
closed = 1;
nodes = (
"256 0 LINE SMOOTH",
"420 5 OFFCURVE",
"475 86 OFFCURVE",
"475 251 CURVE SMOOTH",
"475 436 OFFCURVE",
"407 523 OFFCURVE",
"236 523 CURVE SMOOTH",
"165 523 OFFCURVE",
"104 508 OFFCURVE",
"64 491 CURVE",
"64 466 LINE",
"113 486 OFFCURVE",
"169 498 OFFCURVE",
"234 498 CURVE SMOOTH",
"393 498 OFFCURVE",
"448 425 OFFCURVE",
"448 256 CURVE SMOOTH",
"448 87 OFFCURVE",
"393 22 OFFCURVE",
"246 22 CURVE",
"214 215 LINE SMOOTH",
"206 262 OFFCURVE",
"181 286 OFFCURVE",
"137 286 CURVE SMOOTH",
"118 286 OFFCURVE",
"99 282 OFFCURVE",
"88 277 CURVE",
"92 255 LINE",
"102 259 OFFCURVE",
"118 262 OFFCURVE",
"134 262 CURVE SMOOTH",
"172 262 OFFCURVE",
"183 245 OFFCURVE",
"190 206 CURVE SMOOTH",
"225 -1 LINE"
);
}
);
width = 539;
},
{
anchors = (
{
name = bottom;
position = "{466, 0}";
},
{
name = top;
position = "{466, 504}";
}
);
layerId = "6449CA81-A7C3-4005-93E5-765657812F1B";
paths = (
{
closed = 1;
nodes = (
"251 0 LINE SMOOTH",
"424 0 OFFCURVE",
"486 96 OFFCURVE",
"486 257 CURVE SMOOTH",
"486 431 OFFCURVE",
"414 525 OFFCURVE",
"235 525 CURVE SMOOTH",
"153 525 OFFCURVE",
"84 505 OFFCURVE",
"46 486 CURVE",
"46 409 LINE",
"101 439 OFFCURVE",
"162 452 OFFCURVE",
"223 452 CURVE SMOOTH",
"348 452 OFFCURVE",
"398 398 OFFCURVE",
"398 259 CURVE SMOOTH",
"398 128 OFFCURVE",
"353 74 OFFCURVE",
"266 73 CURVE",
"244 206 LINE SMOOTH",
"231 285 OFFCURVE",
"193 306 OFFCURVE",
"139 306 CURVE SMOOTH",
"117 306 OFFCURVE",
"91 302 OFFCURVE",
"67 292 CURVE",
"81 229 LINE",
"91 232 OFFCURVE",
"104 234 OFFCURVE",
"116 234 CURVE SMOOTH",
"143 234 OFFCURVE",
"158 224 OFFCURVE",
"163 194 CURVE SMOOTH",
"196 0 LINE"
);
}
);
width = 557;
},
{
anchors = (
{
name = bottom;
position = "{517, 0}";
},
{
name = top;
position = "{517, 504}";
}
);
layerId = "E5D3352E-10FF-4C03-AD9F-F95B1FD01257";
paths = (
{
closed = 1;
nodes = (
"260 0 LINE SMOOTH",
"439 0 OFFCURVE",
"533 87 OFFCURVE",
"533 263 CURVE SMOOTH",
"533 438 OFFCURVE",
"439 530 OFFCURVE",
"247 530 CURVE SMOOTH",
"172 530 OFFCURVE",
"88 516 OFFCURVE",
"24 482 CURVE",
"24 330 LINE",
"89 362 OFFCURVE",
"161 378 OFFCURVE",
"215 378 CURVE SMOOTH",
"300 378 OFFCURVE",
"341 340 OFFCURVE",
"341 262 CURVE SMOOTH",
"341 226 OFFCURVE",
"330 185 OFFCURVE",
"308 150 CURVE",
"297 196 LINE SMOOTH",
"278 274 OFFCURVE",
"237 318 OFFCURVE",
"160 318 CURVE SMOOTH",
"123 318 OFFCURVE",
"76 307 OFFCURVE",
"38 283 CURVE",
"64 161 LINE",
"76 166 OFFCURVE",
"89 168 OFFCURVE",
"98 168 CURVE SMOOTH",
"117 168 OFFCURVE",
"130 159 OFFCURVE",
"135 134 CURVE SMOOTH",
"162 0 LINE"
);
}
);
width = 571;
}
);
note = uni0E88;
unicode = 0E88;
},
{
glyphname = "soSang-lao";
lastChange = "2017-01-30 19:51:08 +0000";
layers = (
{
anchors = (
{
name = bottom;
position = "{474, -103}";
},
{
name = top;
position = "{466, 504}";
}
);
layerId = "64BC062E-13E4-450B-B24E-D8A474022433";
paths = (
{
closed = 1;
nodes = (
"474 -103 LINE",
"474 21 LINE SMOOTH",
"474 69 OFFCURVE",
"447 87 OFFCURVE",
"407 87 CURVE SMOOTH",
"327 87 OFFCURVE",
"258 15 OFFCURVE",
"172 15 CURVE SMOOTH",
"121 15 OFFCURVE",
"92 41 OFFCURVE",
"92 92 CURVE SMOOTH",
"92 168 OFFCURVE",
"157 187 OFFCURVE",
"269 219 CURVE SMOOTH",
"385 252 OFFCURVE",
"473 280 OFFCURVE",
"473 378 CURVE SMOOTH",
"473 458 OFFCURVE",
"414 523 OFFCURVE",
"269 523 CURVE SMOOTH",
"119 523 OFFCURVE",
"64 454 OFFCURVE",
"64 385 CURVE SMOOTH",
"64 369 OFFCURVE",
"67 345 OFFCURVE",
"74 333 CURVE",
"99 343 LINE",
"94 354 OFFCURVE",
"92 372 OFFCURVE",
"92 385 CURVE SMOOTH",
"92 462 OFFCURVE",
"166 498 OFFCURVE",
"269 498 CURVE SMOOTH",
"374 498 OFFCURVE",
"445 461 OFFCURVE",
"445 376 CURVE SMOOTH",
"445 300 OFFCURVE",
"390 280 OFFCURVE",
"262 242 CURVE SMOOTH",
"138 205 OFFCURVE",
"64 183 OFFCURVE",
"64 93 CURVE SMOOTH",
"64 19 OFFCURVE",
"115 -9 OFFCURVE",
"174 -9 CURVE SMOOTH",
"268 -9 OFFCURVE",
"333 63 OFFCURVE",
"407 63 CURVE SMOOTH",
"438 63 OFFCURVE",
"448 50 OFFCURVE",
"448 20 CURVE SMOOTH",
"448 -103 LINE"
);
}
);
width = 538;
},
{
anchors = (
{
name = bottom;
position = "{537, -103}";
},
{
name = top;
position = "{518, 504}";
}
);
layerId = "6449CA81-A7C3-4005-93E5-765657812F1B";
paths = (
{
closed = 1;
nodes = (
"537 -103 LINE",
"537 24 LINE SMOOTH",
"537 100 OFFCURVE",
"487 127 OFFCURVE",
"436 127 CURVE SMOOTH",
"350 127 OFFCURVE",
"270 60 OFFCURVE",
"207 60 CURVE SMOOTH",
"172 60 OFFCURVE",
"152 81 OFFCURVE",
"152 106 CURVE SMOOTH",
"152 157 OFFCURVE",
"234 177 OFFCURVE",
"312 200 CURVE SMOOTH",
"418 231 OFFCURVE",
"536 266 OFFCURVE",
"536 369 CURVE SMOOTH",
"536 452 OFFCURVE",
"463 525 OFFCURVE",
"303 525 CURVE SMOOTH",
"140 525 OFFCURVE",
"72 449 OFFCURVE",
"72 370 CURVE SMOOTH",
"72 340 OFFCURVE",
"81 310 OFFCURVE",
"103 292 CURVE",
"173 327 LINE",
"163 338 OFFCURVE",
"156 349 OFFCURVE",
"156 368 CURVE SMOOTH",
"156 427 OFFCURVE",
"223 453 OFFCURVE",
"304 453 CURVE SMOOTH",
"384 453 OFFCURVE",
"451 427 OFFCURVE",
"451 370 CURVE SMOOTH",
"451 311 OFFCURVE",
"381 295 OFFCURVE",
"288 268 CURVE SMOOTH",
"183 238 OFFCURVE",
"67 205 OFFCURVE",
"67 103 CURVE SMOOTH",
"67 25 OFFCURVE",
"132 -9 OFFCURVE",
"203 -9 CURVE SMOOTH",
"299 -9 OFFCURVE",
"365 54 OFFCURVE",
"416 54 CURVE SMOOTH",
"437 54 OFFCURVE",
"450 44 OFFCURVE",
"450 20 CURVE SMOOTH",
"450 -103 LINE"
);
}
);
width = 609;
},
{
anchors = (
{
name = bottom;
position = "{550, -103}";
},
{
name = top;
position = "{540, 504}";
}
);
layerId = "E5D3352E-10FF-4C03-AD9F-F95B1FD01257";
paths = (
{
closed = 1;
nodes = (
"550 -103 LINE",
"550 57 LINE SMOOTH",
"550 134 OFFCURVE",
"523 186 OFFCURVE",
"435 186 CURVE SMOOTH",
"343 186 OFFCURVE",
"263 136 OFFCURVE",
"222 136 CURVE SMOOTH",
"218 136 OFFCURVE",
"212 134 OFFCURVE",
"212 137 CURVE SMOOTH",
"212 147 OFFCURVE",
"265 167 OFFCURVE",
"345 200 CURVE SMOOTH",
"492 261 OFFCURVE",
"550 298 OFFCURVE",
"550 378 CURVE SMOOTH",
"550 466 OFFCURVE",
"484 530 OFFCURVE",
"300 530 CURVE SMOOTH",
"122 530 OFFCURVE",
"34 470 OFFCURVE",
"34 380 CURVE SMOOTH",
"34 327 OFFCURVE",
"63 283 OFFCURVE",
"96 265 CURVE",
"234 335 LINE",
"225 344 OFFCURVE",
"220 353 OFFCURVE",
"220 363 CURVE SMOOTH",
"220 386 OFFCURVE",
"245 399 OFFCURVE",
"296 399 CURVE SMOOTH",
"345 399 OFFCURVE",
"362 386 OFFCURVE",
"362 372 CURVE SMOOTH",
"362 351 OFFCURVE",
"334 345 OFFCURVE",
"216 291 CURVE SMOOTH",
"92 234 OFFCURVE",
"24 196 OFFCURVE",
"24 111 CURVE SMOOTH",
"24 22 OFFCURVE",
"93 -9 OFFCURVE",
"178 -9 CURVE SMOOTH",
"273 -9 OFFCURVE",
"334 28 OFFCURVE",
"371 28 CURVE SMOOTH",
"386 28 OFFCURVE",
"393 22 OFFCURVE",
"393 10 CURVE SMOOTH",
"393 -103 LINE"
);
}
);
width = 589;
}
);
note = uni0E8A;
unicode = 0E8A;
},
{
glyphname = "nyoNyung-lao";
lastChange = "2017-01-30 19:51:08 +0000";
layers = (
{
anchors = (
{
name = bottom;
position = "{461, 0}";
},
{
name = top;
position = "{471, 504}";
}
);
layerId = "64BC062E-13E4-450B-B24E-D8A474022433";
paths = (
{
closed = 1;
nodes = (
"386 -9 OFFCURVE",
"471 42 OFFCURVE",
"471 165 CURVE SMOOTH",
"471 515 LINE",
"445 515 LINE",
"445 159 LINE SMOOTH",
"445 50 OFFCURVE",
"360 15 OFFCURVE",
"269 15 CURVE SMOOTH",
"176 15 OFFCURVE",
"94 51 OFFCURVE",
"94 146 CURVE SMOOTH",
"94 220 OFFCURVE",
"144 262 OFFCURVE",
"226 262 CURVE SMOOTH",
"264 262 LINE",
"264 284 LINE",
"226 284 LINE SMOOTH",
"165 284 OFFCURVE",
"91 312 OFFCURVE",
"91 396 CURVE SMOOTH",
"91 464 OFFCURVE",
"139 498 OFFCURVE",
"204 498 CURVE SMOOTH",
"233 498 OFFCURVE",
"262 491 OFFCURVE",
"276 488 CURVE",
"281 511 LINE",
"261 518 OFFCURVE",
"230 523 OFFCURVE",
"203 523 CURVE SMOOTH",
"121 523 OFFCURVE",
"64 477 OFFCURVE",
"64 397 CURVE SMOOTH",
"64 318 OFFCURVE",
"118 287 OFFCURVE",
"154 274 CURVE",
"154 270 LINE",
"120 257 OFFCURVE",
"67 229 OFFCURVE",
"67 146 CURVE SMOOTH",
"67 47 OFFCURVE",
"143 -9 OFFCURVE",
"267 -9 CURVE SMOOTH"
);
}
);
width = 555;
},
{
anchors = (
{
name = bottom;
position = "{517, 0}";
},
{
name = top;
position = "{527, 504}";
}
);
layerId = "6449CA81-A7C3-4005-93E5-765657812F1B";
paths = (
{
closed = 1;
nodes = (
"448 -9 OFFCURVE",
"527 47 OFFCURVE",
"527 179 CURVE SMOOTH",
"527 515 LINE",
"439 515 LINE",
"439 169 LINE SMOOTH",
"439 95 OFFCURVE",
"397 63 OFFCURVE",
"300 63 CURVE SMOOTH",
"197 63 OFFCURVE",
"155 99 OFFCURVE",
"155 160 CURVE SMOOTH",
"155 218 OFFCURVE",
"195 245 OFFCURVE",
"272 245 CURVE SMOOTH",
"321 245 LINE",
"321 309 LINE",
"272 309 LINE SMOOTH",
"215 309 OFFCURVE",
"155 324 OFFCURVE",
"155 385 CURVE SMOOTH",
"155 427 OFFCURVE",
"184 452 OFFCURVE",
"238 452 CURVE SMOOTH",
"263 452 OFFCURVE",
"288 447 OFFCURVE",
"303 442 CURVE",
"318 510 LINE",
"298 518 OFFCURVE",
"262 525 OFFCURVE",
"226 525 CURVE SMOOTH",
"112 525 OFFCURVE",
"67 461 OFFCURVE",
"67 394 CURVE SMOOTH",
"67 324 OFFCURVE",
"119 289 OFFCURVE",
"160 277 CURVE",
"160 274 LINE",
"114 267 OFFCURVE",
"67 231 OFFCURVE",
"67 153 CURVE SMOOTH",
"67 51 OFFCURVE",
"145 -9 OFFCURVE",
"299 -9 CURVE SMOOTH"
);
}
);
width = 608;
},
{
anchors = (
{
name = bottom;
position = "{540, 0}";
},
{
name = top;
position = "{550, 504}";
}
);
layerId = "E5D3352E-10FF-4C03-AD9F-F95B1FD01257";
paths = (
{
closed = 1;
nodes = (
"457 -9 OFFCURVE",
"550 54 OFFCURVE",
"550 196 CURVE SMOOTH",
"550 520 LINE",
"358 520 LINE",
"358 189 LINE SMOOTH",
"358 161 OFFCURVE",
"335 142 OFFCURVE",
"283 142 CURVE SMOOTH",
"239 142 OFFCURVE",
"214 154 OFFCURVE",
"214 175 CURVE SMOOTH",
"214 189 OFFCURVE",
"229 202 OFFCURVE",
"256 202 CURVE SMOOTH",
"323 202 LINE",
"323 320 LINE",
"260 320 LINE SMOOTH",
"232 320 OFFCURVE",
"214 329 OFFCURVE",
"214 350 CURVE SMOOTH",
"214 367 OFFCURVE",
"226 378 OFFCURVE",
"249 378 CURVE SMOOTH",
"260 378 OFFCURVE",
"276 376 OFFCURVE",
"288 372 CURVE",
"319 512 LINE",
"284 523 OFFCURVE",
"247 530 OFFCURVE",
"207 530 CURVE SMOOTH",
"75 530 OFFCURVE",
"24 461 OFFCURVE",
"24 385 CURVE SMOOTH",
"24 331 OFFCURVE",
"53 285 OFFCURVE",
"110 261 CURVE",
"110 260 LINE",
"55 240 OFFCURVE",
"24 196 OFFCURVE",
"24 143 CURVE SMOOTH",
"24 49 OFFCURVE",
"114 -9 OFFCURVE",
"282 -9 CURVE SMOOTH"
);
}
);
width = 594;
}
);
note = uni0E8D;
unicode = 0E8D;
},
{
glyphname = "doDek-lao";
lastChange = "2017-01-30 19:51:08 +0000";
layers = (
{
anchors = (
{
name = bottom;
position = "{502, 0}";
},
{
name = top;
position = "{492, 504}";
}
);
layerId = "64BC062E-13E4-450B-B24E-D8A474022433";
paths = (
{
closed = 1;
nodes = (
"278 -9 OFFCURVE",
"298 -7 OFFCURVE",
"313 -1 CURVE",
"307 22 LINE",
"297 18 OFFCURVE",
"279 15 OFFCURVE",
"257 15 CURVE SMOOTH",
"124 15 OFFCURVE",
"92 119 OFFCURVE",
"92 252 CURVE SMOOTH",
"92 428 OFFCURVE",
"148 498 OFFCURVE",
"293 498 CURVE SMOOTH",
"421 498 OFFCURVE",
"476 443 OFFCURVE",
"476 355 CURVE SMOOTH",
"476 0 LINE",
"502 0 LINE",
"502 358 LINE SMOOTH",
"502 468 OFFCURVE",
"424 523 OFFCURVE",
"293 523 CURVE SMOOTH",
"133 523 OFFCURVE",
"64 442 OFFCURVE",
"64 251 CURVE SMOOTH",
"64 85 OFFCURVE",
"116 -9 OFFCURVE",
"257 -9 CURVE SMOOTH"
);
}
);
width = 586;
},
{
anchors = (
{
name = bottom;
position = "{552, 0}";
},
{
name = top;
position = "{542, 504}";
}
);
layerId = "6449CA81-A7C3-4005-93E5-765657812F1B";
paths = (
{
closed = 1;
nodes = (
"297 -9 OFFCURVE",
"324 -6 OFFCURVE",
"344 2 CURVE",
"333 68 LINE",
"318 63 OFFCURVE",
"301 60 OFFCURVE",
"282 60 CURVE SMOOTH",
"191 60 OFFCURVE",
"150 123 OFFCURVE",
"150 247 CURVE SMOOTH",
"150 385 OFFCURVE",
"199 452 OFFCURVE",
"319 452 CURVE SMOOTH",
"417 452 OFFCURVE",
"464 405 OFFCURVE",
"464 326 CURVE SMOOTH",
"464 0 LINE",
"552 0 LINE",
"552 327 LINE SMOOTH",
"552 456 OFFCURVE",
"460 525 OFFCURVE",
"319 525 CURVE SMOOTH",
"162 525 OFFCURVE",
"62 441 OFFCURVE",
"62 246 CURVE SMOOTH",
"62 94 OFFCURVE",
"123 -9 OFFCURVE",
"269 -9 CURVE SMOOTH"
);
}
);
width = 633;
},
{
anchors = (
{
name = bottom;
position = "{568, 0}";
},
{
name = top;
position = "{558, 504}";
}
);
layerId = "E5D3352E-10FF-4C03-AD9F-F95B1FD01257";
paths = (
{
closed = 1;
nodes = (
"277 -9 OFFCURVE",
"311 -4 OFFCURVE",
"343 9 CURVE",
"320 146 LINE",
"307 141 OFFCURVE",
"289 139 OFFCURVE",
"279 139 CURVE SMOOTH",
"238 139 OFFCURVE",
"216 169 OFFCURVE",
"216 249 CURVE SMOOTH",
"216 362 OFFCURVE",
"257 378 OFFCURVE",
"303 378 CURVE SMOOTH",
"354 378 OFFCURVE",
"376 353 OFFCURVE",
"376 313 CURVE SMOOTH",
"376 0 LINE",
"568 0 LINE",
"568 313 LINE SMOOTH",
"568 455 OFFCURVE",
"475 530 OFFCURVE",
"306 530 CURVE SMOOTH",
"143 530 OFFCURVE",
"24 462 OFFCURVE",
"24 246 CURVE SMOOTH",
"24 102 OFFCURVE",
"78 -9 OFFCURVE",
"240 -9 CURVE SMOOTH"
);
}
);
width = 612;
}
);
note = uni0E94;
unicode = 0E94;
},
{
glyphname = "toTa-lao";
lastChange = "2017-01-30 19:51:08 +0000";
layers = (
{
anchors = (
{
name = bottom;
position = "{516, 0}";
},
{
name = top;
position = "{506, 504}";
}
);
layerId = "64BC062E-13E4-450B-B24E-D8A474022433";
paths = (
{
closed = 1;
nodes = (
"285 -9 OFFCURVE",
"310 -5 OFFCURVE",
"322 1 CURVE",
"319 23 LINE",
"304 19 OFFCURVE",
"286 15 OFFCURVE",
"258 15 CURVE SMOOTH",
"129 15 OFFCURVE",
"90 101 OFFCURVE",
"90 265 CURVE SMOOTH",
"90 432 OFFCURVE",
"131 500 OFFCURVE",
"206 500 CURVE SMOOTH",
"250 500 OFFCURVE",
"282 476 OFFCURVE",
"290 431 CURVE",
"312 431 LINE",
"323 472 OFFCURVE",
"343 500 OFFCURVE",
"400 500 CURVE SMOOTH",
"459 500 OFFCURVE",
"490 470 OFFCURVE",
"490 402 CURVE SMOOTH",
"490 0 LINE",
"516 0 LINE",
"516 400 LINE SMOOTH",
"516 480 OFFCURVE",
"478 523 OFFCURVE",
"404 523 CURVE SMOOTH",
"348 523 OFFCURVE",
"316 498 OFFCURVE",
"302 462 CURVE",
"300 462 LINE",
"289 496 OFFCURVE",
"258 523 OFFCURVE",
"204 523 CURVE SMOOTH",
"122 523 OFFCURVE",
"64 462 OFFCURVE",
"64 265 CURVE SMOOTH",
"64 89 OFFCURVE",
"110 -9 OFFCURVE",
"256 -9 CURVE SMOOTH"
);
}
);
width = 600;
},
{
anchors = (
{
name = bottom;
position = "{561, 0}";
},
{
name = top;
position = "{552, 504}";
}
);
layerId = "6449CA81-A7C3-4005-93E5-765657812F1B";
paths = (
{
closed = 1;
nodes = (
"297 -9 OFFCURVE",
"324 -6 OFFCURVE",
"344 2 CURVE",
"333 68 LINE",
"318 63 OFFCURVE",
"301 60 OFFCURVE",
"282 60 CURVE SMOOTH",
"189 60 OFFCURVE",
"150 127 OFFCURVE",
"150 259 CURVE SMOOTH",
"150 393 OFFCURVE",
"191 452 OFFCURVE",
"241 452 CURVE SMOOTH",
"275 452 OFFCURVE",
"292 423 OFFCURVE",
"297 381 CURVE",
"354 381 LINE",
"359 420 OFFCURVE",
"378 452 OFFCURVE",
"416 452 CURVE SMOOTH",
"457 452 OFFCURVE",
"473 417 OFFCURVE",
"473 359 CURVE SMOOTH",
"473 0 LINE",
"561 0 LINE",
"561 366 LINE SMOOTH",
"561 464 OFFCURVE",
"518 525 OFFCURVE",
"434 525 CURVE SMOOTH",
"377 525 OFFCURVE",
"342 499 OFFCURVE",
"328 463 CURVE",
"324 463 LINE",
"310 497 OFFCURVE",
"283 525 OFFCURVE",
"227 525 CURVE SMOOTH",
"135 525 OFFCURVE",
"62 447 OFFCURVE",
"62 262 CURVE SMOOTH",
"62 93 OFFCURVE",
"123 -9 OFFCURVE",
"269 -9 CURVE SMOOTH"
);
}
);
width = 643;
},
{
anchors = (
{
name = bottom;
position = "{586, 0}";
},
{
name = top;
position = "{577, 504}";
}
);
layerId = "E5D3352E-10FF-4C03-AD9F-F95B1FD01257";
paths = (
{
closed = 1;
nodes = (
"278 -9 OFFCURVE",
"311 -4 OFFCURVE",
"343 9 CURVE",
"320 146 LINE",
"307 141 OFFCURVE",
"290 139 OFFCURVE",
"278 139 CURVE SMOOTH",
"233 139 OFFCURVE",
"216 160 OFFCURVE",
"216 266 CURVE SMOOTH",
"216 345 OFFCURVE",
"226 378 OFFCURVE",
"254 378 CURVE SMOOTH",
"268 378 OFFCURVE",
"279 369 OFFCURVE",
"281 347 CURVE",
"345 347 LINE",
"348 369 OFFCURVE",
"357 378 OFFCURVE",
"372 378 CURVE SMOOTH",
"388 378 OFFCURVE",
"394 371 OFFCURVE",
"394 348 CURVE SMOOTH",
"394 0 LINE",
"586 0 LINE",
"586 358 LINE SMOOTH",
"586 464 OFFCURVE",
"548 530 OFFCURVE",
"443 530 CURVE SMOOTH",
"391 530 OFFCURVE",
"341 515 OFFCURVE",
"315 482 CURVE",
"313 482 LINE",
"295 515 OFFCURVE",
"249 530 OFFCURVE",
"204 530 CURVE SMOOTH",
"98 530 OFFCURVE",
"24 438 OFFCURVE",
"24 250 CURVE SMOOTH",
"24 92 OFFCURVE",
"77 -9 OFFCURVE",
"240 -9 CURVE SMOOTH"
);
}
);
width = 630;
}
);
note = uni0E95;
unicode = 0E95;
},
{
glyphname = "thoThong-lao";
lastChange = "2017-01-30 19:51:08 +0000";
layers = (
{
anchors = (
{
name = bottom;
position = "{497, -103}";
},
{
name = top;
position = "{487, 504}";
}
);
layerId = "64BC062E-13E4-450B-B24E-D8A474022433";
paths = (
{
closed = 1;
nodes = (
"497 -103 LINE",
"497 343 LINE SMOOTH",
"497 468 OFFCURVE",
"435 523 OFFCURVE",
"335 523 CURVE SMOOTH",
"231 523 OFFCURVE",
"165 464 OFFCURVE",
"134 403 CURVE",
"133 403 LINE",
"123 452 OFFCURVE",
"109 488 OFFCURVE",
"84 523 CURVE",
"64 510 LINE",
"90 474 OFFCURVE",
"112 422 OFFCURVE",
"112 367 CURVE SMOOTH",
"112 84 LINE SMOOTH",
"112 17 OFFCURVE",
"139 -9 OFFCURVE",
"189 -9 CURVE SMOOTH",
"203 -9 OFFCURVE",
"220 -7 OFFCURVE",
"233 -2 CURVE",
"228 22 LINE",
"215 18 OFFCURVE",
"205 15 OFFCURVE",
"189 15 CURVE SMOOTH",
"155 15 OFFCURVE",
"138 29 OFFCURVE",
"138 80 CURVE SMOOTH",
"138 337 LINE SMOOTH",
"138 400 OFFCURVE",
"211 498 OFFCURVE",
"338 498 CURVE SMOOTH",
"445 498 OFFCURVE",
"471 428 OFFCURVE",
"471 344 CURVE SMOOTH",
"471 -103 LINE"
);
}
);
width = 581;
},
{
anchors = (
{
name = bottom;
position = "{532, -103}";
},
{
name = top;
position = "{522, 504}";
}
);
layerId = "6449CA81-A7C3-4005-93E5-765657812F1B";
paths = (
{
closed = 1;
nodes = (
"532 -103 LINE",
"532 333 LINE SMOOTH",
"532 459 OFFCURVE",
"457 525 OFFCURVE",
"338 525 CURVE SMOOTH",
"278 525 OFFCURVE",
"218 508 OFFCURVE",
"170 449 CURVE",
"167 449 LINE",
"156 478 OFFCURVE",
"133 509 OFFCURVE",
"115 525 CURVE",
"51 476 LINE",
"79 450 OFFCURVE",
"106 410 OFFCURVE",
"106 341 CURVE SMOOTH",
"106 101 LINE SMOOTH",
"106 31 OFFCURVE",
"144 -9 OFFCURVE",
"210 -9 CURVE SMOOTH",
"233 -9 OFFCURVE",
"258 -4 OFFCURVE",
"281 5 CURVE",
"268 66 LINE",
"256 62 OFFCURVE",
"244 60 OFFCURVE",
"233 60 CURVE SMOOTH",
"205 60 OFFCURVE",
"194 72 OFFCURVE",
"194 99 CURVE SMOOTH",
"194 335 LINE SMOOTH",
"194 428 OFFCURVE",
"260 452 OFFCURVE",
"319 452 CURVE SMOOTH",
"402 452 OFFCURVE",
"444 406 OFFCURVE",
"444 326 CURVE SMOOTH",
"444 -103 LINE"
);
}
);
width = 613;
},
{
anchors = (
{
name = bottom;
position = "{575, -103}";
},
{
name = top;
position = "{565, 504}";
}
);
layerId = "E5D3352E-10FF-4C03-AD9F-F95B1FD01257";
paths = (
{
closed = 1;
nodes = (
"575 -103 LINE",
"575 351 LINE SMOOTH",
"575 448 OFFCURVE",
"513 530 OFFCURVE",
"382 530 CURVE SMOOTH",
"303 530 OFFCURVE",
"238 500 OFFCURVE",
"200 460 CURVE",
"197 460 LINE",
"188 485 OFFCURVE",
"168 507 OFFCURVE",
"143 530 CURVE",
"4 426 LINE",
"57 382 OFFCURVE",
"73 350 OFFCURVE",
"73 284 CURVE SMOOTH",
"73 134 LINE SMOOTH",
"73 42 OFFCURVE",
"123 -9 OFFCURVE",
"214 -9 CURVE SMOOTH",
"257 -9 OFFCURVE",
"315 3 OFFCURVE",
"353 20 CURVE",
"326 141 LINE",
"316 137 OFFCURVE",
"305 134 OFFCURVE",
"294 134 CURVE SMOOTH",
"272 134 OFFCURVE",
"265 144 OFFCURVE",
"265 161 CURVE SMOOTH",
"265 321 LINE SMOOTH",
"265 360 OFFCURVE",
"295 378 OFFCURVE",
"327 378 CURVE SMOOTH",
"360 378 OFFCURVE",
"383 361 OFFCURVE",
"383 322 CURVE SMOOTH",
"383 -103 LINE"
);
}
);
width = 619;
}
);
note = uni0E96;
unicode = 0E96;
},
{
glyphname = "thoThung-lao";
lastChange = "2017-01-30 19:51:08 +0000";
layers = (
{
anchors = (
{
name = bottom;
position = "{583, 0}";
},
{
name = top;
position = "{573, 504}";
}
);
guideLines = (
{
angle = 90;
position = "{457, 444}";
showMeasurement = 1;
}
);
layerId = "64BC062E-13E4-450B-B24E-D8A474022433";
paths = (
{
closed = 1;
nodes = (
"307 -9 OFFCURVE",
"347 50 OFFCURVE",
"347 134 CURVE SMOOTH",
"347 377 LINE SMOOTH",
"347 459 OFFCURVE",
"380 501 OFFCURVE",
"452 501 CURVE SMOOTH",
"525 501 OFFCURVE",
"557 459 OFFCURVE",
"557 378 CURVE SMOOTH",
"557 0 LINE",
"583 0 LINE",
"583 379 LINE SMOOTH",
"583 463 OFFCURVE",
"545 523 OFFCURVE",
"452 523 CURVE SMOOTH",
"360 523 OFFCURVE",
"321 463 OFFCURVE",
"321 379 CURVE SMOOTH",
"321 135 LINE SMOOTH",
"321 55 OFFCURVE",
"287 13 OFFCURVE",
"215 13 CURVE SMOOTH",
"143 13 OFFCURVE",
"110 55 OFFCURVE",
"110 135 CURVE SMOOTH",
"110 515 LINE",
"84 515 LINE",
"84 134 LINE SMOOTH",
"84 50 OFFCURVE",
"123 -9 OFFCURVE",
"215 -9 CURVE SMOOTH"
);
}
);
width = 667;
},
{
anchors = (
{
name = bottom;
position = "{638, 0}";
},
{
name = top;
position = "{628, 504}";
}
);
layerId = "6449CA81-A7C3-4005-93E5-765657812F1B";
paths = (
{
closed = 1;
nodes = (
"357 -9 OFFCURVE",
"400 59 OFFCURVE",
"400 159 CURVE SMOOTH",
"400 360 LINE SMOOTH",
"400 418 OFFCURVE",
"418 452 OFFCURVE",
"475 452 CURVE SMOOTH",
"531 452 OFFCURVE",
"550 418 OFFCURVE",
"550 360 CURVE SMOOTH",
"550 0 LINE",
"638 0 LINE",
"638 357 LINE SMOOTH",
"638 456 OFFCURVE",
"593 525 OFFCURVE",
"475 525 CURVE SMOOTH",
"357 525 OFFCURVE",
"315 456 OFFCURVE",
"315 357 CURVE SMOOTH",
"315 155 LINE SMOOTH",
"315 97 OFFCURVE",
"296 63 OFFCURVE",
"240 63 CURVE SMOOTH",
"183 63 OFFCURVE",
"165 97 OFFCURVE",
"165 155 CURVE SMOOTH",
"165 515 LINE",
"77 515 LINE",
"77 159 LINE SMOOTH",
"77 59 OFFCURVE",
"122 -9 OFFCURVE",
"240 -9 CURVE SMOOTH"
);
}
);
width = 719;
},
{
anchors = (
{
name = bottom;
position = "{672, 0}";
},
{
name = top;
position = "{662, 504}";
}
);
layerId = "E5D3352E-10FF-4C03-AD9F-F95B1FD01257";
paths = (
{
closed = 1;
nodes = (
"394 -9 OFFCURVE",
"440 63 OFFCURVE",
"440 172 CURVE SMOOTH",
"440 364 LINE SMOOTH",
"440 378 OFFCURVE",
"453 383 OFFCURVE",
"464 383 CURVE SMOOTH",
"475 383 OFFCURVE",
"488 378 OFFCURVE",
"488 364 CURVE SMOOTH",
"488 0 LINE",
"672 0 LINE",
"672 349 LINE SMOOTH",
"672 457 OFFCURVE",
"611 530 OFFCURVE",
"466 530 CURVE SMOOTH",
"321 530 OFFCURVE",
"276 457 OFFCURVE",
"276 349 CURVE SMOOTH",
"276 156 LINE SMOOTH",
"276 142 OFFCURVE",
"263 137 OFFCURVE",
"252 137 CURVE SMOOTH",
"241 137 OFFCURVE",
"228 142 OFFCURVE",
"228 156 CURVE SMOOTH",
"228 520 LINE",
"44 520 LINE",
"44 172 LINE SMOOTH",
"44 63 OFFCURVE",
"105 -9 OFFCURVE",
"249 -9 CURVE SMOOTH"
);
}
);
width = 716;
}
);
note = uni0E97;
unicode = 0E97;
},
{
glyphname = "noNok-lao";
lastChange = "2017-01-30 19:51:08 +0000";
layers = (
{
anchors = (
{
name = bottom;
position = "{495, 0}";
},
{
name = top;
position = "{504, 504}";
}
);
layerId = "64BC062E-13E4-450B-B24E-D8A474022433";
paths = (
{
closed = 1;
nodes = (
"131 25 OFFCURVE",
"146 57 OFFCURVE",
"153 103 CURVE",
"155 103 LINE",
"185 35 OFFCURVE",
"242 -9 OFFCURVE",
"336 -9 CURVE SMOOTH",
"442 -9 OFFCURVE",
"504 47 OFFCURVE",
"504 160 CURVE SMOOTH",
"504 515 LINE",
"478 515 LINE",
"478 161 LINE SMOOTH",
"478 67 OFFCURVE",
"434 13 OFFCURVE",
"338 13 CURVE SMOOTH",
"222 13 OFFCURVE",
"160 92 OFFCURVE",
"160 193 CURVE SMOOTH",
"160 455 LINE SMOOTH",
"160 501 OFFCURVE",
"141 523 OFFCURVE",
"99 523 CURVE SMOOTH",
"78 523 OFFCURVE",
"57 517 OFFCURVE",
"40 509 CURVE",
"45 486 LINE",
"61 492 OFFCURVE",
"78 498 OFFCURVE",
"98 498 CURVE SMOOTH",
"124 498 OFFCURVE",
"134 487 OFFCURVE",
"134 455 CURVE SMOOTH",
"134 146 LINE SMOOTH",
"134 91 OFFCURVE",
"112 39 OFFCURVE",
"86 4 CURVE",
"106 -9 LINE"
);
}
);
width = 588;
},
{
anchors = (
{
name = bottom;
position = "{518, 0}";
},
{
name = top;
position = "{527, 504}";
}
);
layerId = "6449CA81-A7C3-4005-93E5-765657812F1B";
paths = (
{
closed = 1;
nodes = (
"133 5 OFFCURVE",
"156 37 OFFCURVE",
"168 66 CURVE",
"171 66 LINE",
"212 13 OFFCURVE",
"265 -9 OFFCURVE",
"333 -9 CURVE SMOOTH",
"456 -9 OFFCURVE",
"527 64 OFFCURVE",
"527 187 CURVE SMOOTH",
"527 515 LINE",
"439 515 LINE",
"439 189 LINE SMOOTH",
"439 111 OFFCURVE",
"405 63 OFFCURVE",
"319 63 CURVE SMOOTH",
"259 63 OFFCURVE",
"194 87 OFFCURVE",
"194 181 CURVE SMOOTH",
"194 411 LINE SMOOTH",
"194 482 OFFCURVE",
"162 521 OFFCURVE",
"96 521 CURVE SMOOTH",
"72 521 OFFCURVE",
"44 516 OFFCURVE",
"20 507 CURVE",
"33 446 LINE",
"44 449 OFFCURVE",
"56 452 OFFCURVE",
"68 452 CURVE SMOOTH",
"94 452 OFFCURVE",
"106 440 OFFCURVE",
"106 412 CURVE SMOOTH",
"106 174 LINE SMOOTH",
"106 106 OFFCURVE",
"80 65 OFFCURVE",
"52 39 CURVE",
"116 -9 LINE"
);
}
);
width = 608;
},
{
anchors = (
{
name = bottom;
position = "{567, 0}";
},
{
name = top;
position = "{576, 504}";
}
);
layerId = "E5D3352E-10FF-4C03-AD9F-F95B1FD01257";
paths = (
{
closed = 1;
nodes = (
"187 13 OFFCURVE",
"207 35 OFFCURVE",
"217 60 CURVE",
"220 60 LINE",
"258 19 OFFCURVE",
"309 -9 OFFCURVE",
"385 -9 CURVE SMOOTH",
"518 -9 OFFCURVE",
"576 77 OFFCURVE",
"576 176 CURVE SMOOTH",
"576 520 LINE",
"384 520 LINE",
"384 200 LINE SMOOTH",
"384 162 OFFCURVE",
"368 142 OFFCURVE",
"332 142 CURVE SMOOTH",
"299 142 OFFCURVE",
"284 160 OFFCURVE",
"284 200 CURVE SMOOTH",
"284 393 LINE SMOOTH",
"284 487 OFFCURVE",
"241 530 OFFCURVE",
"149 530 CURVE SMOOTH",
"106 530 OFFCURVE",
"43 520 OFFCURVE",
"5 500 CURVE",
"32 379 LINE",
"42 383 OFFCURVE",
"54 387 OFFCURVE",
"67 387 CURVE SMOOTH",
"85 387 OFFCURVE",
"92 380 OFFCURVE",
"92 364 CURVE SMOOTH",
"92 236 LINE SMOOTH",
"92 171 OFFCURVE",
"77 139 OFFCURVE",
"24 94 CURVE",
"163 -9 LINE"
);
}
);
width = 620;
}
);
note = uni0E99;
unicode = 0E99;
},
{
glyphname = "boBae-lao";
lastChange = "2017-01-30 19:51:08 +0000";
layers = (
{
anchors = (
{
name = bottom;
position = "{478, 0}";
},
{
name = top;
position = "{488, 504}";
}
);
layerId = "64BC062E-13E4-450B-B24E-D8A474022433";
paths = (
{
closed = 1;
nodes = (
"425 -9 OFFCURVE",
"488 63 OFFCURVE",
"488 164 CURVE SMOOTH",
"488 515 LINE",
"462 515 LINE",
"462 164 LINE SMOOTH",
"462 70 OFFCURVE",
"403 15 OFFCURVE",
"286 15 CURVE SMOOTH",
"169 15 OFFCURVE",
"110 70 OFFCURVE",
"110 164 CURVE SMOOTH",
"110 515 LINE",
"84 515 LINE",
"84 164 LINE SMOOTH",
"84 63 OFFCURVE",
"147 -9 OFFCURVE",
"286 -9 CURVE SMOOTH"
);
}
);
width = 572;
},
{
anchors = (
{
name = bottom;
position = "{517, 0}";
},
{
name = top;
position = "{527, 504}";
}
);
layerId = "6449CA81-A7C3-4005-93E5-765657812F1B";
paths = (
{
closed = 1;
nodes = (
"461 -9 OFFCURVE",
"527 68 OFFCURVE",
"527 197 CURVE SMOOTH",
"527 515 LINE",
"439 515 LINE",
"439 190 LINE SMOOTH",
"439 110 OFFCURVE",
"400 63 OFFCURVE",
"302 63 CURVE SMOOTH",
"205 63 OFFCURVE",
"165 110 OFFCURVE",
"165 190 CURVE SMOOTH",
"165 515 LINE",
"77 515 LINE",
"77 197 LINE SMOOTH",
"77 68 OFFCURVE",
"143 -9 OFFCURVE",
"302 -9 CURVE SMOOTH"
);
}
);
width = 608;
},
{
anchors = (
{
name = bottom;
position = "{544, 0}";
},
{
name = top;
position = "{554, 504}";
}
);
layerId = "E5D3352E-10FF-4C03-AD9F-F95B1FD01257";
paths = (
{
closed = 1;
nodes = (
"466 -9 OFFCURVE",
"554 69 OFFCURVE",
"554 222 CURVE SMOOTH",
"554 520 LINE",
"362 520 LINE",
"362 209 LINE SMOOTH",
"362 165 OFFCURVE",
"341 142 OFFCURVE",
"299 142 CURVE SMOOTH",
"257 142 OFFCURVE",
"236 165 OFFCURVE",
"236 209 CURVE SMOOTH",
"236 520 LINE",
"44 520 LINE",
"44 222 LINE SMOOTH",
"44 69 OFFCURVE",
"132 -9 OFFCURVE",
"299 -9 CURVE SMOOTH"
);
}
);
width = 598;
}
);
note = uni0E9A;
unicode = 0E9A;
},
{
glyphname = "poPa-lao";
lastChange = "2017-01-30 19:51:08 +0000";
layers = (
{
anchors = (
{
name = bottom;
position = "{478, 0}";
},
{
name = top;
position = "{380, 504}";
}
);
layerId = "64BC062E-13E4-450B-B24E-D8A474022433";
paths = (
{
closed = 1;
nodes = (
"425 -9 OFFCURVE",
"488 63 OFFCURVE",
"488 164 CURVE SMOOTH",
"488 700 LINE",
"462 700 LINE",
"462 164 LINE SMOOTH",
"462 70 OFFCURVE",
"403 15 OFFCURVE",
"286 15 CURVE SMOOTH",
"169 15 OFFCURVE",
"110 70 OFFCURVE",
"110 164 CURVE SMOOTH",
"110 515 LINE",
"84 515 LINE",
"84 164 LINE SMOOTH",
"84 63 OFFCURVE",
"147 -9 OFFCURVE",
"286 -9 CURVE SMOOTH"
);
}
);
width = 572;
},
{
anchors = (
{
name = bottom;
position = "{517, 0}";
},
{
name = top;
position = "{415, 504}";
}
);
layerId = "6449CA81-A7C3-4005-93E5-765657812F1B";
paths = (
{
closed = 1;
nodes = (
"462 -9 OFFCURVE",
"527 68 OFFCURVE",
"527 197 CURVE SMOOTH",
"527 671 LINE",
"439 671 LINE",
"439 190 LINE SMOOTH",
"439 110 OFFCURVE",
"400 63 OFFCURVE",
"302 63 CURVE SMOOTH",
"205 63 OFFCURVE",
"165 110 OFFCURVE",
"165 190 CURVE SMOOTH",
"165 515 LINE",
"77 515 LINE",
"77 197 LINE SMOOTH",
"77 68 OFFCURVE",
"143 -9 OFFCURVE",
"302 -9 CURVE SMOOTH"
);
}
);
width = 608;
},
{
anchors = (
{
name = bottom;
position = "{554, 0}";
},
{
name = top;
position = "{350, 504}";
}
);
layerId = "E5D3352E-10FF-4C03-AD9F-F95B1FD01257";
paths = (
{
closed = 1;
nodes = (
"476 -9 OFFCURVE",
"564 69 OFFCURVE",
"564 222 CURVE SMOOTH",
"564 671 LINE",
"372 671 LINE",
"372 209 LINE SMOOTH",
"372 165 OFFCURVE",
"350 142 OFFCURVE",
"306 142 CURVE SMOOTH",
"261 142 OFFCURVE",
"236 165 OFFCURVE",
"236 209 CURVE SMOOTH",
"236 520 LINE",
"44 520 LINE",
"44 222 LINE SMOOTH",
"44 69 OFFCURVE",
"136 -9 OFFCURVE",
"306 -9 CURVE SMOOTH"
);
}
);
width = 613;
}
);
note = uni0E9B;
unicode = 0E9B;
},
{
glyphname = "phoPhueng-lao";
lastChange = "2017-01-30 19:51:08 +0000";
layers = (
{
anchors = (
{
name = bottom;
position = "{583, 0}";
},
{
name = top;
position = "{596, 539}";
}
);
layerId = "64BC062E-13E4-450B-B24E-D8A474022433";
paths = (
{
closed = 1;
nodes = (
"272 -9 OFFCURVE",
"316 10 OFFCURVE",
"338 65 CURVE",
"340 65 LINE",
"361 10 OFFCURVE",
"405 -9 OFFCURVE",
"459 -9 CURVE SMOOTH",
"555 -9 OFFCURVE",
"593 50 OFFCURVE",
"593 147 CURVE SMOOTH",
"593 310 LINE SMOOTH",
"593 366 OFFCURVE",
"586 405 OFFCURVE",
"542 425 CURVE",
"542 426 LINE",
"585 440 OFFCURVE",
"596 485 OFFCURVE",
"596 538 CURVE SMOOTH",
"596 556 LINE",
"569 556 LINE",
"569 538 LINE SMOOTH",
"569 477 OFFCURVE",
"556 437 OFFCURVE",
"504 437 CURVE SMOOTH",
"480 437 LINE",
"480 415 LINE",
"503 415 LINE SMOOTH",
"553 415 OFFCURVE",
"567 378 OFFCURVE",
"567 308 CURVE SMOOTH",
"567 143 LINE SMOOTH",
"567 62 OFFCURVE",
"538 13 OFFCURVE",
"460 13 CURVE SMOOTH",
"381 13 OFFCURVE",
"351 62 OFFCURVE",
"351 129 CURVE SMOOTH",
"351 289 LINE",
"327 289 LINE",
"327 129 LINE SMOOTH",
"327 62 OFFCURVE",
"296 13 OFFCURVE",
"218 13 CURVE SMOOTH",
"139 13 OFFCURVE",
"110 62 OFFCURVE",
"110 143 CURVE SMOOTH",
"110 428 LINE SMOOTH",
"110 475 OFFCURVE",
"128 501 OFFCURVE",
"174 501 CURVE SMOOTH",
"203 501 OFFCURVE",
"228 491 OFFCURVE",
"244 482 CURVE",
"254 503 LINE",
"235 512 OFFCURVE",
"203 523 OFFCURVE",
"171 523 CURVE SMOOTH",
"117 523 OFFCURVE",
"84 491 OFFCURVE",
"84 427 CURVE SMOOTH",
"84 147 LINE SMOOTH",
"84 50 OFFCURVE",
"122 -9 OFFCURVE",
"218 -9 CURVE SMOOTH"
);
}
);
width = 677;
},
{
anchors = (
{
name = bottom;
position = "{628, 0}";
},
{
name = top;
position = "{638, 504}";
}
);
layerId = "6449CA81-A7C3-4005-93E5-765657812F1B";
paths = (
{
closed = 1;
nodes = (
"289 -9 OFFCURVE",
"328 15 OFFCURVE",
"355 54 CURVE",
"359 54 LINE",
"387 15 OFFCURVE",
"426 -9 OFFCURVE",
"490 -9 CURVE SMOOTH",
"591 -9 OFFCURVE",
"638 51 OFFCURVE",
"638 148 CURVE SMOOTH",
"638 324 LINE SMOOTH",
"638 377 OFFCURVE",
"622 410 OFFCURVE",
"577 430 CURVE",
"577 433 LINE",
"622 458 OFFCURVE",
"638 493 OFFCURVE",
"638 544 CURVE SMOOTH",
"638 552 LINE",
"550 552 LINE",
"550 544 LINE SMOOTH",
"550 495 OFFCURVE",
"536 462 OFFCURVE",
"488 462 CURVE SMOOTH",
"474 462 LINE",
"474 403 LINE",
"487 403 LINE SMOOTH",
"528 403 OFFCURVE",
"550 375 OFFCURVE",
"550 323 CURVE SMOOTH",
"550 138 LINE SMOOTH",
"550 86 OFFCURVE",
"526 63 OFFCURVE",
"477 63 CURVE SMOOTH",
"418 63 OFFCURVE",
"400 95 OFFCURVE",
"400 152 CURVE SMOOTH",
"400 309 LINE",
"315 309 LINE",
"315 152 LINE SMOOTH",
"315 95 OFFCURVE",
"297 63 OFFCURVE",
"238 63 CURVE SMOOTH",
"189 63 OFFCURVE",
"165 86 OFFCURVE",
"165 138 CURVE SMOOTH",
"165 412 LINE SMOOTH",
"165 441 OFFCURVE",
"182 452 OFFCURVE",
"204 452 CURVE SMOOTH",
"214 452 OFFCURVE",
"227 449 OFFCURVE",
"239 446 CURVE",
"252 507 LINE",
"227 516 OFFCURVE",
"202 521 OFFCURVE",
"180 521 CURVE SMOOTH",
"116 521 OFFCURVE",
"77 481 OFFCURVE",
"77 410 CURVE SMOOTH",
"77 149 LINE SMOOTH",
"77 51 OFFCURVE",
"124 -9 OFFCURVE",
"225 -9 CURVE SMOOTH"
);
}
);
width = 719;
},
{
anchors = (
{
name = bottom;
position = "{633, 0}";
},
{
name = top;
position = "{645, 504}";
}
);
layerId = "E5D3352E-10FF-4C03-AD9F-F95B1FD01257";
paths = (
{
closed = 1;
nodes = (
"268 -9 OFFCURVE",
"320 11 OFFCURVE",
"342 40 CURVE",
"344 40 LINE",
"370 10 OFFCURVE",
"424 -9 OFFCURVE",
"484 -9 CURVE SMOOTH",
"598 -9 OFFCURVE",
"645 63 OFFCURVE",
"645 162 CURVE SMOOTH",
"645 318 LINE SMOOTH",
"645 375 OFFCURVE",
"627 409 OFFCURVE",
"578 433 CURVE",
"578 436 LINE",
"629 462 OFFCURVE",
"647 499 OFFCURVE",
"647 552 CURVE SMOOTH",
"647 560 LINE",
"463 560 LINE",
"463 552 LINE SMOOTH",
"463 504 OFFCURVE",
"450 480 OFFCURVE",
"397 480 CURVE SMOOTH",
"383 480 LINE",
"383 377 LINE",
"396 377 LINE SMOOTH",
"445 377 OFFCURVE",
"463 358 OFFCURVE",
"463 309 CURVE SMOOTH",
"463 156 LINE SMOOTH",
"463 144 OFFCURVE",
"454 137 OFFCURVE",
"439 137 CURVE SMOOTH",
"424 137 OFFCURVE",
"415 143 OFFCURVE",
"415 154 CURVE SMOOTH",
"415 309 LINE",
"274 309 LINE",
"274 154 LINE SMOOTH",
"274 143 OFFCURVE",
"265 137 OFFCURVE",
"249 137 CURVE SMOOTH",
"234 137 OFFCURVE",
"226 144 OFFCURVE",
"226 156 CURVE SMOOTH",
"226 353 LINE SMOOTH",
"226 374 OFFCURVE",
"242 387 OFFCURVE",
"264 387 CURVE SMOOTH",
"275 387 OFFCURVE",
"288 383 OFFCURVE",
"298 379 CURVE",
"325 500 LINE",
"287 517 OFFCURVE",
"239 530 OFFCURVE",
"196 530 CURVE SMOOTH",
"101 530 OFFCURVE",
"44 469 OFFCURVE",
"44 373 CURVE SMOOTH",
"44 170 LINE SMOOTH",
"44 61 OFFCURVE",
"102 -9 OFFCURVE",
"210 -9 CURVE SMOOTH"
);
}
);
width = 693;
}
);
note = uni0E9C;
unicode = 0E9C;
},
{
glyphname = "foFon-lao";
lastChange = "2017-01-30 19:51:08 +0000";
layers = (
{
anchors = (
{
name = bottom;
position = "{583, 0}";
},
{
name = top;
position = "{485, 504}";
}
);
layerId = "64BC062E-13E4-450B-B24E-D8A474022433";
paths = (
{
closed = 1;
nodes = (
"272 -9 OFFCURVE",
"316 10 OFFCURVE",
"338 65 CURVE",
"340 65 LINE",
"361 10 OFFCURVE",
"405 -9 OFFCURVE",
"459 -9 CURVE SMOOTH",
"555 -9 OFFCURVE",
"593 50 OFFCURVE",
"593 147 CURVE SMOOTH",
"593 700 LINE",
"567 700 LINE",
"567 143 LINE SMOOTH",
"567 62 OFFCURVE",
"538 13 OFFCURVE",
"460 13 CURVE SMOOTH",
"381 13 OFFCURVE",
"351 62 OFFCURVE",
"351 129 CURVE SMOOTH",
"351 289 LINE",
"327 289 LINE",
"327 129 LINE SMOOTH",
"327 62 OFFCURVE",
"296 13 OFFCURVE",
"218 13 CURVE SMOOTH",
"139 13 OFFCURVE",
"110 62 OFFCURVE",
"110 143 CURVE SMOOTH",
"110 428 LINE SMOOTH",
"110 475 OFFCURVE",
"128 501 OFFCURVE",
"174 501 CURVE SMOOTH",
"203 501 OFFCURVE",
"228 491 OFFCURVE",
"244 482 CURVE",
"254 503 LINE",
"235 512 OFFCURVE",
"203 523 OFFCURVE",
"171 523 CURVE SMOOTH",
"117 523 OFFCURVE",
"84 491 OFFCURVE",
"84 427 CURVE SMOOTH",
"84 147 LINE SMOOTH",
"84 50 OFFCURVE",
"122 -9 OFFCURVE",
"218 -9 CURVE SMOOTH"
);
}
);
width = 677;
},
{
anchors = (
{
name = bottom;
position = "{628, 0}";
},
{
name = top;
position = "{526, 504}";
}
);
layerId = "6449CA81-A7C3-4005-93E5-765657812F1B";
paths = (
{
closed = 1;
nodes = (
"289 -9 OFFCURVE",
"328 15 OFFCURVE",
"355 54 CURVE",
"359 54 LINE",
"387 15 OFFCURVE",
"426 -9 OFFCURVE",
"490 -9 CURVE SMOOTH",
"591 -9 OFFCURVE",
"638 51 OFFCURVE",
"638 148 CURVE SMOOTH",
"638 671 LINE",
"550 671 LINE",
"550 138 LINE SMOOTH",
"550 86 OFFCURVE",
"526 63 OFFCURVE",
"477 63 CURVE SMOOTH",
"418 63 OFFCURVE",
"400 95 OFFCURVE",
"400 152 CURVE SMOOTH",
"400 309 LINE",
"315 309 LINE",
"315 152 LINE SMOOTH",
"315 95 OFFCURVE",
"297 63 OFFCURVE",
"238 63 CURVE SMOOTH",
"189 63 OFFCURVE",
"165 86 OFFCURVE",
"165 138 CURVE SMOOTH",
"165 412 LINE SMOOTH",
"165 441 OFFCURVE",
"182 452 OFFCURVE",
"204 452 CURVE SMOOTH",
"214 452 OFFCURVE",
"227 449 OFFCURVE",
"239 446 CURVE",
"252 507 LINE",
"227 516 OFFCURVE",
"202 521 OFFCURVE",
"180 521 CURVE SMOOTH",
"116 521 OFFCURVE",
"77 481 OFFCURVE",
"77 410 CURVE SMOOTH",
"77 149 LINE SMOOTH",
"77 51 OFFCURVE",
"124 -9 OFFCURVE",
"225 -9 CURVE SMOOTH"
);
}
);
width = 719;
},
{
anchors = (
{
name = bottom;
position = "{635, 0}";
},
{
name = top;
position = "{431, 504}";
}
);
layerId = "E5D3352E-10FF-4C03-AD9F-F95B1FD01257";
paths = (
{
closed = 1;
nodes = (
"268 -9 OFFCURVE",
"320 11 OFFCURVE",
"342 40 CURVE",
"344 40 LINE",
"370 10 OFFCURVE",
"424 -9 OFFCURVE",
"484 -9 CURVE SMOOTH",
"598 -9 OFFCURVE",
"645 63 OFFCURVE",
"645 162 CURVE SMOOTH",
"645 671 LINE",
"463 671 LINE",
"463 156 LINE SMOOTH",
"463 144 OFFCURVE",
"454 137 OFFCURVE",
"439 137 CURVE SMOOTH",
"424 137 OFFCURVE",
"415 143 OFFCURVE",
"415 154 CURVE SMOOTH",
"415 309 LINE",
"274 309 LINE",
"274 154 LINE SMOOTH",
"274 143 OFFCURVE",
"265 137 OFFCURVE",
"249 137 CURVE SMOOTH",
"234 137 OFFCURVE",
"226 144 OFFCURVE",
"226 156 CURVE SMOOTH",
"226 353 LINE SMOOTH",
"226 374 OFFCURVE",
"242 387 OFFCURVE",
"264 387 CURVE SMOOTH",
"275 387 OFFCURVE",
"288 383 OFFCURVE",
"298 379 CURVE",
"325 500 LINE",
"287 517 OFFCURVE",
"239 530 OFFCURVE",
"196 530 CURVE SMOOTH",
"101 530 OFFCURVE",
"44 469 OFFCURVE",
"44 373 CURVE SMOOTH",
"44 170 LINE SMOOTH",
"44 61 OFFCURVE",
"102 -9 OFFCURVE",
"210 -9 CURVE SMOOTH"
);
}
);
width = 694;
}
);
note = uni0E9D;
unicode = 0E9D;
},
{
glyphname = "phoPhu-lao";
lastChange = "2017-01-30 19:51:08 +0000";
layers = (
{
anchors = (
{
name = bottom;
position = "{593, 0}";
},
{
name = top;
position = "{603, 504}";
}
);
layerId = "64BC062E-13E4-450B-B24E-D8A474022433";
paths = (
{
closed = 1;
nodes = (
"286 -9 OFFCURVE",
"322 28 OFFCURVE",
"342 77 CURVE",
"344 77 LINE",
"365 28 OFFCURVE",
"401 -9 OFFCURVE",
"473 -9 CURVE SMOOTH",
"554 -9 OFFCURVE",
"603 39 OFFCURVE",
"603 138 CURVE SMOOTH",
"603 515 LINE",
"577 515 LINE",
"577 135 LINE SMOOTH",
"577 50 OFFCURVE",
"537 13 OFFCURVE",
"473 13 CURVE SMOOTH",
"395 13 OFFCURVE",
"356 66 OFFCURVE",
"356 140 CURVE SMOOTH",
"356 515 LINE",
"330 515 LINE",
"330 140 LINE SMOOTH",
"330 66 OFFCURVE",
"292 13 OFFCURVE",
"214 13 CURVE SMOOTH",
"150 13 OFFCURVE",
"110 50 OFFCURVE",
"110 135 CURVE SMOOTH",
"110 515 LINE",
"84 515 LINE",
"84 138 LINE SMOOTH",
"84 39 OFFCURVE",
"133 -9 OFFCURVE",
"214 -9 CURVE SMOOTH"
);
}
);
width = 687;
},
{
anchors = (
{
name = bottom;
position = "{634, 0}";
},
{
name = top;
position = "{644, 504}";
}
);
layerId = "6449CA81-A7C3-4005-93E5-765657812F1B";
paths = (
{
closed = 1;
nodes = (
"288 -9 OFFCURVE",
"337 20 OFFCURVE",
"357 58 CURVE",
"363 58 LINE",
"384 20 OFFCURVE",
"433 -9 OFFCURVE",
"499 -9 CURVE SMOOTH",
"588 -9 OFFCURVE",
"644 43 OFFCURVE",
"644 150 CURVE SMOOTH",
"644 515 LINE",
"556 515 LINE",
"556 148 LINE SMOOTH",
"556 89 OFFCURVE",
"530 63 OFFCURVE",
"482 63 CURVE SMOOTH",
"430 63 OFFCURVE",
"403 92 OFFCURVE",
"403 151 CURVE SMOOTH",
"403 515 LINE",
"318 515 LINE",
"318 151 LINE SMOOTH",
"318 92 OFFCURVE",
"291 63 OFFCURVE",
"239 63 CURVE SMOOTH",
"191 63 OFFCURVE",
"165 89 OFFCURVE",
"165 148 CURVE SMOOTH",
"165 515 LINE",
"77 515 LINE",
"77 150 LINE SMOOTH",
"77 43 OFFCURVE",
"133 -9 OFFCURVE",
"222 -9 CURVE SMOOTH"
);
}
);
width = 725;
},
{
anchors = (
{
name = bottom;
position = "{655, 0}";
},
{
name = top;
position = "{665, 504}";
}
);
layerId = "E5D3352E-10FF-4C03-AD9F-F95B1FD01257";
paths = (
{
closed = 1;
nodes = (
"285 -9 OFFCURVE",
"329 22 OFFCURVE",
"351 51 CURVE",
"357 51 LINE",
"380 22 OFFCURVE",
"424 -9 OFFCURVE",
"494 -9 CURVE SMOOTH",
"591 -9 OFFCURVE",
"665 52 OFFCURVE",
"665 174 CURVE SMOOTH",
"665 520 LINE",
"483 520 LINE",
"483 159 LINE SMOOTH",
"483 152 OFFCURVE",
"472 143 OFFCURVE",
"455 143 CURVE SMOOTH",
"437 143 OFFCURVE",
"426 151 OFFCURVE",
"426 159 CURVE SMOOTH",
"426 520 LINE",
"283 520 LINE",
"283 159 LINE SMOOTH",
"283 151 OFFCURVE",
"272 143 OFFCURVE",
"255 143 CURVE SMOOTH",
"238 143 OFFCURVE",
"226 152 OFFCURVE",
"226 159 CURVE SMOOTH",
"226 520 LINE",
"44 520 LINE",
"44 174 LINE SMOOTH",
"44 52 OFFCURVE",
"118 -9 OFFCURVE",
"215 -9 CURVE SMOOTH"
);
}
);
width = 709;
}
);
note = uni0E9E;
unicode = 0E9E;
},
{
glyphname = "foFai-lao";
lastChange = "2017-01-30 19:51:08 +0000";
layers = (
{
anchors = (
{
name = bottom;
position = "{593, 0}";
},
{
name = top;
position = "{495, 504}";
}
);
layerId = "64BC062E-13E4-450B-B24E-D8A474022433";
paths = (
{
closed = 1;
nodes = (
"286 -9 OFFCURVE",
"322 28 OFFCURVE",
"342 77 CURVE",
"344 77 LINE",
"365 28 OFFCURVE",
"401 -9 OFFCURVE",
"473 -9 CURVE SMOOTH",
"554 -9 OFFCURVE",
"603 39 OFFCURVE",
"603 138 CURVE SMOOTH",
"603 700 LINE",
"577 700 LINE",
"577 135 LINE SMOOTH",
"577 50 OFFCURVE",
"537 13 OFFCURVE",
"473 13 CURVE SMOOTH",
"395 13 OFFCURVE",
"356 66 OFFCURVE",
"356 140 CURVE SMOOTH",
"356 515 LINE",
"330 515 LINE",
"330 140 LINE SMOOTH",
"330 66 OFFCURVE",
"292 13 OFFCURVE",
"214 13 CURVE SMOOTH",
"150 13 OFFCURVE",
"110 50 OFFCURVE",
"110 135 CURVE SMOOTH",
"110 515 LINE",
"84 515 LINE",
"84 138 LINE SMOOTH",
"84 39 OFFCURVE",
"133 -9 OFFCURVE",
"214 -9 CURVE SMOOTH"
);
}
);
width = 687;
},
{
anchors = (
{
name = bottom;
position = "{634, 0}";
},
{
name = top;
position = "{531, 504}";
}
);
layerId = "6449CA81-A7C3-4005-93E5-765657812F1B";
paths = (
{
closed = 1;
nodes = (
"288 -9 OFFCURVE",
"337 20 OFFCURVE",
"357 58 CURVE",
"363 58 LINE",
"384 20 OFFCURVE",
"433 -9 OFFCURVE",
"499 -9 CURVE SMOOTH",
"588 -9 OFFCURVE",
"644 43 OFFCURVE",
"644 150 CURVE SMOOTH",
"644 671 LINE",
"556 671 LINE",
"556 148 LINE SMOOTH",
"556 89 OFFCURVE",
"530 63 OFFCURVE",
"482 63 CURVE SMOOTH",
"430 63 OFFCURVE",
"403 92 OFFCURVE",
"403 151 CURVE SMOOTH",
"403 515 LINE",
"318 515 LINE",
"318 151 LINE SMOOTH",
"318 92 OFFCURVE",
"291 63 OFFCURVE",
"239 63 CURVE SMOOTH",
"191 63 OFFCURVE",
"165 89 OFFCURVE",
"165 148 CURVE SMOOTH",
"165 515 LINE",
"77 515 LINE",
"77 150 LINE SMOOTH",
"77 43 OFFCURVE",
"133 -9 OFFCURVE",
"222 -9 CURVE SMOOTH"
);
}
);
width = 724;
},
{
anchors = (
{
name = bottom;
position = "{655, 0}";
},
{
name = top;
position = "{451, 504}";
}
);
layerId = "E5D3352E-10FF-4C03-AD9F-F95B1FD01257";
paths = (
{
closed = 1;
nodes = (
"285 -9 OFFCURVE",
"329 22 OFFCURVE",
"351 51 CURVE",
"357 51 LINE",
"380 22 OFFCURVE",
"424 -9 OFFCURVE",
"494 -9 CURVE SMOOTH",
"591 -9 OFFCURVE",
"665 52 OFFCURVE",
"665 174 CURVE SMOOTH",
"665 671 LINE",
"483 671 LINE",
"483 159 LINE SMOOTH",
"483 152 OFFCURVE",
"472 143 OFFCURVE",
"455 143 CURVE SMOOTH",
"437 143 OFFCURVE",
"426 151 OFFCURVE",
"426 159 CURVE SMOOTH",
"426 520 LINE",
"283 520 LINE",
"283 159 LINE SMOOTH",
"283 151 OFFCURVE",
"272 143 OFFCURVE",
"255 143 CURVE SMOOTH",
"238 143 OFFCURVE",
"226 152 OFFCURVE",
"226 159 CURVE SMOOTH",
"226 520 LINE",
"44 520 LINE",
"44 174 LINE SMOOTH",
"44 52 OFFCURVE",
"118 -9 OFFCURVE",
"215 -9 CURVE SMOOTH"
);
}
);
width = 714;
}
);
note = uni0E9F;
unicode = 0E9F;
},
{
glyphname = "moMa-lao";
lastChange = "2017-01-30 19:51:08 +0000";
layers = (
{
anchors = (
{
name = bottom;
position = "{499, 0}";
},
{
name = top;
position = "{509, 504}";
}
);
layerId = "64BC062E-13E4-450B-B24E-D8A474022433";
paths = (
{
closed = 1;
nodes = (
"137 -9 OFFCURVE",
"159 20 OFFCURVE",
"159 86 CURVE SMOOTH",
"159 118 LINE",
"141 99 LINE",
"160 99 LINE",
"189 33 OFFCURVE",
"260 -9 OFFCURVE",
"342 -9 CURVE SMOOTH",
"435 -9 OFFCURVE",
"509 47 OFFCURVE",
"509 160 CURVE SMOOTH",
"509 515 LINE",
"483 515 LINE",
"483 161 LINE SMOOTH",
"483 67 OFFCURVE",
"428 13 OFFCURVE",
"341 13 CURVE SMOOTH",
"232 13 OFFCURVE",
"159 90 OFFCURVE",
"159 184 CURVE SMOOTH",
"159 515 LINE",
"133 515 LINE",
"133 80 LINE SMOOTH",
"133 29 OFFCURVE",
"115 14 OFFCURVE",
"81 14 CURVE SMOOTH",
"66 14 OFFCURVE",
"56 17 OFFCURVE",
"43 21 CURVE",
"38 -2 LINE",
"51 -7 OFFCURVE",
"67 -9 OFFCURVE",
"83 -9 CURVE SMOOTH"
);
}
);
width = 593;
},
{
anchors = (
{
name = bottom;
position = "{518, 0}";
},
{
name = top;
position = "{528, 504}";
}
);
layerId = "6449CA81-A7C3-4005-93E5-765657812F1B";
paths = (
{
closed = 1;
nodes = (
"150 -10 OFFCURVE",
"183 14 OFFCURVE",
"183 58 CURVE SMOOTH",
"183 77 LINE",
"148 47 LINE",
"185 47 LINE",
"229 3 OFFCURVE",
"278 -9 OFFCURVE",
"336 -9 CURVE SMOOTH",
"455 -9 OFFCURVE",
"527 57 OFFCURVE",
"527 183 CURVE SMOOTH",
"527 515 LINE",
"439 515 LINE",
"439 189 LINE SMOOTH",
"439 110 OFFCURVE",
"401 63 OFFCURVE",
"317 63 CURVE SMOOTH",
"258 63 OFFCURVE",
"194 87 OFFCURVE",
"194 181 CURVE SMOOTH",
"194 515 LINE",
"106 515 LINE",
"106 98 LINE SMOOTH",
"106 69 OFFCURVE",
"89 59 OFFCURVE",
"67 59 CURVE SMOOTH",
"57 59 OFFCURVE",
"45 61 OFFCURVE",
"33 65 CURVE",
"20 4 LINE",
"42 -4 OFFCURVE",
"68 -10 OFFCURVE",
"95 -10 CURVE SMOOTH"
);
}
);
width = 608;
},
{
anchors = (
{
name = bottom;
position = "{587, 0}";
},
{
name = top;
position = "{597, 504}";
}
);
layerId = "E5D3352E-10FF-4C03-AD9F-F95B1FD01257";
paths = (
{
closed = 1;
nodes = (
"199 -9 OFFCURVE",
"244 22 OFFCURVE",
"244 74 CURVE SMOOTH",
"244 92 LINE",
"209 63 LINE",
"245 63 LINE",
"280 17 OFFCURVE",
"325 -9 OFFCURVE",
"396 -9 CURVE SMOOTH",
"528 -9 OFFCURVE",
"586 78 OFFCURVE",
"586 177 CURVE SMOOTH",
"586 520 LINE",
"394 520 LINE",
"394 200 LINE SMOOTH",
"394 160 OFFCURVE",
"378 142 OFFCURVE",
"343 142 CURVE SMOOTH",
"309 142 OFFCURVE",
"294 161 OFFCURVE",
"294 200 CURVE SMOOTH",
"294 520 LINE",
"102 520 LINE",
"102 157 LINE SMOOTH",
"102 141 OFFCURVE",
"95 134 OFFCURVE",
"77 134 CURVE SMOOTH",
"64 134 OFFCURVE",
"52 138 OFFCURVE",
"42 142 CURVE",
"15 21 LINE",
"47 2 OFFCURVE",
"87 -9 OFFCURVE",
"129 -9 CURVE SMOOTH"
);
}
);
width = 630;
}
);
note = uni0EA1;
unicode = 0EA1;
},
{
glyphname = "yoYa-lao";
lastChange = "2017-01-30 19:51:08 +0000";
layers = (
{
anchors = (
{
name = bottom;
position = "{467, 0}";
},
{
name = top;
position = "{369, 504}";
}
);
layerId = "64BC062E-13E4-450B-B24E-D8A474022433";
paths = (
{
closed = 1;
nodes = (
"389 -9 OFFCURVE",
"477 42 OFFCURVE",
"477 165 CURVE SMOOTH",
"477 700 LINE",
"451 700 LINE",
"451 159 LINE SMOOTH",
"451 50 OFFCURVE",
"363 13 OFFCURVE",
"272 13 CURVE SMOOTH",
"180 13 OFFCURVE",
"94 50 OFFCURVE",
"94 146 CURVE SMOOTH",
"94 220 OFFCURVE",
"144 262 OFFCURVE",
"226 262 CURVE SMOOTH",
"264 262 LINE",
"264 284 LINE",
"226 284 LINE SMOOTH",
"165 284 OFFCURVE",
"91 312 OFFCURVE",
"91 397 CURVE SMOOTH",
"91 464 OFFCURVE",
"138 501 OFFCURVE",
"207 501 CURVE SMOOTH",
"232 501 OFFCURVE",
"262 495 OFFCURVE",
"276 490 CURVE",
"281 511 LINE",
"261 518 OFFCURVE",
"230 523 OFFCURVE",
"204 523 CURVE SMOOTH",
"121 523 OFFCURVE",
"64 477 OFFCURVE",
"64 397 CURVE SMOOTH",
"64 318 OFFCURVE",
"118 287 OFFCURVE",
"154 274 CURVE",
"154 270 LINE",
"122 258 OFFCURVE",
"67 230 OFFCURVE",
"67 147 CURVE SMOOTH",
"67 47 OFFCURVE",
"146 -9 OFFCURVE",
"270 -9 CURVE SMOOTH"
);
}
);
width = 561;
},
{
anchors = (
{
name = bottom;
position = "{522, 0}";
},
{
name = top;
position = "{420, 504}";
}
);
layerId = "6449CA81-A7C3-4005-93E5-765657812F1B";
paths = (
{
closed = 1;
nodes = (
"450 -9 OFFCURVE",
"532 47 OFFCURVE",
"532 179 CURVE SMOOTH",
"532 672 LINE",
"444 672 LINE",
"444 169 LINE SMOOTH",
"444 95 OFFCURVE",
"398 63 OFFCURVE",
"302 63 CURVE SMOOTH",
"196 63 OFFCURVE",
"155 100 OFFCURVE",
"155 160 CURVE SMOOTH",
"155 218 OFFCURVE",
"195 245 OFFCURVE",
"272 245 CURVE SMOOTH",
"321 245 LINE",
"321 309 LINE",
"272 309 LINE SMOOTH",
"215 309 OFFCURVE",
"155 324 OFFCURVE",
"155 385 CURVE SMOOTH",
"155 427 OFFCURVE",
"184 452 OFFCURVE",
"238 452 CURVE SMOOTH",
"263 452 OFFCURVE",
"288 447 OFFCURVE",
"303 442 CURVE",
"318 510 LINE",
"298 518 OFFCURVE",
"262 525 OFFCURVE",
"226 525 CURVE SMOOTH",
"112 525 OFFCURVE",
"67 461 OFFCURVE",
"67 394 CURVE SMOOTH",
"67 324 OFFCURVE",
"119 289 OFFCURVE",
"160 277 CURVE",
"160 274 LINE",
"117 267 OFFCURVE",
"67 233 OFFCURVE",
"67 153 CURVE SMOOTH",
"67 51 OFFCURVE",
"147 -9 OFFCURVE",
"301 -9 CURVE SMOOTH"
);
}
);
width = 613;
},
{
anchors = (
{
name = bottom;
position = "{540, 0}";
},
{
name = top;
position = "{336, 504}";
}
);
layerId = "E5D3352E-10FF-4C03-AD9F-F95B1FD01257";
paths = (
{
closed = 1;
nodes = (
"457 -9 OFFCURVE",
"550 54 OFFCURVE",
"550 196 CURVE SMOOTH",
"550 671 LINE",
"358 671 LINE",
"358 189 LINE SMOOTH",
"358 161 OFFCURVE",
"334 142 OFFCURVE",
"283 142 CURVE SMOOTH",
"239 142 OFFCURVE",
"214 153 OFFCURVE",
"214 175 CURVE SMOOTH",
"214 189 OFFCURVE",
"229 202 OFFCURVE",
"256 202 CURVE SMOOTH",
"323 202 LINE",
"323 320 LINE",
"260 320 LINE SMOOTH",
"232 320 OFFCURVE",
"214 329 OFFCURVE",
"214 350 CURVE SMOOTH",
"214 367 OFFCURVE",
"226 378 OFFCURVE",
"249 378 CURVE SMOOTH",
"260 378 OFFCURVE",
"276 376 OFFCURVE",
"288 372 CURVE",
"319 512 LINE",
"284 523 OFFCURVE",
"247 530 OFFCURVE",
"207 530 CURVE SMOOTH",
"75 530 OFFCURVE",
"24 461 OFFCURVE",
"24 385 CURVE SMOOTH",
"24 331 OFFCURVE",
"53 285 OFFCURVE",
"110 261 CURVE",
"110 260 LINE",
"55 239 OFFCURVE",
"24 196 OFFCURVE",
"24 143 CURVE SMOOTH",
"24 49 OFFCURVE",
"114 -9 OFFCURVE",
"282 -9 CURVE SMOOTH"
);
}
);
width = 599;
}
);
note = uni0EA2;
unicode = 0EA2;
},
{
glyphname = "roRot-lao";
lastChange = "2017-01-30 19:51:08 +0000";
layers = (
{
anchors = (
{
name = bottom;
position = "{425, 0}";
},
{
name = top;
position = "{425, 504}";
}
);
layerId = "64BC062E-13E4-450B-B24E-D8A474022433";
paths = (
{
closed = 1;
nodes = (
"415 -9 OFFCURVE",
"474 53 OFFCURVE",
"474 143 CURVE SMOOTH",
"474 262 OFFCURVE",
"370 285 OFFCURVE",
"256 310 CURVE SMOOTH",
"155 332 OFFCURVE",
"92 347 OFFCURVE",
"92 414 CURVE SMOOTH",
"92 476 OFFCURVE",
"143 501 OFFCURVE",
"242 501 CURVE SMOOTH",
"316 501 OFFCURVE",
"380 486 OFFCURVE",
"451 465 CURVE",
"451 491 LINE",
"384 511 OFFCURVE",
"314 523 OFFCURVE",
"243 523 CURVE SMOOTH",
"124 523 OFFCURVE",
"64 490 OFFCURVE",
"64 414 CURVE SMOOTH",
"64 325 OFFCURVE",
"148 308 OFFCURVE",
"245 287 CURVE SMOOTH",
"373 259 OFFCURVE",
"446 240 OFFCURVE",
"446 143 CURVE SMOOTH",
"446 42 OFFCURVE",
"366 13 OFFCURVE",
"271 13 CURVE SMOOTH",
"190 13 OFFCURVE",
"92 35 OFFCURVE",
"92 129 CURVE SMOOTH",
"92 148 OFFCURVE",
"96 162 OFFCURVE",
"101 172 CURVE",
"76 182 LINE",
"68 168 OFFCURVE",
"64 149 OFFCURVE",
"64 129 CURVE SMOOTH",
"64 55 OFFCURVE",
"120 -9 OFFCURVE",
"269 -9 CURVE SMOOTH"
);
}
);
width = 538;
},
{
anchors = (
{
name = bottom;
position = "{503, 0}";
},
{
name = top;
position = "{503, 504}";
}
);
layerId = "6449CA81-A7C3-4005-93E5-765657812F1B";
paths = (
{
closed = 1;
nodes = (
"464 -9 OFFCURVE",
"537 60 OFFCURVE",
"537 152 CURVE SMOOTH",
"537 271 OFFCURVE",
"417 301 OFFCURVE",
"312 326 CURVE SMOOTH",
"222 347 OFFCURVE",
"152 355 OFFCURVE",
"152 403 CURVE SMOOTH",
"152 440 OFFCURVE",
"192 453 OFFCURVE",
"278 453 CURVE SMOOTH",
"363 453 OFFCURVE",
"436 440 OFFCURVE",
"517 409 CURVE",
"517 486 LINE",
"447 513 OFFCURVE",
"362 525 OFFCURVE",
"284 525 CURVE SMOOTH",
"151 525 OFFCURVE",
"67 493 OFFCURVE",
"67 404 CURVE SMOOTH",
"67 300 OFFCURVE",
"183 282 OFFCURVE",
"290 258 CURVE SMOOTH",
"388 236 OFFCURVE",
"452 216 OFFCURVE",
"452 150 CURVE SMOOTH",
"452 85 OFFCURVE",
"387 62 OFFCURVE",
"299 62 CURVE SMOOTH",
"223 62 OFFCURVE",
"152 79 OFFCURVE",
"152 144 CURVE SMOOTH",
"152 163 OFFCURVE",
"158 178 OFFCURVE",
"167 187 CURVE",
"99 220 LINE",
"85 207 OFFCURVE",
"67 183 OFFCURVE",
"67 143 CURVE SMOOTH",
"67 65 OFFCURVE",
"135 -9 OFFCURVE",
"303 -9 CURVE SMOOTH"
);
}
);
width = 609;
},
{
anchors = (
{
name = bottom;
position = "{520, 0}";
},
{
name = top;
position = "{520, 504}";
}
);
layerId = "E5D3352E-10FF-4C03-AD9F-F95B1FD01257";
paths = (
{
closed = 1;
nodes = (
"473 -9 OFFCURVE",
"550 62 OFFCURVE",
"550 171 CURVE SMOOTH",
"550 294 OFFCURVE",
"452 324 OFFCURVE",
"319 349 CURVE SMOOTH",
"227 366 OFFCURVE",
"212 370 OFFCURVE",
"212 380 CURVE SMOOTH",
"212 390 OFFCURVE",
"225 394 OFFCURVE",
"276 394 CURVE SMOOTH",
"365 394 OFFCURVE",
"447 380 OFFCURVE",
"533 342 CURVE",
"533 483 LINE",
"445 515 OFFCURVE",
"361 530 OFFCURVE",
"269 530 CURVE SMOOTH",
"123 530 OFFCURVE",
"24 494 OFFCURVE",
"24 391 CURVE SMOOTH",
"24 297 OFFCURVE",
"108 268 OFFCURVE",
"200 244 CURVE SMOOTH",
"318 213 OFFCURVE",
"362 212 OFFCURVE",
"362 168 CURVE SMOOTH",
"362 141 OFFCURVE",
"341 126 OFFCURVE",
"290 126 CURVE SMOOTH",
"245 126 OFFCURVE",
"213 138 OFFCURVE",
"213 164 CURVE SMOOTH",
"213 177 OFFCURVE",
"220 187 OFFCURVE",
"231 194 CURVE",
"77 251 LINE",
"50 231 OFFCURVE",
"24 199 OFFCURVE",
"24 149 CURVE SMOOTH",
"24 62 OFFCURVE",
"106 -9 OFFCURVE",
"290 -9 CURVE SMOOTH"
);
}
);
width = 574;
}
);
note = uni0EA3;
unicode = 0EA3;
},
{
glyphname = "loLing-lao";
lastChange = "2017-01-30 19:51:08 +0000";
layers = (
{
anchors = (
{
name = bottom;
position = "{502, 0}";
},
{
name = top;
position = "{502, 504}";
}
);
layerId = "64BC062E-13E4-450B-B24E-D8A474022433";
paths = (
{
closed = 1;
nodes = (
"209 -9 OFFCURVE",
"229 -7 OFFCURVE",
"244 -1 CURVE",
"238 19 LINE",
"228 15 OFFCURVE",
"210 12 OFFCURVE",
"192 12 CURVE SMOOTH",
"129 12 OFFCURVE",
"92 51 OFFCURVE",
"92 133 CURVE SMOOTH",
"92 217 OFFCURVE",
"130 257 OFFCURVE",
"192 257 CURVE SMOOTH",
"245 257 OFFCURVE",
"275 227 OFFCURVE",
"290 181 CURVE SMOOTH",
"328 66 LINE SMOOTH",
"345 15 OFFCURVE",
"372 -9 OFFCURVE",
"427 -9 CURVE SMOOTH",
"487 -9 OFFCURVE",
"512 18 OFFCURVE",
"512 86 CURVE SMOOTH",
"512 345 LINE SMOOTH",
"512 467 OFFCURVE",
"426 523 OFFCURVE",
"289 523 CURVE SMOOTH",
"219 523 OFFCURVE",
"143 508 OFFCURVE",
"98 491 CURVE",
"98 466 LINE",
"158 488 OFFCURVE",
"217 501 OFFCURVE",
"282 501 CURVE SMOOTH",
"422 501 OFFCURVE",
"486 450 OFFCURVE",
"486 342 CURVE SMOOTH",
"486 79 LINE SMOOTH",
"486 35 OFFCURVE",
"473 15 OFFCURVE",
"426 15 CURVE SMOOTH",
"387 15 OFFCURVE",
"368 31 OFFCURVE",
"355 69 CURVE SMOOTH",
"316 186 LINE SMOOTH",
"298 240 OFFCURVE",
"266 278 OFFCURVE",
"194 278 CURVE SMOOTH",
"100 278 OFFCURVE",
"64 212 OFFCURVE",
"64 132 CURVE SMOOTH",
"64 45 OFFCURVE",
"108 -9 OFFCURVE",
"190 -9 CURVE SMOOTH"
);
}
);
width = 596;
},
{
anchors = (
{
name = bottom;
position = "{529, 0}";
},
{
name = top;
position = "{529, 504}";
}
);
layerId = "6449CA81-A7C3-4005-93E5-765657812F1B";
paths = (
{
closed = 1;
nodes = (
"205 -9 OFFCURVE",
"226 -5 OFFCURVE",
"240 0 CURVE",
"227 60 LINE",
"218 57 OFFCURVE",
"206 55 OFFCURVE",
"194 55 CURVE SMOOTH",
"151 55 OFFCURVE",
"131 80 OFFCURVE",
"131 132 CURVE SMOOTH",
"131 193 OFFCURVE",
"158 218 OFFCURVE",
"202 218 CURVE SMOOTH",
"234 218 OFFCURVE",
"256 204 OFFCURVE",
"266 175 CURVE SMOOTH",
"303 70 LINE SMOOTH",
"321 18 OFFCURVE",
"351 -9 OFFCURVE",
"417 -9 CURVE SMOOTH",
"490 -9 OFFCURVE",
"539 26 OFFCURVE",
"539 103 CURVE SMOOTH",
"539 338 LINE SMOOTH",
"539 466 OFFCURVE",
"433 525 OFFCURVE",
"293 525 CURVE SMOOTH",
"211 525 OFFCURVE",
"121 505 OFFCURVE",
"83 486 CURVE",
"83 409 LINE",
"136 440 OFFCURVE",
"220 452 OFFCURVE",
"279 452 CURVE SMOOTH",
"386 452 OFFCURVE",
"451 412 OFFCURVE",
"451 332 CURVE SMOOTH",
"451 88 LINE SMOOTH",
"451 63 OFFCURVE",
"440 51 OFFCURVE",
"417 51 CURVE SMOOTH",
"399 51 OFFCURVE",
"386 59 OFFCURVE",
"378 82 CURVE SMOOTH",
"340 195 LINE SMOOTH",
"321 252 OFFCURVE",
"282 287 OFFCURVE",
"205 287 CURVE SMOOTH",
"97 287 OFFCURVE",
"52 220 OFFCURVE",
"52 129 CURVE SMOOTH",
"52 44 OFFCURVE",
"92 -9 OFFCURVE",
"179 -9 CURVE SMOOTH"
);
}
);
width = 620;
},
{
anchors = (
{
name = bottom;
position = "{595, 0}";
},
{
name = top;
position = "{595, 504}";
}
);
layerId = "E5D3352E-10FF-4C03-AD9F-F95B1FD01257";
paths = (
{
closed = 1;
nodes = (
"206 -9 OFFCURVE",
"240 -3 OFFCURVE",
"263 9 CURVE",
"233 131 LINE",
"222 128 OFFCURVE",
"211 127 OFFCURVE",
"205 127 CURVE SMOOTH",
"187 127 OFFCURVE",
"175 138 OFFCURVE",
"175 155 CURVE SMOOTH",
"175 171 OFFCURVE",
"187 180 OFFCURVE",
"207 180 CURVE SMOOTH",
"230 180 OFFCURVE",
"244 164 OFFCURVE",
"252 138 CURVE SMOOTH",
"262 104 LINE SMOOTH",
"283 31 OFFCURVE",
"334 -9 OFFCURVE",
"424 -9 CURVE SMOOTH",
"529 -9 OFFCURVE",
"605 48 OFFCURVE",
"605 142 CURVE SMOOTH",
"605 320 LINE SMOOTH",
"605 464 OFFCURVE",
"509 530 OFFCURVE",
"297 530 CURVE SMOOTH",
"210 530 OFFCURVE",
"120 514 OFFCURVE",
"55 485 CURVE",
"55 327 LINE",
"122 359 OFFCURVE",
"203 378 OFFCURVE",
"275 378 CURVE SMOOTH",
"368 378 OFFCURVE",
"421 347 OFFCURVE",
"421 290 CURVE SMOOTH",
"421 152 LINE SMOOTH",
"421 143 OFFCURVE",
"416 138 OFFCURVE",
"407 138 CURVE SMOOTH",
"399 138 OFFCURVE",
"393 143 OFFCURVE",
"391 151 CURVE SMOOTH",
"374 215 LINE SMOOTH",
"356 282 OFFCURVE",
"299 325 OFFCURVE",
"207 325 CURVE SMOOTH",
"93 325 OFFCURVE",
"24 263 OFFCURVE",
"24 152 CURVE SMOOTH",
"24 53 OFFCURVE",
"79 -9 OFFCURVE",
"174 -9 CURVE SMOOTH"
);
}
);
width = 649;
}
);
note = uni0EA5;
unicode = 0EA5;
},
{
glyphname = "woWi-lao";
lastChange = "2017-01-30 19:51:08 +0000";
layers = (
{
anchors = (
{
name = bottom;
position = "{443, 0}";
},
{
name = top;
position = "{443, 504}";
}
);
layerId = "64BC062E-13E4-450B-B24E-D8A474022433";
paths = (
{
closed = 1;
nodes = (
"421 -9 OFFCURVE",
"483 84 OFFCURVE",
"483 262 CURVE SMOOTH",
"483 440 OFFCURVE",
"422 523 OFFCURVE",
"257 523 CURVE SMOOTH",
"196 523 OFFCURVE",
"132 511 OFFCURVE",
"87 491 CURVE",
"87 466 LINE",
"136 486 OFFCURVE",
"192 501 OFFCURVE",
"253 501 CURVE SMOOTH",
"400 501 OFFCURVE",
"455 431 OFFCURVE",
"455 260 CURVE SMOOTH",
"455 98 OFFCURVE",
"404 15 OFFCURVE",
"261 15 CURVE SMOOTH",
"151 15 OFFCURVE",
"92 64 OFFCURVE",
"92 137 CURVE SMOOTH",
"92 151 OFFCURVE",
"94 159 OFFCURVE",
"98 168 CURVE",
"72 175 LINE",
"66 162 OFFCURVE",
"64 153 OFFCURVE",
"64 138 CURVE SMOOTH",
"64 50 OFFCURVE",
"137 -9 OFFCURVE",
"263 -9 CURVE SMOOTH"
);
}
);
width = 547;
},
{
anchors = (
{
name = bottom;
position = "{482, 0}";
},
{
name = top;
position = "{482, 504}";
}
);
layerId = "6449CA81-A7C3-4005-93E5-765657812F1B";
paths = (
{
closed = 1;
nodes = (
"403 -9 OFFCURVE",
"510 53 OFFCURVE",
"510 258 CURVE SMOOTH",
"510 468 OFFCURVE",
"396 525 OFFCURVE",
"249 525 CURVE SMOOTH",
"168 525 OFFCURVE",
"102 508 OFFCURVE",
"58 486 CURVE",
"58 409 LINE",
"113 436 OFFCURVE",
"173 452 OFFCURVE",
"242 452 CURVE SMOOTH",
"350 452 OFFCURVE",
"422 414 OFFCURVE",
"422 255 CURVE SMOOTH",
"422 110 OFFCURVE",
"361 63 OFFCURVE",
"259 63 CURVE SMOOTH",
"172 63 OFFCURVE",
"125 97 OFFCURVE",
"125 148 CURVE SMOOTH",
"125 162 OFFCURVE",
"128 173 OFFCURVE",
"132 181 CURVE",
"49 204 LINE",
"42 189 OFFCURVE",
"38 173 OFFCURVE",
"38 150 CURVE SMOOTH",
"38 46 OFFCURVE",
"133 -9 OFFCURVE",
"265 -9 CURVE SMOOTH"
);
}
);
width = 580;
},
{
anchors = (
{
name = bottom;
position = "{520, 0}";
},
{
name = top;
position = "{520, 504}";
}
);
layerId = "E5D3352E-10FF-4C03-AD9F-F95B1FD01257";
paths = (
{
closed = 1;
nodes = (
"465 -9 OFFCURVE",
"547 86 OFFCURVE",
"547 258 CURVE SMOOTH",
"547 436 OFFCURVE",
"452 530 OFFCURVE",
"272 530 CURVE SMOOTH",
"196 530 OFFCURVE",
"121 514 OFFCURVE",
"53 482 CURVE",
"53 328 LINE",
"110 361 OFFCURVE",
"179 378 OFFCURVE",
"232 378 CURVE SMOOTH",
"315 378 OFFCURVE",
"355 338 OFFCURVE",
"355 250 CURVE SMOOTH",
"355 179 OFFCURVE",
"327 129 OFFCURVE",
"265 129 CURVE SMOOTH",
"221 129 OFFCURVE",
"189 153 OFFCURVE",
"189 184 CURVE SMOOTH",
"189 200 OFFCURVE",
"194 222 OFFCURVE",
"204 234 CURVE",
"62 283 LINE",
"38 248 OFFCURVE",
"24 213 OFFCURVE",
"24 166 CURVE SMOOTH",
"24 51 OFFCURVE",
"124 -9 OFFCURVE",
"276 -9 CURVE SMOOTH"
);
}
);
width = 574;
}
);
note = uni0EA7;
unicode = 0EA7;
},
{
glyphname = "soSeua-lao";
lastChange = "2017-01-30 19:51:08 +0000";
layers = (
{
anchors = (
{
name = bottom;
position = "{512, 0}";
},
{
name = top;
position = "{512, 504}";
}
);
layerId = "64BC062E-13E4-450B-B24E-D8A474022433";
paths = (
{
closed = 1;
nodes = (
"209 -9 OFFCURVE",
"229 -7 OFFCURVE",
"244 -1 CURVE",
"238 22 LINE",
"228 18 OFFCURVE",
"210 15 OFFCURVE",
"192 15 CURVE SMOOTH",
"129 15 OFFCURVE",
"92 51 OFFCURVE",
"92 133 CURVE SMOOTH",
"92 217 OFFCURVE",
"135 253 OFFCURVE",
"197 253 CURVE SMOOTH",
"254 253 OFFCURVE",
"282 227 OFFCURVE",
"299 181 CURVE SMOOTH",
"340 67 LINE SMOOTH",
"359 15 OFFCURVE",
"385 -9 OFFCURVE",
"440 -9 CURVE SMOOTH",
"500 -9 OFFCURVE",
"524 18 OFFCURVE",
"524 86 CURVE SMOOTH",
"524 330 LINE SMOOTH",
"524 452 OFFCURVE",
"441 523 OFFCURVE",
"276 523 CURVE SMOOTH",
"147 523 OFFCURVE",
"80 478 OFFCURVE",
"80 423 CURVE SMOOTH",
"80 363 OFFCURVE",
"158 329 OFFCURVE",
"270 329 CURVE SMOOTH",
"456 329 OFFCURVE",
"527 420 OFFCURVE",
"527 510 CURVE SMOOTH",
"527 523 LINE",
"497 523 LINE",
"497 506 LINE SMOOTH",
"497 418 OFFCURVE",
"426 353 OFFCURVE",
"272 353 CURVE SMOOTH",
"179 353 OFFCURVE",
"108 377 OFFCURVE",
"108 424 CURVE SMOOTH",
"108 469 OFFCURVE",
"176 498 OFFCURVE",
"279 498 CURVE SMOOTH",
"431 498 OFFCURVE",
"498 438 OFFCURVE",
"498 327 CURVE SMOOTH",
"498 79 LINE SMOOTH",
"498 35 OFFCURVE",
"486 15 OFFCURVE",
"439 15 CURVE SMOOTH",
"400 15 OFFCURVE",
"381 31 OFFCURVE",
"367 69 CURVE SMOOTH",
"325 184 LINE SMOOTH",
"305 239 OFFCURVE",
"275 278 OFFCURVE",
"199 278 CURVE SMOOTH",
"105 278 OFFCURVE",
"64 211 OFFCURVE",
"64 132 CURVE SMOOTH",
"64 45 OFFCURVE",
"108 -9 OFFCURVE",
"190 -9 CURVE SMOOTH"
);
}
);
width = 611;
},
{
anchors = (
{
name = bottom;
position = "{538, 0}";
},
{
name = top;
position = "{548, 504}";
}
);
layerId = "6449CA81-A7C3-4005-93E5-765657812F1B";
paths = (
{
closed = 1;
nodes = (
"213 -9 OFFCURVE",
"232 -5 OFFCURVE",
"247 0 CURVE",
"233 60 LINE",
"222 57 OFFCURVE",
"213 55 OFFCURVE",
"201 55 CURVE SMOOTH",
"157 55 OFFCURVE",
"137 81 OFFCURVE",
"137 127 CURVE SMOOTH",
"137 182 OFFCURVE",
"163 203 OFFCURVE",
"208 203 CURVE SMOOTH",
"244 203 OFFCURVE",
"271 188 OFFCURVE",
"281 157 CURVE SMOOTH",
"309 69 LINE SMOOTH",
"326 17 OFFCURVE",
"360 -9 OFFCURVE",
"426 -9 CURVE SMOOTH",
"499 -9 OFFCURVE",
"548 26 OFFCURVE",
"548 103 CURVE SMOOTH",
"548 326 LINE SMOOTH",
"548 436 OFFCURVE",
"461 525 OFFCURVE",
"268 525 CURVE SMOOTH",
"129 525 OFFCURVE",
"67 478 OFFCURVE",
"67 419 CURVE SMOOTH",
"67 349 OFFCURVE",
"153 313 OFFCURVE",
"258 313 CURVE SMOOTH",
"437 313 OFFCURVE",
"557 416 OFFCURVE",
"557 525 CURVE SMOOTH",
"557 531 LINE",
"479 531 LINE",
"479 525 LINE SMOOTH",
"479 455 OFFCURVE",
"406 376 OFFCURVE",
"254 376 CURVE SMOOTH",
"197 376 OFFCURVE",
"141 387 OFFCURVE",
"141 417 CURVE SMOOTH",
"141 447 OFFCURVE",
"192 462 OFFCURVE",
"258 462 CURVE SMOOTH",
"365 462 OFFCURVE",
"460 422 OFFCURVE",
"460 325 CURVE SMOOTH",
"460 88 LINE SMOOTH",
"460 63 OFFCURVE",
"449 51 OFFCURVE",
"426 51 CURVE SMOOTH",
"408 51 OFFCURVE",
"393 59 OFFCURVE",
"385 82 CURVE SMOOTH",
"354 177 LINE SMOOTH",
"336 233 OFFCURVE",
"290 268 OFFCURVE",
"209 268 CURVE SMOOTH",
"96 268 OFFCURVE",
"59 200 OFFCURVE",
"59 126 CURVE SMOOTH",
"59 51 OFFCURVE",
"97 -9 OFFCURVE",
"190 -9 CURVE SMOOTH"
);
}
);
width = 629;
},
{
anchors = (
{
name = bottom;
position = "{595, 0}";
},
{
name = top;
position = "{605, 504}";
}
);
layerId = "E5D3352E-10FF-4C03-AD9F-F95B1FD01257";
paths = (
{
closed = 1;
nodes = (
"204 -9 OFFCURVE",
"238 -2 OFFCURVE",
"261 9 CURVE",
"231 131 LINE",
"220 128 OFFCURVE",
"209 127 OFFCURVE",
"203 127 CURVE SMOOTH",
"185 127 OFFCURVE",
"173 137 OFFCURVE",
"173 151 CURVE SMOOTH",
"173 166 OFFCURVE",
"185 175 OFFCURVE",
"206 175 CURVE SMOOTH",
"229 175 OFFCURVE",
"244 159 OFFCURVE",
"250 140 CURVE SMOOTH",
"273 72 LINE SMOOTH",
"290 21 OFFCURVE",
"352 -9 OFFCURVE",
"433 -9 CURVE SMOOTH",
"542 -9 OFFCURVE",
"605 48 OFFCURVE",
"605 142 CURVE SMOOTH",
"605 318 LINE SMOOTH",
"605 453 OFFCURVE",
"493 530 OFFCURVE",
"268 530 CURVE SMOOTH",
"109 530 OFFCURVE",
"37 491 OFFCURVE",
"37 423 CURVE SMOOTH",
"37 353 OFFCURVE",
"112 310 OFFCURVE",
"257 310 CURVE SMOOTH",
"456 310 OFFCURVE",
"612 387 OFFCURVE",
"612 525 CURVE SMOOTH",
"612 531 LINE",
"445 531 LINE",
"445 527 LINE SMOOTH",
"445 455 OFFCURVE",
"355 405 OFFCURVE",
"260 405 CURVE SMOOTH",
"229 405 OFFCURVE",
"199 413 OFFCURVE",
"199 417 CURVE SMOOTH",
"199 422 OFFCURVE",
"229 430 OFFCURVE",
"261 430 CURVE SMOOTH",
"364 430 OFFCURVE",
"421 381 OFFCURVE",
"421 302 CURVE SMOOTH",
"421 152 LINE SMOOTH",
"421 143 OFFCURVE",
"416 138 OFFCURVE",
"407 138 CURVE SMOOTH",
"400 138 OFFCURVE",
"394 144 OFFCURVE",
"391 152 CURVE SMOOTH",
"375 204 LINE SMOOTH",
"356 267 OFFCURVE",
"292 298 OFFCURVE",
"206 298 CURVE SMOOTH",
"93 298 OFFCURVE",
"24 247 OFFCURVE",
"24 143 CURVE SMOOTH",
"24 52 OFFCURVE",
"79 -9 OFFCURVE",
"173 -9 CURVE SMOOTH"
);
}
);
width = 656;
}
);
note = uni0EAA;
unicode = 0EAA;
},
{
glyphname = "hoHaan-lao";
lastChange = "2017-01-30 19:51:08 +0000";
layers = (
{
anchors = (
{
name = bottom;
position = "{583, 0}";
},
{
name = top;
position = "{573, 504}";
}
);
layerId = "64BC062E-13E4-450B-B24E-D8A474022433";
paths = (
{
closed = 1;
nodes = (
"307 -9 OFFCURVE",
"347 50 OFFCURVE",
"347 134 CURVE SMOOTH",
"347 321 LINE SMOOTH",
"347 422 OFFCURVE",
"386 498 OFFCURVE",
"472 498 CURVE SMOOTH",
"540 498 OFFCURVE",
"557 450 OFFCURVE",
"557 379 CURVE SMOOTH",
"557 0 LINE",
"583 0 LINE",
"583 380 LINE SMOOTH",
"583 461 OFFCURVE",
"557 523 OFFCURVE",
"469 523 CURVE SMOOTH",
"400 523 OFFCURVE",
"358 485 OFFCURVE",
"339 412 CURVE",
"338 412 LINE",
"330 456 OFFCURVE",
"318 489 OFFCURVE",
"293 523 CURVE",
"273 510 LINE",
"299 474 OFFCURVE",
"321 423 OFFCURVE",
"321 369 CURVE SMOOTH",
"321 135 LINE SMOOTH",
"321 54 OFFCURVE",
"287 15 OFFCURVE",
"215 15 CURVE SMOOTH",
"143 15 OFFCURVE",
"110 54 OFFCURVE",
"110 135 CURVE SMOOTH",
"110 515 LINE",
"84 515 LINE",
"84 134 LINE SMOOTH",
"84 50 OFFCURVE",
"123 -9 OFFCURVE",
"215 -9 CURVE SMOOTH"
);
}
);
width = 667;
},
{
anchors = (
{
name = bottom;
position = "{638, 0}";
},
{
name = top;
position = "{628, 504}";
}
);
layerId = "6449CA81-A7C3-4005-93E5-765657812F1B";
paths = (
{
closed = 1;
nodes = (
"358 -9 OFFCURVE",
"400 55 OFFCURVE",
"400 150 CURVE SMOOTH",
"400 377 LINE SMOOTH",
"400 423 OFFCURVE",
"424 452 OFFCURVE",
"476 452 CURVE SMOOTH",
"527 452 OFFCURVE",
"550 425 OFFCURVE",
"550 377 CURVE SMOOTH",
"550 0 LINE",
"638 0 LINE",
"638 391 LINE SMOOTH",
"638 475 OFFCURVE",
"592 525 OFFCURVE",
"510 525 CURVE SMOOTH",
"454 525 OFFCURVE",
"411 501 OFFCURVE",
"389 477 CURVE",
"386 477 LINE",
"378 492 OFFCURVE",
"357 520 OFFCURVE",
"332 531 CURVE",
"270 487 LINE",
"305 463 OFFCURVE",
"315 438 OFFCURVE",
"315 404 CURVE SMOOTH",
"315 144 LINE SMOOTH",
"315 90 OFFCURVE",
"290 63 OFFCURVE",
"240 63 CURVE SMOOTH",
"190 63 OFFCURVE",
"165 90 OFFCURVE",
"165 144 CURVE SMOOTH",
"165 515 LINE",
"77 515 LINE",
"77 150 LINE SMOOTH",
"77 55 OFFCURVE",
"122 -9 OFFCURVE",
"240 -9 CURVE SMOOTH"
);
}
);
width = 719;
},
{
anchors = (
{
name = bottom;
position = "{673, 0}";
},
{
name = top;
position = "{663, 504}";
}
);
layerId = "E5D3352E-10FF-4C03-AD9F-F95B1FD01257";
paths = (
{
closed = 1;
nodes = (
"367 -9 OFFCURVE",
"439 58 OFFCURVE",
"439 173 CURVE SMOOTH",
"439 362 LINE SMOOTH",
"439 375 OFFCURVE",
"449 383 OFFCURVE",
"465 383 CURVE SMOOTH",
"481 383 OFFCURVE",
"491 375 OFFCURVE",
"491 362 CURVE SMOOTH",
"491 0 LINE",
"673 0 LINE",
"673 394 LINE SMOOTH",
"673 480 OFFCURVE",
"631 530 OFFCURVE",
"561 530 CURVE SMOOTH",
"510 530 OFFCURVE",
"460 503 OFFCURVE",
"430 456 CURVE",
"429 456 LINE",
"418 490 OFFCURVE",
"395 518 OFFCURVE",
"369 531 CURVE",
"243 455 LINE",
"265 437 OFFCURVE",
"278 404 OFFCURVE",
"278 368 CURVE SMOOTH",
"278 158 LINE SMOOTH",
"278 145 OFFCURVE",
"268 137 OFFCURVE",
"252 137 CURVE SMOOTH",
"236 137 OFFCURVE",
"226 145 OFFCURVE",
"226 158 CURVE SMOOTH",
"226 520 LINE",
"44 520 LINE",
"44 173 LINE SMOOTH",
"44 58 OFFCURVE",
"120 -9 OFFCURVE",
"244 -9 CURVE SMOOTH"
);
}
);
width = 717;
}
);
note = uni0EAB;
unicode = 0EAB;
},
{
glyphname = "oO-lao";
lastChange = "2017-01-30 19:51:08 +0000";
layers = (
{
anchors = (
{
name = bottom;
position = "{471, 0}";
},
{
name = top;
position = "{471, 504}";
}
);
layerId = "64BC062E-13E4-450B-B24E-D8A474022433";
paths = (
{
closed = 1;
nodes = (
"439 -9 OFFCURVE",
"520 81 OFFCURVE",
"520 255 CURVE SMOOTH",
"520 430 OFFCURVE",
"437 523 OFFCURVE",
"271 523 CURVE SMOOTH",
"129 523 OFFCURVE",
"59 455 OFFCURVE",
"59 380 CURVE SMOOTH",
"59 304 OFFCURVE",
"133 244 OFFCURVE",
"268 244 CURVE SMOOTH",
"359 244 OFFCURVE",
"465 271 OFFCURVE",
"504 310 CURVE",
"491 334 LINE",
"456 294 OFFCURVE",
"352 268 OFFCURVE",
"270 268 CURVE SMOOTH",
"156 268 OFFCURVE",
"87 317 OFFCURVE",
"87 381 CURVE SMOOTH",
"87 446 OFFCURVE",
"156 498 OFFCURVE",
"276 498 CURVE SMOOTH",
"429 498 OFFCURVE",
"492 413 OFFCURVE",
"492 257 CURVE SMOOTH",
"492 99 OFFCURVE",
"427 15 OFFCURVE",
"284 15 CURVE SMOOTH",
"174 15 OFFCURVE",
"100 64 OFFCURVE",
"100 138 CURVE SMOOTH",
"100 150 OFFCURVE",
"102 159 OFFCURVE",
"106 168 CURVE",
"80 175 LINE",
"75 165 OFFCURVE",
"72 154 OFFCURVE",
"72 138 CURVE SMOOTH",
"72 43 OFFCURVE",
"169 -9 OFFCURVE",
"286 -9 CURVE SMOOTH"
);
}
);
width = 584;
},
{
anchors = (
{
name = bottom;
position = "{513, 0}";
},
{
name = top;
position = "{513, 504}";
}
);
layerId = "6449CA81-A7C3-4005-93E5-765657812F1B";
paths = (
{
closed = 1;
nodes = (
"446 -9 OFFCURVE",
"557 60 OFFCURVE",
"557 253 CURVE SMOOTH",
"557 453 OFFCURVE",
"438 525 OFFCURVE",
"288 525 CURVE SMOOTH",
"142 525 OFFCURVE",
"67 458 OFFCURVE",
"67 371 CURVE SMOOTH",
"67 282 OFFCURVE",
"146 223 OFFCURVE",
"280 223 CURVE SMOOTH",
"357 223 OFFCURVE",
"438 243 OFFCURVE",
"500 284 CURVE",
"467 341 LINE",
"411 304 OFFCURVE",
"338 291 OFFCURVE",
"282 291 CURVE SMOOTH",
"198 291 OFFCURVE",
"147 320 OFFCURVE",
"147 369 CURVE SMOOTH",
"147 423 OFFCURVE",
"208 453 OFFCURVE",
"289 453 CURVE SMOOTH",
"409 453 OFFCURVE",
"469 385 OFFCURVE",
"469 253 CURVE SMOOTH",
"469 125 OFFCURVE",
"412 63 OFFCURVE",
"303 63 CURVE SMOOTH",
"222 63 OFFCURVE",
"148 96 OFFCURVE",
"148 150 CURVE SMOOTH",
"148 159 OFFCURVE",
"150 169 OFFCURVE",
"156 180 CURVE",
"84 201 LINE",
"75 189 OFFCURVE",
"67 174 OFFCURVE",
"67 148 CURVE SMOOTH",
"67 52 OFFCURVE",
"168 -9 OFFCURVE",
"303 -9 CURVE SMOOTH"
);
}
);
width = 614;
},
{
anchors = (
{
name = bottom;
position = "{540, 0}";
},
{
name = top;
position = "{540, 504}";
}
);
layerId = "E5D3352E-10FF-4C03-AD9F-F95B1FD01257";
paths = (
{
closed = 1;
nodes = (
"468 -9 OFFCURVE",
"567 96 OFFCURVE",
"567 259 CURVE SMOOTH",
"567 429 OFFCURVE",
"460 530 OFFCURVE",
"269 530 CURVE SMOOTH",
"118 530 OFFCURVE",
"24 468 OFFCURVE",
"24 362 CURVE SMOOTH",
"24 264 OFFCURVE",
"104 208 OFFCURVE",
"239 208 CURVE SMOOTH",
"314 208 OFFCURVE",
"375 226 OFFCURVE",
"407 255 CURVE",
"367 355 LINE",
"347 341 OFFCURVE",
"312 331 OFFCURVE",
"271 331 CURVE SMOOTH",
"227 331 OFFCURVE",
"201 341 OFFCURVE",
"201 359 CURVE SMOOTH",
"201 378 OFFCURVE",
"228 389 OFFCURVE",
"269 389 CURVE SMOOTH",
"341 389 OFFCURVE",
"383 351 OFFCURVE",
"383 261 CURVE SMOOTH",
"383 185 OFFCURVE",
"349 129 OFFCURVE",
"272 129 CURVE SMOOTH",
"234 129 OFFCURVE",
"189 140 OFFCURVE",
"189 164 CURVE SMOOTH",
"189 167 OFFCURVE",
"190 174 OFFCURVE",
"193 180 CURVE",
"47 225 LINE",
"33 204 OFFCURVE",
"24 175 OFFCURVE",
"24 147 CURVE SMOOTH",
"24 51 OFFCURVE",
"126 -9 OFFCURVE",
"275 -9 CURVE SMOOTH"
);
}
);
width = 594;
}
);
note = uni0EAD;
unicode = 0EAD;
},
{
glyphname = "hoHeuan-lao";
lastChange = "2017-01-30 19:51:08 +0000";
layers = (
{
anchors = (
{
name = bottom;
position = "{416, 0}";
},
{
name = top;
position = "{416, 504}";
}
);
layerId = "64BC062E-13E4-450B-B24E-D8A474022433";
paths = (
{
closed = 1;
nodes = (
"410 -9 OFFCURVE",
"469 53 OFFCURVE",
"469 143 CURVE SMOOTH",
"469 262 OFFCURVE",
"366 285 OFFCURVE",
"251 309 CURVE SMOOTH",
"145 331 OFFCURVE",
"87 347 OFFCURVE",
"87 414 CURVE SMOOTH",
"87 477 OFFCURVE",
"138 498 OFFCURVE",
"194 498 CURVE SMOOTH",
"278 498 OFFCURVE",
"325 449 OFFCURVE",
"392 449 CURVE SMOOTH",
"434 449 OFFCURVE",
"469 469 OFFCURVE",
"469 506 CURVE SMOOTH",
"469 515 LINE",
"443 515 LINE",
"443 506 LINE SMOOTH",
"443 486 OFFCURVE",
"425 473 OFFCURVE",
"394 473 CURVE SMOOTH",
"333 473 OFFCURVE",
"282 523 OFFCURVE",
"192 523 CURVE SMOOTH",
"115 523 OFFCURVE",
"59 487 OFFCURVE",
"59 414 CURVE SMOOTH",
"59 326 OFFCURVE",
"143 307 OFFCURVE",
"240 286 CURVE SMOOTH",
"371 258 OFFCURVE",
"441 239 OFFCURVE",
"441 144 CURVE SMOOTH",
"441 43 OFFCURVE",
"361 15 OFFCURVE",
"266 15 CURVE SMOOTH",
"185 15 OFFCURVE",
"87 35 OFFCURVE",
"87 129 CURVE SMOOTH",
"87 148 OFFCURVE",
"91 162 OFFCURVE",
"96 172 CURVE",
"71 182 LINE",
"63 168 OFFCURVE",
"59 149 OFFCURVE",
"59 129 CURVE SMOOTH",
"59 55 OFFCURVE",
"116 -9 OFFCURVE",
"264 -9 CURVE SMOOTH"
);
}
);
width = 533;
},
{
anchors = (
{
name = bottom;
position = "{508, 0}";
},
{
name = top;
position = "{518, 504}";
}
);
layerId = "6449CA81-A7C3-4005-93E5-765657812F1B";
paths = (
{
closed = 1;
nodes = (
"463 -9 OFFCURVE",
"537 63 OFFCURVE",
"537 148 CURVE SMOOTH",
"537 254 OFFCURVE",
"419 286 OFFCURVE",
"303 317 CURVE SMOOTH",
"211 342 OFFCURVE",
"152 357 OFFCURVE",
"152 409 CURVE SMOOTH",
"152 437 OFFCURVE",
"171 452 OFFCURVE",
"206 452 CURVE SMOOTH",
"279 452 OFFCURVE",
"350 389 OFFCURVE",
"436 389 CURVE SMOOTH",
"487 389 OFFCURVE",
"537 414 OFFCURVE",
"537 492 CURVE SMOOTH",
"537 515 LINE",
"450 515 LINE",
"450 493 LINE SMOOTH",
"450 472 OFFCURVE",
"442 461 OFFCURVE",
"419 461 CURVE SMOOTH",
"364 461 OFFCURVE",
"306 525 OFFCURVE",
"204 525 CURVE SMOOTH",
"131 525 OFFCURVE",
"67 492 OFFCURVE",
"67 410 CURVE SMOOTH",
"67 310 OFFCURVE",
"163 281 OFFCURVE",
"280 249 CURVE SMOOTH",
"399 216 OFFCURVE",
"452 203 OFFCURVE",
"452 147 CURVE SMOOTH",
"452 91 OFFCURVE",
"398 62 OFFCURVE",
"297 62 CURVE SMOOTH",
"200 62 OFFCURVE",
"152 88 OFFCURVE",
"152 144 CURVE SMOOTH",
"152 161 OFFCURVE",
"157 174 OFFCURVE",
"169 186 CURVE",
"99 220 LINE",
"82 205 OFFCURVE",
"67 181 OFFCURVE",
"67 142 CURVE SMOOTH",
"67 55 OFFCURVE",
"144 -9 OFFCURVE",
"299 -9 CURVE SMOOTH"
);
}
);
width = 609;
},
{
anchors = (
{
name = bottom;
position = "{520, 0}";
},
{
name = top;
position = "{520, 504}";
}
);
layerId = "E5D3352E-10FF-4C03-AD9F-F95B1FD01257";
paths = (
{
closed = 1;
nodes = (
"469 -9 OFFCURVE",
"550 56 OFFCURVE",
"550 160 CURVE SMOOTH",
"550 239 OFFCURVE",
"500 284 OFFCURVE",
"338 328 CURVE SMOOTH",
"236 356 OFFCURVE",
"213 361 OFFCURVE",
"213 374 CURVE SMOOTH",
"213 381 OFFCURVE",
"219 383 OFFCURVE",
"234 383 CURVE SMOOTH",
"284 383 OFFCURVE",
"346 350 OFFCURVE",
"424 350 CURVE SMOOTH",
"506 350 OFFCURVE",
"550 393 OFFCURVE",
"550 491 CURVE SMOOTH",
"550 520 LINE",
"381 520 LINE",
"381 509 LINE SMOOTH",
"381 499 OFFCURVE",
"375 493 OFFCURVE",
"361 493 CURVE SMOOTH",
"325 493 OFFCURVE",
"266 530 OFFCURVE",
"183 530 CURVE SMOOTH",
"85 530 OFFCURVE",
"24 474 OFFCURVE",
"24 386 CURVE SMOOTH",
"24 304 OFFCURVE",
"79 267 OFFCURVE",
"204 228 CURVE SMOOTH",
"302 197 OFFCURVE",
"362 189 OFFCURVE",
"362 155 CURVE SMOOTH",
"362 137 OFFCURVE",
"337 124 OFFCURVE",
"283 124 CURVE SMOOTH",
"224 124 OFFCURVE",
"201 139 OFFCURVE",
"201 159 CURVE SMOOTH",
"201 169 OFFCURVE",
"206 179 OFFCURVE",
"214 185 CURVE",
"80 253 LINE",
"51 235 OFFCURVE",
"24 194 OFFCURVE",
"24 144 CURVE SMOOTH",
"24 58 OFFCURVE",
"107 -9 OFFCURVE",
"289 -9 CURVE SMOOTH"
);
}
);
width = 574;
}
);
note = uni0EAE;
unicode = 0EAE;
},
{
glyphname = "khmuGo-lao";
lastChange = "2017-01-30 19:51:08 +0000";
layers = (
{
anchors = (
{
name = bottom;
position = "{534, 0}";
},
{
name = top;
position = "{525, 504}";
}
);
layerId = "64BC062E-13E4-450B-B24E-D8A474022433";
paths = (
{
closed = 1;
nodes = (
"157 -9 OFFCURVE",
"185 18 OFFCURVE",
"185 84 CURVE SMOOTH",
"185 337 LINE SMOOTH",
"185 400 OFFCURVE",
"254 498 OFFCURVE",
"381 498 CURVE SMOOTH",
"489 498 OFFCURVE",
"508 427 OFFCURVE",
"508 344 CURVE SMOOTH",
"508 0 LINE",
"534 0 LINE",
"534 343 LINE SMOOTH",
"534 464 OFFCURVE",
"482 523 OFFCURVE",
"378 523 CURVE SMOOTH",
"273 523 OFFCURVE",
"213 464 OFFCURVE",
"181 403 CURVE",
"180 403 LINE",
"170 452 OFFCURVE",
"156 488 OFFCURVE",
"131 523 CURVE",
"111 510 LINE",
"137 474 OFFCURVE",
"159 422 OFFCURVE",
"159 367 CURVE SMOOTH",
"159 80 LINE SMOOTH",
"159 29 OFFCURVE",
"141 14 OFFCURVE",
"107 14 CURVE SMOOTH",
"92 14 OFFCURVE",
"82 17 OFFCURVE",
"69 21 CURVE",
"64 -2 LINE",
"77 -6 OFFCURVE",
"93 -9 OFFCURVE",
"109 -9 CURVE SMOOTH"
);
},
{
closed = 1;
nodes = (
"607 224 LINE",
"607 248 LINE",
"385 248 LINE SMOOTH",
"354 248 OFFCURVE",
"343 259 OFFCURVE",
"343 278 CURVE SMOOTH",
"343 289 OFFCURVE",
"347 302 OFFCURVE",
"351 310 CURVE",
"327 314 LINE",
"322 304 OFFCURVE",
"318 287 OFFCURVE",
"318 275 CURVE SMOOTH",
"318 246 OFFCURVE",
"337 224 OFFCURVE",
"382 224 CURVE SMOOTH"
);
}
);
width = 627;
},
{
anchors = (
{
name = bottom;
position = "{527, 0}";
},
{
name = top;
position = "{518, 504}";
}
);
layerId = "6449CA81-A7C3-4005-93E5-765657812F1B";
paths = (
{
closed = 1;
nodes = (
"156 -6 OFFCURVE",
"194 35 OFFCURVE",
"194 105 CURVE SMOOTH",
"194 335 LINE SMOOTH",
"194 428 OFFCURVE",
"263 452 OFFCURVE",
"323 452 CURVE SMOOTH",
"407 452 OFFCURVE",
"439 406 OFFCURVE",
"439 326 CURVE SMOOTH",
"439 0 LINE",
"527 0 LINE",
"527 333 LINE SMOOTH",
"527 459 OFFCURVE",
"460 525 OFFCURVE",
"340 525 CURVE SMOOTH",
"276 525 OFFCURVE",
"216 505 OFFCURVE",
"171 449 CURVE",
"168 449 LINE",
"156 478 OFFCURVE",
"133 509 OFFCURVE",
"116 525 CURVE",
"52 476 LINE",
"80 450 OFFCURVE",
"106 410 OFFCURVE",
"106 341 CURVE SMOOTH",
"106 102 LINE SMOOTH",
"106 74 OFFCURVE",
"89 64 OFFCURVE",
"67 64 CURVE SMOOTH",
"57 64 OFFCURVE",
"45 66 OFFCURVE",
"33 69 CURVE",
"20 8 LINE",
"44 -1 OFFCURVE",
"70 -6 OFFCURVE",
"92 -6 CURVE SMOOTH"
);
},
{
closed = 1;
nodes = (
"603 195 LINE",
"603 261 LINE",
"398 261 LINE SMOOTH",
"374 261 OFFCURVE",
"364 274 OFFCURVE",
"364 292 CURVE SMOOTH",
"364 300 OFFCURVE",
"366 315 OFFCURVE",
"369 320 CURVE",
"301 332 LINE",
"292 317 OFFCURVE",
"286 293 OFFCURVE",
"286 274 CURVE SMOOTH",
"286 232 OFFCURVE",
"317 195 OFFCURVE",
"392 195 CURVE SMOOTH"
);
}
);
width = 609;
},
{
anchors = (
{
name = bottom;
position = "{596, 0}";
},
{
name = top;
position = "{587, 504}";
}
);
layerId = "E5D3352E-10FF-4C03-AD9F-F95B1FD01257";
paths = (
{
closed = 1;
nodes = (
"248 -10 OFFCURVE",
"304 41 OFFCURVE",
"304 134 CURVE SMOOTH",
"304 321 LINE SMOOTH",
"304 360 OFFCURVE",
"325 378 OFFCURVE",
"357 378 CURVE SMOOTH",
"391 378 OFFCURVE",
"404 359 OFFCURVE",
"404 320 CURVE SMOOTH",
"404 0 LINE",
"596 0 LINE",
"596 351 LINE SMOOTH",
"596 449 OFFCURVE",
"543 530 OFFCURVE",
"412 530 CURVE SMOOTH",
"334 530 OFFCURVE",
"277 500 OFFCURVE",
"240 460 CURVE",
"237 460 LINE",
"227 485 OFFCURVE",
"207 507 OFFCURVE",
"183 530 CURVE",
"44 426 LINE",
"97 382 OFFCURVE",
"112 350 OFFCURVE",
"112 284 CURVE SMOOTH",
"112 156 LINE SMOOTH",
"112 141 OFFCURVE",
"105 134 OFFCURVE",
"87 134 CURVE SMOOTH",
"74 134 OFFCURVE",
"62 138 OFFCURVE",
"52 141 CURVE",
"25 20 LINE",
"63 0 OFFCURVE",
"120 -10 OFFCURVE",
"159 -10 CURVE SMOOTH"
);
},
{
closed = 1;
nodes = (
"653 145 LINE",
"653 250 LINE",
"424 250 LINE SMOOTH",
"404 250 OFFCURVE",
"391 260 OFFCURVE",
"391 283 CURVE SMOOTH",
"391 293 OFFCURVE",
"394 308 OFFCURVE",
"399 318 CURVE",
"317 318 LINE",
"304 293 OFFCURVE",
"297 275 OFFCURVE",
"297 247 CURVE SMOOTH",
"297 178 OFFCURVE",
"338 145 OFFCURVE",
"406 145 CURVE SMOOTH"
);
}
);
width = 645;
}
);
unicode = 0EDE;
},
{
glyphname = "khmuNyo-lao";
lastChange = "2017-01-30 19:51:08 +0000";
layers = (
{
anchors = (
{
name = bottom;
position = "{461, 0}";
},
{
name = top;
position = "{471, 504}";
}
);
layerId = "64BC062E-13E4-450B-B24E-D8A474022433";
paths = (
{
closed = 1;
nodes = (
"386 -9 OFFCURVE",
"471 42 OFFCURVE",
"471 165 CURVE SMOOTH",
"471 515 LINE",
"445 515 LINE",
"445 159 LINE SMOOTH",
"445 50 OFFCURVE",
"359 15 OFFCURVE",
"269 15 CURVE SMOOTH",
"177 15 OFFCURVE",
"94 51 OFFCURVE",
"94 144 CURVE SMOOTH",
"94 221 OFFCURVE",
"150 262 OFFCURVE",
"216 262 CURVE SMOOTH",
"242 262 LINE",
"242 284 LINE",
"216 284 LINE SMOOTH",
"170 284 OFFCURVE",
"91 311 OFFCURVE",
"91 397 CURVE SMOOTH",
"91 464 OFFCURVE",
"138 498 OFFCURVE",
"208 498 CURVE SMOOTH",
"232 498 OFFCURVE",
"262 493 OFFCURVE",
"276 489 CURVE",
"281 511 LINE",
"261 518 OFFCURVE",
"230 523 OFFCURVE",
"204 523 CURVE SMOOTH",
"121 523 OFFCURVE",
"64 477 OFFCURVE",
"64 397 CURVE SMOOTH",
"64 318 OFFCURVE",
"118 287 OFFCURVE",
"154 274 CURVE",
"154 270 LINE",
"120 257 OFFCURVE",
"67 229 OFFCURVE",
"67 146 CURVE SMOOTH",
"67 47 OFFCURVE",
"143 -9 OFFCURVE",
"267 -9 CURVE SMOOTH"
);
},
{
closed = 1;
nodes = (
"544 225 LINE",
"544 248 LINE",
"372 248 LINE SMOOTH",
"341 248 OFFCURVE",
"330 260 OFFCURVE",
"330 278 CURVE SMOOTH",
"330 290 OFFCURVE",
"334 303 OFFCURVE",
"338 310 CURVE",
"314 314 LINE",
"309 305 OFFCURVE",
"306 288 OFFCURVE",
"306 275 CURVE SMOOTH",
"306 247 OFFCURVE",
"324 225 OFFCURVE",
"369 225 CURVE SMOOTH"
);
}
);
width = 564;
},
{
anchors = (
{
name = bottom;
position = "{517, 0}";
},
{
name = top;
position = "{527, 504}";
}
);
layerId = "6449CA81-A7C3-4005-93E5-765657812F1B";
paths = (
{
closed = 1;
nodes = (
"448 -9 OFFCURVE",
"527 47 OFFCURVE",
"527 179 CURVE SMOOTH",
"527 515 LINE",
"439 515 LINE",
"439 169 LINE SMOOTH",
"439 95 OFFCURVE",
"397 63 OFFCURVE",
"300 63 CURVE SMOOTH",
"197 63 OFFCURVE",
"155 99 OFFCURVE",
"155 160 CURVE SMOOTH",
"155 218 OFFCURVE",
"194 245 OFFCURVE",
"243 245 CURVE SMOOTH",
"261 245 LINE",
"261 309 LINE",
"243 309 LINE SMOOTH",
"214 309 OFFCURVE",
"155 325 OFFCURVE",
"155 385 CURVE SMOOTH",
"155 427 OFFCURVE",
"184 452 OFFCURVE",
"238 452 CURVE SMOOTH",
"263 452 OFFCURVE",
"288 447 OFFCURVE",
"303 442 CURVE",
"318 510 LINE",
"298 518 OFFCURVE",
"262 525 OFFCURVE",
"226 525 CURVE SMOOTH",
"112 525 OFFCURVE",
"67 461 OFFCURVE",
"67 394 CURVE SMOOTH",
"67 324 OFFCURVE",
"119 289 OFFCURVE",
"160 277 CURVE",
"160 274 LINE",
"114 267 OFFCURVE",
"67 231 OFFCURVE",
"67 153 CURVE SMOOTH",
"67 51 OFFCURVE",
"145 -9 OFFCURVE",
"299 -9 CURVE SMOOTH"
);
},
{
closed = 1;
nodes = (
"602 224 LINE",
"602 290 LINE",
"409 290 LINE SMOOTH",
"384 290 OFFCURVE",
"374 303 OFFCURVE",
"374 321 CURVE SMOOTH",
"374 329 OFFCURVE",
"376 344 OFFCURVE",
"379 349 CURVE",
"312 361 LINE",
"303 346 OFFCURVE",
"297 322 OFFCURVE",
"297 303 CURVE SMOOTH",
"297 261 OFFCURVE",
"327 224 OFFCURVE",
"403 224 CURVE SMOOTH"
);
}
);
width = 608;
},
{
anchors = (
{
name = bottom;
position = "{540, 0}";
},
{
name = top;
position = "{550, 504}";
}
);
layerId = "E5D3352E-10FF-4C03-AD9F-F95B1FD01257";
paths = (
{
closed = 1;
nodes = (
"457 -9 OFFCURVE",
"550 54 OFFCURVE",
"550 196 CURVE SMOOTH",
"550 520 LINE",
"358 520 LINE",
"358 189 LINE SMOOTH",
"358 161 OFFCURVE",
"335 142 OFFCURVE",
"284 142 CURVE SMOOTH",
"239 142 OFFCURVE",
"214 155 OFFCURVE",
"214 180 CURVE SMOOTH",
"214 191 OFFCURVE",
"221 206 OFFCURVE",
"237 206 CURVE SMOOTH",
"251 206 LINE",
"251 316 LINE",
"241 316 LINE SMOOTH",
"223 316 OFFCURVE",
"214 331 OFFCURVE",
"214 346 CURVE SMOOTH",
"214 366 OFFCURVE",
"226 378 OFFCURVE",
"249 378 CURVE SMOOTH",
"260 378 OFFCURVE",
"276 376 OFFCURVE",
"288 372 CURVE",
"319 512 LINE",
"284 523 OFFCURVE",
"247 530 OFFCURVE",
"207 530 CURVE SMOOTH",
"75 530 OFFCURVE",
"24 461 OFFCURVE",
"24 385 CURVE SMOOTH",
"24 331 OFFCURVE",
"53 285 OFFCURVE",
"110 261 CURVE",
"110 260 LINE",
"55 240 OFFCURVE",
"24 196 OFFCURVE",
"24 143 CURVE SMOOTH",
"24 49 OFFCURVE",
"114 -9 OFFCURVE",
"282 -9 CURVE SMOOTH"
);
},
{
closed = 1;
nodes = (
"606 189 LINE",
"606 294 LINE",
"381 294 LINE SMOOTH",
"360 294 OFFCURVE",
"347 304 OFFCURVE",
"347 327 CURVE SMOOTH",
"347 337 OFFCURVE",
"350 352 OFFCURVE",
"355 362 CURVE",
"274 362 LINE",
"261 337 OFFCURVE",
"254 319 OFFCURVE",
"254 291 CURVE SMOOTH",
"254 224 OFFCURVE",
"294 189 OFFCURVE",
"363 189 CURVE SMOOTH"
);
}
);
width = 598;
}
);
unicode = 0EDF;
},
{
glyphname = "aVowel-lao";
lastChange = "2017-01-30 19:51:08 +0000";
layers = (
{
layerId = "64BC062E-13E4-450B-B24E-D8A474022433";
paths = (
{
closed = 1;
nodes = (
"270 337 LINE",
"270 358 LINE",
"129 358 LINE SMOOTH",
"100 358 OFFCURVE",
"90 367 OFFCURVE",
"90 389 CURVE SMOOTH",
"90 403 OFFCURVE",
"94 418 OFFCURVE",
"100 432 CURVE",
"75 432 LINE",
"68 419 OFFCURVE",
"64 400 OFFCURVE",
"64 386 CURVE SMOOTH",
"64 359 OFFCURVE",
"82 337 OFFCURVE",
"123 337 CURVE SMOOTH"
);
},
{
closed = 1;
nodes = (
"270 83 LINE",
"270 104 LINE",
"129 104 LINE SMOOTH",
"100 104 OFFCURVE",
"90 113 OFFCURVE",
"90 135 CURVE SMOOTH",
"90 149 OFFCURVE",
"94 164 OFFCURVE",
"100 178 CURVE",
"75 178 LINE",
"68 165 OFFCURVE",
"64 146 OFFCURVE",
"64 132 CURVE SMOOTH",
"64 105 OFFCURVE",
"82 83 OFFCURVE",
"123 83 CURVE SMOOTH"
);
}
);
width = 334;
},
{
layerId = "6449CA81-A7C3-4005-93E5-765657812F1B";
paths = (
{
closed = 1;
nodes = (
"310 334 LINE",
"310 405 LINE",
"149 405 LINE SMOOTH",
"126 405 OFFCURVE",
"118 418 OFFCURVE",
"118 436 CURVE SMOOTH",
"118 449 OFFCURVE",
"122 463 OFFCURVE",
"127 472 CURVE",
"50 472 LINE",
"40 458 OFFCURVE",
"34 435 OFFCURVE",
"34 416 CURVE SMOOTH",
"34 374 OFFCURVE",
"65 334 OFFCURVE",
"147 334 CURVE SMOOTH"
);
},
{
closed = 1;
nodes = (
"310 40 LINE",
"310 112 LINE",
"149 112 LINE SMOOTH",
"126 112 OFFCURVE",
"118 125 OFFCURVE",
"118 143 CURVE SMOOTH",
"118 156 OFFCURVE",
"122 169 OFFCURVE",
"127 179 CURVE",
"50 179 LINE",
"40 165 OFFCURVE",
"34 141 OFFCURVE",
"34 122 CURVE SMOOTH",
"34 81 OFFCURVE",
"65 40 OFFCURVE",
"147 40 CURVE SMOOTH"
);
}
);
width = 368;
},
{
layerId = "E5D3352E-10FF-4C03-AD9F-F95B1FD01257";
paths = (
{
closed = 1;
nodes = (
"312 272 LINE",
"312 414 LINE",
"198 414 LINE SMOOTH",
"175 414 OFFCURVE",
"164 421 OFFCURVE",
"164 443 CURVE SMOOTH",
"164 456 OFFCURVE",
"168 468 OFFCURVE",
"173 477 CURVE",
"41 477 LINE",
"32 452 OFFCURVE",
"25 399 OFFCURVE",
"25 376 CURVE SMOOTH",
"25 323 OFFCURVE",
"60 272 OFFCURVE",
"138 272 CURVE SMOOTH"
);
},
{
closed = 1;
nodes = (
"312 23 LINE",
"312 165 LINE",
"198 165 LINE SMOOTH",
"175 165 OFFCURVE",
"164 173 OFFCURVE",
"164 194 CURVE SMOOTH",
"164 207 OFFCURVE",
"168 219 OFFCURVE",
"173 228 CURVE",
"41 228 LINE",
"32 204 OFFCURVE",
"25 150 OFFCURVE",
"25 127 CURVE SMOOTH",
"25 75 OFFCURVE",
"60 23 OFFCURVE",
"138 23 CURVE SMOOTH"
);
}
);
width = 336;
}
);
note = uni0EB0;
unicode = 0EB0;
},
{
glyphname = "aaVowel-lao";
lastChange = "2017-01-30 19:51:08 +0000";
layers = (
{
layerId = "64BC062E-13E4-450B-B24E-D8A474022433";
paths = (
{
closed = 1;
nodes = (
"259 0 LINE",
"259 414 LINE SMOOTH",
"259 485 OFFCURVE",
"215 523 OFFCURVE",
"140 523 CURVE SMOOTH",
"94 523 OFFCURVE",
"50 509 OFFCURVE",
"25 498 CURVE",
"30 475 LINE",
"53 483 OFFCURVE",
"94 498 OFFCURVE",
"141 498 CURVE SMOOTH",
"209 498 OFFCURVE",
"233 467 OFFCURVE",
"233 412 CURVE SMOOTH",
"233 0 LINE"
);
}
);
width = 343;
},
{
layerId = "6449CA81-A7C3-4005-93E5-765657812F1B";
paths = (
{
closed = 1;
nodes = (
"240 0 LINE",
"240 410 LINE SMOOTH",
"240 490 OFFCURVE",
"186 525 OFFCURVE",
"110 525 CURVE SMOOTH",
"71 525 OFFCURVE",
"28 515 OFFCURVE",
"1 503 CURVE",
"15 439 LINE",
"33 446 OFFCURVE",
"59 455 OFFCURVE",
"91 455 CURVE SMOOTH",
"134 455 OFFCURVE",
"152 439 OFFCURVE",
"152 397 CURVE SMOOTH",
"152 0 LINE"
);
}
);
width = 321;
},
{
layerId = "E5D3352E-10FF-4C03-AD9F-F95B1FD01257";
paths = (
{
closed = 1;
nodes = (
"334 0 LINE",
"334 375 LINE SMOOTH",
"334 475 OFFCURVE",
"281 530 OFFCURVE",
"171 530 CURVE SMOOTH",
"107 530 OFFCURVE",
"50 510 OFFCURVE",
"5 490 CURVE",
"31 362 LINE",
"50 370 OFFCURVE",
"71 378 OFFCURVE",
"96 378 CURVE SMOOTH",
"127 378 OFFCURVE",
"142 366 OFFCURVE",
"142 342 CURVE SMOOTH",
"142 0 LINE"
);
}
);
width = 378;
}
);
note = uni0EB2;
unicode = 0EB2;
},
{
glyphname = "amVowel-lao";
lastChange = "2017-01-30 19:51:08 +0000";
layers = (
{
anchors = (
{
name = top;
position = "{-65, 762}";
}
);
layerId = "64BC062E-13E4-450B-B24E-D8A474022433";
paths = (
{
closed = 1;
nodes = (
"258 0 LINE",
"258 414 LINE SMOOTH",
"258 485 OFFCURVE",
"214 523 OFFCURVE",
"139 523 CURVE SMOOTH",
"94 523 OFFCURVE",
"49 509 OFFCURVE",
"24 498 CURVE",
"29 475 LINE",
"52 483 OFFCURVE",
"94 498 OFFCURVE",
"140 498 CURVE SMOOTH",
"208 498 OFFCURVE",
"232 467 OFFCURVE",
"232 412 CURVE SMOOTH",
"232 0 LINE"
);
},
{
closed = 1;
nodes = (
"-80 588 OFFCURVE",
"-43 622 OFFCURVE",
"-43 676 CURVE SMOOTH",
"-43 730 OFFCURVE",
"-81 764 OFFCURVE",
"-140 764 CURVE SMOOTH",
"-199 764 OFFCURVE",
"-237 730 OFFCURVE",
"-237 676 CURVE SMOOTH",
"-237 622 OFFCURVE",
"-200 588 OFFCURVE",
"-140 588 CURVE SMOOTH"
);
},
{
closed = 1;
nodes = (
"-188 612 OFFCURVE",
"-211 637 OFFCURVE",
"-211 675 CURVE SMOOTH",
"-211 713 OFFCURVE",
"-188 740 OFFCURVE",
"-140 740 CURVE SMOOTH",
"-92 740 OFFCURVE",
"-69 713 OFFCURVE",
"-69 675 CURVE SMOOTH",
"-69 637 OFFCURVE",
"-92 612 OFFCURVE",
"-140 612 CURVE SMOOTH"
);
}
);
width = 342;
},
{
anchors = (
{
name = top;
position = "{-42, 774}";
}
);
layerId = "6449CA81-A7C3-4005-93E5-765657812F1B";
paths = (
{
closed = 1;
nodes = (
"240 0 LINE",
"240 410 LINE SMOOTH",
"240 490 OFFCURVE",
"186 525 OFFCURVE",
"110 525 CURVE SMOOTH",
"70 525 OFFCURVE",
"28 515 OFFCURVE",
"1 503 CURVE",
"15 439 LINE",
"33 446 OFFCURVE",
"59 455 OFFCURVE",
"91 455 CURVE SMOOTH",
"133 455 OFFCURVE",
"152 439 OFFCURVE",
"152 397 CURVE SMOOTH",
"152 0 LINE"
);
},
{
closed = 1;
nodes = (
"-74 584 OFFCURVE",
"-32 622 OFFCURVE",
"-32 679 CURVE SMOOTH",
"-32 736 OFFCURVE",
"-74 774 OFFCURVE",
"-139 774 CURVE SMOOTH",
"-202 774 OFFCURVE",
"-244 736 OFFCURVE",
"-244 679 CURVE SMOOTH",
"-244 622 OFFCURVE",
"-202 584 OFFCURVE",
"-139 584 CURVE SMOOTH"
);
},
{
closed = 1;
nodes = (
"-167 636 OFFCURVE",
"-185 653 OFFCURVE",
"-185 679 CURVE SMOOTH",
"-185 705 OFFCURVE",
"-167 721 OFFCURVE",
"-138 721 CURVE SMOOTH",
"-110 721 OFFCURVE",
"-91 705 OFFCURVE",
"-91 680 CURVE SMOOTH",
"-91 654 OFFCURVE",
"-110 636 OFFCURVE",
"-139 636 CURVE SMOOTH"
);
}
);
width = 321;
},
{
anchors = (
{
name = top;
position = "{-24, 800}";
}
);
layerId = "E5D3352E-10FF-4C03-AD9F-F95B1FD01257";
paths = (
{
closed = 1;
nodes = (
"334 0 LINE",
"334 375 LINE SMOOTH",
"334 475 OFFCURVE",
"281 530 OFFCURVE",
"171 530 CURVE SMOOTH",
"106 530 OFFCURVE",
"50 510 OFFCURVE",
"5 490 CURVE",
"31 362 LINE",
"50 370 OFFCURVE",
"71 378 OFFCURVE",
"96 378 CURVE SMOOTH",
"126 378 OFFCURVE",
"142 366 OFFCURVE",
"142 342 CURVE SMOOTH",
"142 0 LINE"
);
},
{
closed = 1;
nodes = (
"-64 590 OFFCURVE",
"-12 635 OFFCURVE",
"-12 703 CURVE SMOOTH",
"-12 770 OFFCURVE",
"-63 814 OFFCURVE",
"-140 814 CURVE SMOOTH",
"-214 814 OFFCURVE",
"-266 771 OFFCURVE",
"-266 703 CURVE SMOOTH",
"-266 634 OFFCURVE",
"-213 590 OFFCURVE",
"-140 590 CURVE SMOOTH"
);
},
{
closed = 1;
nodes = (
"-162 675 OFFCURVE",
"-173 688 OFFCURVE",
"-173 702 CURVE SMOOTH",
"-173 716 OFFCURVE",
"-162 728 OFFCURVE",
"-140 728 CURVE SMOOTH",
"-118 728 OFFCURVE",
"-106 716 OFFCURVE",
"-106 702 CURVE SMOOTH",
"-106 688 OFFCURVE",
"-118 675 OFFCURVE",
"-140 675 CURVE SMOOTH"
);
}
);
width = 378;
}
);
note = uni0EB3;
unicode = 0EB3;
},
{
glyphname = "nyoVowel-lao";
lastChange = "2017-01-30 19:51:08 +0000";
layers = (
{
layerId = "64BC062E-13E4-450B-B24E-D8A474022433";
paths = (
{
closed = 1;
nodes = (
"412 -181 OFFCURVE",
"453 -92 OFFCURVE",
"453 42 CURVE SMOOTH",
"453 153 LINE SMOOTH",
"453 260 OFFCURVE",
"351 299 OFFCURVE",
"280 322 CURVE SMOOTH",
"186 353 OFFCURVE",
"92 356 OFFCURVE",
"92 427 CURVE SMOOTH",
"92 478 OFFCURVE",
"143 498 OFFCURVE",
"199 498 CURVE SMOOTH",
"283 498 OFFCURVE",
"318 449 OFFCURVE",
"379 449 CURVE SMOOTH",
"422 449 OFFCURVE",
"454 469 OFFCURVE",
"454 506 CURVE SMOOTH",
"454 515 LINE",
"428 515 LINE",
"428 506 LINE SMOOTH",
"428 486 OFFCURVE",
"412 473 OFFCURVE",
"380 473 CURVE SMOOTH",
"326 473 OFFCURVE",
"291 523 OFFCURVE",
"201 523 CURVE SMOOTH",
"126 523 OFFCURVE",
"64 493 OFFCURVE",
"64 427 CURVE SMOOTH",
"64 338 OFFCURVE",
"158 332 OFFCURVE",
"250 304 CURVE SMOOTH",
"323 282 OFFCURVE",
"427 251 OFFCURVE",
"427 157 CURVE SMOOTH",
"427 44 LINE SMOOTH",
"427 -93 OFFCURVE",
"377 -156 OFFCURVE",
"259 -156 CURVE SMOOTH",
"161 -156 OFFCURVE",
"91 -119 OFFCURVE",
"91 -67 CURVE SMOOTH",
"91 -47 OFFCURVE",
"96 -38 OFFCURVE",
"101 -28 CURVE",
"76 -18 LINE",
"68 -32 OFFCURVE",
"64 -46 OFFCURVE",
"64 -66 CURVE SMOOTH",
"64 -135 OFFCURVE",
"143 -181 OFFCURVE",
"256 -181 CURVE SMOOTH"
);
}
);
width = 524;
},
{
layerId = "6449CA81-A7C3-4005-93E5-765657812F1B";
paths = (
{
closed = 1;
nodes = (
"420 -236 OFFCURVE",
"496 -154 OFFCURVE",
"496 -63 CURVE SMOOTH",
"496 112 LINE SMOOTH",
"496 230 OFFCURVE",
"393 278 OFFCURVE",
"262 317 CURVE SMOOTH",
"179 342 OFFCURVE",
"111 355 OFFCURVE",
"111 409 CURVE SMOOTH",
"111 437 OFFCURVE",
"130 452 OFFCURVE",
"165 452 CURVE SMOOTH",
"238 452 OFFCURVE",
"309 389 OFFCURVE",
"395 389 CURVE SMOOTH",
"446 389 OFFCURVE",
"496 414 OFFCURVE",
"496 492 CURVE SMOOTH",
"496 515 LINE",
"409 515 LINE",
"409 493 LINE SMOOTH",
"409 472 OFFCURVE",
"401 461 OFFCURVE",
"378 461 CURVE SMOOTH",
"323 461 OFFCURVE",
"265 525 OFFCURVE",
"163 525 CURVE SMOOTH",
"90 525 OFFCURVE",
"26 492 OFFCURVE",
"26 409 CURVE SMOOTH",
"26 308 OFFCURVE",
"122 280 OFFCURVE",
"238 248 CURVE SMOOTH",
"358 215 OFFCURVE",
"408 176 OFFCURVE",
"408 107 CURVE SMOOTH",
"408 -63 LINE SMOOTH",
"408 -129 OFFCURVE",
"349 -165 OFFCURVE",
"260 -165 CURVE SMOOTH",
"174 -165 OFFCURVE",
"127 -132 OFFCURVE",
"127 -80 CURVE SMOOTH",
"127 -61 OFFCURVE",
"133 -50 OFFCURVE",
"142 -39 CURVE",
"66 -4 LINE",
"47 -26 OFFCURVE",
"40 -49 OFFCURVE",
"40 -77 CURVE SMOOTH",
"40 -180 OFFCURVE",
"137 -236 OFFCURVE",
"265 -236 CURVE SMOOTH"
);
}
);
width = 569;
},
{
layerId = "E5D3352E-10FF-4C03-AD9F-F95B1FD01257";
paths = (
{
closed = 1;
nodes = (
"459 -241 OFFCURVE",
"558 -155 OFFCURVE",
"558 -4 CURVE SMOOTH",
"558 64 LINE SMOOTH",
"558 195 OFFCURVE",
"491 258 OFFCURVE",
"342 320 CURVE SMOOTH",
"281 345 OFFCURVE",
"214 365 OFFCURVE",
"214 379 CURVE SMOOTH",
"214 382 OFFCURVE",
"221 383 OFFCURVE",
"235 383 CURVE SMOOTH",
"287 383 OFFCURVE",
"344 350 OFFCURVE",
"427 350 CURVE SMOOTH",
"514 350 OFFCURVE",
"551 392 OFFCURVE",
"551 491 CURVE SMOOTH",
"551 520 LINE",
"382 520 LINE",
"382 509 LINE SMOOTH",
"382 497 OFFCURVE",
"376 493 OFFCURVE",
"362 493 CURVE SMOOTH",
"325 493 OFFCURVE",
"273 530 OFFCURVE",
"184 530 CURVE SMOOTH",
"83 530 OFFCURVE",
"25 479 OFFCURVE",
"25 385 CURVE SMOOTH",
"25 285 OFFCURVE",
"92 244 OFFCURVE",
"206 197 CURVE SMOOTH",
"293 161 OFFCURVE",
"374 129 OFFCURVE",
"374 52 CURVE SMOOTH",
"374 -5 LINE SMOOTH",
"374 -74 OFFCURVE",
"343 -110 OFFCURVE",
"284 -110 CURVE SMOOTH",
"230 -110 OFFCURVE",
"203 -93 OFFCURVE",
"203 -60 CURVE SMOOTH",
"203 -45 OFFCURVE",
"209 -39 OFFCURVE",
"219 -32 CURVE",
"81 34 LINE",
"46 8 OFFCURVE",
"28 -30 OFFCURVE",
"28 -72 CURVE SMOOTH",
"28 -180 OFFCURVE",
"128 -241 OFFCURVE",
"282 -241 CURVE SMOOTH"
);
}
);
width = 587;
}
);
note = uni0EBD;
unicode = 0EBD;
},
{
glyphname = "eVowel-lao";
lastChange = "2017-01-30 19:51:08 +0000";
layers = (
{
layerId = "64BC062E-13E4-450B-B24E-D8A474022433";
paths = (
{
closed = 1;
nodes = (
"191 -9 OFFCURVE",
"209 -2 OFFCURVE",
"229 7 CURVE",
"224 30 LINE",
"201 20 OFFCURVE",
"183 15 OFFCURVE",
"162 15 CURVE SMOOTH",
"126 15 OFFCURVE",
"110 30 OFFCURVE",
"110 82 CURVE SMOOTH",
"110 520 LINE",
"84 520 LINE",
"84 80 LINE SMOOTH",
"84 12 OFFCURVE",
"114 -9 OFFCURVE",
"162 -9 CURVE SMOOTH"
);
}
);
width = 254;
},
{
layerId = "6449CA81-A7C3-4005-93E5-765657812F1B";
paths = (
{
closed = 1;
nodes = (
"208 -9 OFFCURVE",
"234 -6 OFFCURVE",
"259 5 CURVE",
"246 67 LINE",
"235 63 OFFCURVE",
"222 61 OFFCURVE",
"209 61 CURVE SMOOTH",
"177 61 OFFCURVE",
"165 73 OFFCURVE",
"165 101 CURVE SMOOTH",
"165 515 LINE",
"77 515 LINE",
"77 96 LINE SMOOTH",
"77 18 OFFCURVE",
"130 -9 OFFCURVE",
"189 -9 CURVE SMOOTH"
);
}
);
width = 279;
},
{
layerId = "E5D3352E-10FF-4C03-AD9F-F95B1FD01257";
paths = (
{
closed = 1;
nodes = (
"234 -9 OFFCURVE",
"276 1 OFFCURVE",
"320 23 CURVE",
"295 131 LINE",
"280 127 OFFCURVE",
"268 124 OFFCURVE",
"258 124 CURVE SMOOTH",
"243 124 OFFCURVE",
"236 130 OFFCURVE",
"236 145 CURVE SMOOTH",
"236 520 LINE",
"44 520 LINE",
"44 130 LINE SMOOTH",
"44 30 OFFCURVE",
"102 -9 OFFCURVE",
"190 -9 CURVE SMOOTH"
);
}
);
width = 325;
}
);
note = uni0EC0;
unicode = 0EC0;
},
{
glyphname = "aeVowel-lao";
lastChange = "2017-01-30 19:51:08 +0000";
layers = (
{
layerId = "64BC062E-13E4-450B-B24E-D8A474022433";
paths = (
{
closed = 1;
nodes = (
"417 -9 OFFCURVE",
"435 -2 OFFCURVE",
"454 7 CURVE",
"449 30 LINE",
"427 20 OFFCURVE",
"409 15 OFFCURVE",
"388 15 CURVE SMOOTH",
"352 15 OFFCURVE",
"336 30 OFFCURVE",
"336 82 CURVE SMOOTH",
"336 520 LINE",
"310 520 LINE",
"310 80 LINE SMOOTH",
"310 12 OFFCURVE",
"340 -9 OFFCURVE",
"388 -9 CURVE SMOOTH"
);
},
{
closed = 1;
nodes = (
"191 -9 OFFCURVE",
"209 -2 OFFCURVE",
"229 7 CURVE",
"224 30 LINE",
"201 20 OFFCURVE",
"183 15 OFFCURVE",
"162 15 CURVE SMOOTH",
"126 15 OFFCURVE",
"110 30 OFFCURVE",
"110 82 CURVE SMOOTH",
"110 520 LINE",
"84 520 LINE",
"84 80 LINE SMOOTH",
"84 12 OFFCURVE",
"114 -9 OFFCURVE",
"162 -9 CURVE SMOOTH"
);
}
);
width = 479;
},
{
layerId = "6449CA81-A7C3-4005-93E5-765657812F1B";
paths = (
{
closed = 1;
nodes = (
"440 -9 OFFCURVE",
"466 -6 OFFCURVE",
"491 5 CURVE",
"478 67 LINE",
"467 63 OFFCURVE",
"454 61 OFFCURVE",
"442 61 CURVE SMOOTH",
"409 61 OFFCURVE",
"397 73 OFFCURVE",
"397 101 CURVE SMOOTH",
"397 515 LINE",
"309 515 LINE",
"309 96 LINE SMOOTH",
"309 17 OFFCURVE",
"362 -9 OFFCURVE",
"421 -9 CURVE SMOOTH"
);
},
{
closed = 1;
nodes = (
"208 -9 OFFCURVE",
"234 -6 OFFCURVE",
"259 5 CURVE",
"246 67 LINE",
"235 63 OFFCURVE",
"222 61 OFFCURVE",
"209 61 CURVE SMOOTH",
"177 61 OFFCURVE",
"165 73 OFFCURVE",
"165 101 CURVE SMOOTH",
"165 515 LINE",
"77 515 LINE",
"77 96 LINE SMOOTH",
"77 17 OFFCURVE",
"129 -9 OFFCURVE",
"189 -9 CURVE SMOOTH"
);
}
);
width = 511;
},
{
layerId = "E5D3352E-10FF-4C03-AD9F-F95B1FD01257";
paths = (
{
closed = 1;
nodes = (
"525 -9 OFFCURVE",
"567 1 OFFCURVE",
"610 23 CURVE",
"586 131 LINE",
"571 127 OFFCURVE",
"559 124 OFFCURVE",
"550 124 CURVE SMOOTH",
"534 124 OFFCURVE",
"527 130 OFFCURVE",
"527 145 CURVE SMOOTH",
"527 520 LINE",
"339 520 LINE",
"339 130 LINE SMOOTH",
"339 26 OFFCURVE",
"395 -9 OFFCURVE",
"480 -9 CURVE SMOOTH"
);
},
{
closed = 1;
nodes = (
"230 -9 OFFCURVE",
"272 1 OFFCURVE",
"315 23 CURVE",
"291 131 LINE",
"276 127 OFFCURVE",
"264 124 OFFCURVE",
"254 124 CURVE SMOOTH",
"239 124 OFFCURVE",
"232 130 OFFCURVE",
"232 145 CURVE SMOOTH",
"232 520 LINE",
"44 520 LINE",
"44 130 LINE SMOOTH",
"44 26 OFFCURVE",
"99 -9 OFFCURVE",
"185 -9 CURVE SMOOTH"
);
}
);
width = 615;
}
);
note = uni0EC1;
unicode = 0EC1;
},
{
glyphname = "oVowel-lao";
lastChange = "2017-01-30 19:51:08 +0000";
layers = (
{
layerId = "64BC062E-13E4-450B-B24E-D8A474022433";
paths = (
{
closed = 1;
nodes = (
"259 -9 OFFCURVE",
"277 -2 OFFCURVE",
"296 7 CURVE",
"291 30 LINE",
"269 20 OFFCURVE",
"251 15 OFFCURVE",
"230 15 CURVE SMOOTH",
"193 15 OFFCURVE",
"178 30 OFFCURVE",
"178 82 CURVE SMOOTH",
"178 485 LINE SMOOTH",
"178 597 OFFCURVE",
"51 616 OFFCURVE",
"51 701 CURVE SMOOTH",
"51 738 OFFCURVE",
"77 765 OFFCURVE",
"147 765 CURVE SMOOTH",
"282 765 LINE",
"282 787 LINE",
"143 787 LINE SMOOTH",
"60 787 OFFCURVE",
"25 748 OFFCURVE",
"25 701 CURVE SMOOTH",
"25 610 OFFCURVE",
"152 584 OFFCURVE",
"152 492 CURVE SMOOTH",
"152 80 LINE SMOOTH",
"152 12 OFFCURVE",
"181 -9 OFFCURVE",
"230 -9 CURVE SMOOTH"
);
}
);
width = 340;
},
{
layerId = "6449CA81-A7C3-4005-93E5-765657812F1B";
paths = (
{
closed = 1;
nodes = (
"209 -9 OFFCURVE",
"235 -6 OFFCURVE",
"260 5 CURVE",
"247 67 LINE",
"236 63 OFFCURVE",
"223 61 OFFCURVE",
"210 61 CURVE SMOOTH",
"178 61 OFFCURVE",
"166 73 OFFCURVE",
"166 101 CURVE SMOOTH",
"166 488 LINE SMOOTH",
"166 600 OFFCURVE",
"51 626 OFFCURVE",
"51 675 CURVE SMOOTH",
"51 688 OFFCURVE",
"59 720 OFFCURVE",
"106 720 CURVE SMOOTH",
"259 720 LINE",
"259 787 LINE",
"104 787 LINE SMOOTH",
"12 787 OFFCURVE",
"-33 744 OFFCURVE",
"-33 683 CURVE SMOOTH",
"-33 588 OFFCURVE",
"78 585 OFFCURVE",
"78 493 CURVE SMOOTH",
"78 96 LINE SMOOTH",
"78 18 OFFCURVE",
"130 -9 OFFCURVE",
"190 -9 CURVE SMOOTH"
);
}
);
width = 279;
},
{
layerId = "E5D3352E-10FF-4C03-AD9F-F95B1FD01257";
paths = (
{
closed = 1;
nodes = (
"304 -9 OFFCURVE",
"346 1 OFFCURVE",
"390 23 CURVE",
"365 131 LINE",
"350 127 OFFCURVE",
"338 124 OFFCURVE",
"328 124 CURVE SMOOTH",
"313 124 OFFCURVE",
"306 130 OFFCURVE",
"306 145 CURVE SMOOTH",
"306 444 LINE SMOOTH",
"306 533 OFFCURVE",
"189 598 OFFCURVE",
"189 642 CURVE SMOOTH",
"189 654 OFFCURVE",
"198 660 OFFCURVE",
"212 660 CURVE SMOOTH",
"393 660 LINE",
"393 787 LINE",
"163 787 LINE SMOOTH",
"63 787 OFFCURVE",
"6 752 OFFCURVE",
"6 664 CURVE SMOOTH",
"6 544 OFFCURVE",
"114 526 OFFCURVE",
"114 429 CURVE SMOOTH",
"114 130 LINE SMOOTH",
"114 30 OFFCURVE",
"171 -9 OFFCURVE",
"260 -9 CURVE SMOOTH"
);
}
);
width = 398;
}
);
note = uni0EC2;
unicode = 0EC2;
},
{
glyphname = "ayMaiMuanVowel-lao";
lastChange = "2017-01-30 19:51:08 +0000";
layers = (
{
layerId = "64BC062E-13E4-450B-B24E-D8A474022433";
paths = (
{
closed = 1;
nodes = (
"255 -9 OFFCURVE",
"273 -2 OFFCURVE",
"292 7 CURVE",
"287 30 LINE",
"265 20 OFFCURVE",
"247 15 OFFCURVE",
"226 15 CURVE SMOOTH",
"190 15 OFFCURVE",
"174 30 OFFCURVE",
"174 82 CURVE SMOOTH",
"174 454 LINE SMOOTH",
"174 560 OFFCURVE",
"292 599 OFFCURVE",
"292 693 CURVE SMOOTH",
"292 761 OFFCURVE",
"230 802 OFFCURVE",
"160 802 CURVE SMOOTH",
"94 802 OFFCURVE",
"24 766 OFFCURVE",
"24 697 CURVE SMOOTH",
"24 684 LINE",
"50 684 LINE",
"50 697 LINE",
"52 749 OFFCURVE",
"95 777 OFFCURVE",
"159 777 CURVE SMOOTH",
"229 777 OFFCURVE",
"264 742 OFFCURVE",
"264 693 CURVE SMOOTH",
"264 606 OFFCURVE",
"148 566 OFFCURVE",
"148 456 CURVE SMOOTH",
"148 80 LINE SMOOTH",
"148 12 OFFCURVE",
"177 -9 OFFCURVE",
"226 -9 CURVE SMOOTH"
);
}
);
width = 336;
},
{
layerId = "6449CA81-A7C3-4005-93E5-765657812F1B";
paths = (
{
closed = 1;
nodes = (
"209 -9 OFFCURVE",
"235 -6 OFFCURVE",
"260 5 CURVE",
"247 67 LINE",
"236 63 OFFCURVE",
"223 61 OFFCURVE",
"210 61 CURVE SMOOTH",
"178 61 OFFCURVE",
"166 73 OFFCURVE",
"166 101 CURVE SMOOTH",
"166 490 LINE SMOOTH",
"166 575 OFFCURVE",
"270 584 OFFCURVE",
"270 678 CURVE SMOOTH",
"270 760 OFFCURVE",
"193 800 OFFCURVE",
"118 800 CURVE SMOOTH",
"43 800 OFFCURVE",
"-34 759 OFFCURVE",
"-34 674 CURVE SMOOTH",
"-34 654 LINE",
"50 654 LINE",
"50 674 LINE SMOOTH",
"50 708 OFFCURVE",
"76 728 OFFCURVE",
"118 728 CURVE SMOOTH",
"159 728 OFFCURVE",
"186 707 OFFCURVE",
"186 678 CURVE SMOOTH",
"186 617 OFFCURVE",
"78 589 OFFCURVE",
"78 484 CURVE SMOOTH",
"78 96 LINE SMOOTH",
"78 18 OFFCURVE",
"131 -9 OFFCURVE",
"190 -9 CURVE SMOOTH"
);
}
);
width = 279;
},
{
layerId = "E5D3352E-10FF-4C03-AD9F-F95B1FD01257";
paths = (
{
closed = 1;
nodes = (
"317 -9 OFFCURVE",
"359 1 OFFCURVE",
"403 23 CURVE",
"378 131 LINE",
"363 127 OFFCURVE",
"351 124 OFFCURVE",
"341 124 CURVE SMOOTH",
"326 124 OFFCURVE",
"319 130 OFFCURVE",
"319 145 CURVE SMOOTH",
"319 368 LINE SMOOTH",
"319 482 OFFCURVE",
"438 525 OFFCURVE",
"438 643 CURVE SMOOTH",
"438 742 OFFCURVE",
"356 802 OFFCURVE",
"219 802 CURVE SMOOTH",
"60 802 OFFCURVE",
"-4 719 OFFCURVE",
"-4 604 CURVE SMOOTH",
"-4 592 LINE",
"161 592 LINE",
"161 604 LINE SMOOTH",
"161 638 OFFCURVE",
"172 665 OFFCURVE",
"205 665 CURVE SMOOTH",
"232 665 OFFCURVE",
"245 643 OFFCURVE",
"245 623 CURVE SMOOTH",
"245 547 OFFCURVE",
"127 481 OFFCURVE",
"127 365 CURVE SMOOTH",
"127 130 LINE SMOOTH",
"127 30 OFFCURVE",
"185 -9 OFFCURVE",
"273 -9 CURVE SMOOTH"
);
}
);
width = 413;
}
);
note = uni0EC3;
unicode = 0EC3;
},
{
glyphname = "aiMaiMayVowel-lao";
lastChange = "2017-01-30 19:51:08 +0000";
layers = (
{
layerId = "64BC062E-13E4-450B-B24E-D8A474022433";
paths = (
{
closed = 1;
nodes = (
"238 -9 OFFCURVE",
"256 -2 OFFCURVE",
"276 7 CURVE",
"271 30 LINE",
"248 20 OFFCURVE",
"230 15 OFFCURVE",
"209 15 CURVE SMOOTH",
"173 15 OFFCURVE",
"157 30 OFFCURVE",
"157 82 CURVE SMOOTH",
"157 506 LINE SMOOTH",
"157 619 OFFCURVE",
"205 694 OFFCURVE",
"286 760 CURVE",
"286 787 LINE",
"32 787 LINE",
"25 765 LINE",
"255 765 LINE",
"255 761 LINE",
"203 718 OFFCURVE",
"131 637 OFFCURVE",
"131 497 CURVE SMOOTH",
"131 80 LINE SMOOTH",
"131 12 OFFCURVE",
"161 -9 OFFCURVE",
"209 -9 CURVE SMOOTH"
);
}
);
width = 321;
},
{
layerId = "6449CA81-A7C3-4005-93E5-765657812F1B";
paths = (
{
closed = 1;
nodes = (
"246 -9 OFFCURVE",
"271 -6 OFFCURVE",
"296 5 CURVE",
"283 67 LINE",
"272 63 OFFCURVE",
"260 61 OFFCURVE",
"247 61 CURVE SMOOTH",
"214 61 OFFCURVE",
"202 73 OFFCURVE",
"202 101 CURVE SMOOTH",
"202 519 LINE SMOOTH",
"202 630 OFFCURVE",
"243 683 OFFCURVE",
"301 705 CURVE",
"301 790 LINE",
"6 790 LINE",
"-22 721 LINE",
"211 721 LINE",
"212 716 LINE",
"165 694 OFFCURVE",
"114 631 OFFCURVE",
"114 502 CURVE SMOOTH",
"114 96 LINE SMOOTH",
"114 18 OFFCURVE",
"167 -9 OFFCURVE",
"227 -9 CURVE SMOOTH"
);
}
);
width = 321;
},
{
layerId = "E5D3352E-10FF-4C03-AD9F-F95B1FD01257";
paths = (
{
closed = 1;
nodes = (
"281 -9 OFFCURVE",
"322 1 OFFCURVE",
"366 23 CURVE",
"341 131 LINE",
"326 127 OFFCURVE",
"315 124 OFFCURVE",
"305 124 CURVE SMOOTH",
"289 124 OFFCURVE",
"282 130 OFFCURVE",
"282 145 CURVE SMOOTH",
"282 497 LINE SMOOTH",
"282 582 OFFCURVE",
"303 633 OFFCURVE",
"372 660 CURVE",
"372 786 LINE",
"28 786 LINE",
"-15 660 LINE",
"166 660 LINE",
"167 656 LINE",
"118 620 OFFCURVE",
"90 541 OFFCURVE",
"90 473 CURVE SMOOTH",
"90 130 LINE SMOOTH",
"90 30 OFFCURVE",
"148 -9 OFFCURVE",
"237 -9 CURVE SMOOTH"
);
}
);
width = 377;
}
);
note = uni0EC4;
unicode = 0EC4;
},
{
glyphname = "amVowel-lao.narrow";
lastChange = "2017-01-30 19:51:08 +0000";
layers = (
{
anchors = (
{
name = top;
position = "{-203, 762}";
}
);
layerId = "64BC062E-13E4-450B-B24E-D8A474022433";
paths = (
{
closed = 1;
nodes = (
"259 0 LINE",
"259 414 LINE SMOOTH",
"259 485 OFFCURVE",
"215 523 OFFCURVE",
"140 523 CURVE SMOOTH",
"94 523 OFFCURVE",
"50 509 OFFCURVE",
"25 498 CURVE",
"30 475 LINE",
"53 483 OFFCURVE",
"94 498 OFFCURVE",
"141 498 CURVE SMOOTH",
"209 498 OFFCURVE",
"233 467 OFFCURVE",
"233 412 CURVE SMOOTH",
"233 0 LINE"
);
},
{
closed = 1;
nodes = (
"-218 588 OFFCURVE",
"-181 622 OFFCURVE",
"-181 676 CURVE SMOOTH",
"-181 730 OFFCURVE",
"-219 764 OFFCURVE",
"-278 764 CURVE SMOOTH",
"-337 764 OFFCURVE",
"-375 730 OFFCURVE",
"-375 676 CURVE SMOOTH",
"-375 622 OFFCURVE",
"-338 588 OFFCURVE",
"-278 588 CURVE SMOOTH"
);
},
{
closed = 1;
nodes = (
"-326 612 OFFCURVE",
"-349 637 OFFCURVE",
"-349 675 CURVE SMOOTH",
"-349 713 OFFCURVE",
"-326 740 OFFCURVE",
"-278 740 CURVE SMOOTH",
"-230 740 OFFCURVE",
"-207 713 OFFCURVE",
"-207 675 CURVE SMOOTH",
"-207 637 OFFCURVE",
"-230 612 OFFCURVE",
"-278 612 CURVE SMOOTH"
);
}
);
width = 343;
},
{
anchors = (
{
name = top;
position = "{-214, 774}";
}
);
layerId = "6449CA81-A7C3-4005-93E5-765657812F1B";
paths = (
{
closed = 1;
nodes = (
"240 0 LINE",
"240 410 LINE SMOOTH",
"240 490 OFFCURVE",
"186 525 OFFCURVE",
"110 525 CURVE SMOOTH",
"70 525 OFFCURVE",
"28 515 OFFCURVE",
"1 503 CURVE",
"15 439 LINE",
"33 446 OFFCURVE",
"59 455 OFFCURVE",
"91 455 CURVE SMOOTH",
"133 455 OFFCURVE",
"152 439 OFFCURVE",
"152 397 CURVE SMOOTH",
"152 0 LINE"
);
},
{
closed = 1;
nodes = (
"-246 584 OFFCURVE",
"-204 622 OFFCURVE",
"-204 679 CURVE SMOOTH",
"-204 736 OFFCURVE",
"-246 774 OFFCURVE",
"-311 774 CURVE SMOOTH",
"-374 774 OFFCURVE",
"-416 736 OFFCURVE",
"-416 679 CURVE SMOOTH",
"-416 622 OFFCURVE",
"-374 584 OFFCURVE",
"-311 584 CURVE SMOOTH"
);
},
{
closed = 1;
nodes = (
"-339 636 OFFCURVE",
"-357 653 OFFCURVE",
"-357 679 CURVE SMOOTH",
"-357 705 OFFCURVE",
"-339 721 OFFCURVE",
"-310 721 CURVE SMOOTH",
"-282 721 OFFCURVE",
"-263 705 OFFCURVE",
"-263 680 CURVE SMOOTH",
"-263 654 OFFCURVE",
"-282 636 OFFCURVE",
"-311 636 CURVE SMOOTH"
);
}
);
width = 321;
},
{
anchors = (
{
name = top;
position = "{-281, 800}";
}
);
layerId = "E5D3352E-10FF-4C03-AD9F-F95B1FD01257";
paths = (
{
closed = 1;
nodes = (
"334 0 LINE",
"334 375 LINE SMOOTH",
"334 475 OFFCURVE",
"285 530 OFFCURVE",
"163 530 CURVE SMOOTH",
"114 530 OFFCURVE",
"51 511 OFFCURVE",
"5 490 CURVE",
"31 362 LINE",
"50 370 OFFCURVE",
"70 378 OFFCURVE",
"99 378 CURVE SMOOTH",
"126 378 OFFCURVE",
"142 365 OFFCURVE",
"142 342 CURVE SMOOTH",
"142 0 LINE"
);
},
{
closed = 1;
nodes = (
"-321 590 OFFCURVE",
"-269 635 OFFCURVE",
"-269 703 CURVE SMOOTH",
"-269 770 OFFCURVE",
"-320 814 OFFCURVE",
"-397 814 CURVE SMOOTH",
"-471 814 OFFCURVE",
"-523 771 OFFCURVE",
"-523 703 CURVE SMOOTH",
"-523 634 OFFCURVE",
"-470 590 OFFCURVE",
"-397 590 CURVE SMOOTH"
);
},
{
closed = 1;
nodes = (
"-419 675 OFFCURVE",
"-430 688 OFFCURVE",
"-430 702 CURVE SMOOTH",
"-430 716 OFFCURVE",
"-419 728 OFFCURVE",
"-397 728 CURVE SMOOTH",
"-375 728 OFFCURVE",
"-363 716 OFFCURVE",
"-363 702 CURVE SMOOTH",
"-363 688 OFFCURVE",
"-375 675 OFFCURVE",
"-397 675 CURVE SMOOTH"
);
}
);
width = 378;
}
);
note = saraamlaonorm;
},
{
glyphname = "hoNo-lao";
lastChange = "2017-01-30 19:51:08 +0000";
layers = (
{
anchors = (
{
name = bottom;
position = "{810, 0}";
},
{
name = top;
position = "{820, 504}";
}
);
layerId = "64BC062E-13E4-450B-B24E-D8A474022433";
paths = (
{
closed = 1;
nodes = (
"307 -9 OFFCURVE",
"347 50 OFFCURVE",
"347 134 CURVE SMOOTH",
"347 321 LINE SMOOTH",
"347 422 OFFCURVE",
"386 498 OFFCURVE",
"472 498 CURVE SMOOTH",
"540 498 OFFCURVE",
"557 450 OFFCURVE",
"557 379 CURVE SMOOTH",
"557 146 LINE SMOOTH",
"557 92 OFFCURVE",
"535 39 OFFCURVE",
"510 4 CURVE",
"530 -9 LINE",
"554 25 OFFCURVE",
"566 58 OFFCURVE",
"574 102 CURVE",
"575 102 LINE",
"595 28 OFFCURVE",
"637 -9 OFFCURVE",
"706 -9 CURVE SMOOTH",
"794 -9 OFFCURVE",
"820 52 OFFCURVE",
"820 134 CURVE SMOOTH",
"820 515 LINE",
"794 515 LINE",
"794 135 LINE SMOOTH",
"794 64 OFFCURVE",
"777 15 OFFCURVE",
"709 15 CURVE SMOOTH",
"623 15 OFFCURVE",
"583 91 OFFCURVE",
"583 192 CURVE SMOOTH",
"583 380 LINE SMOOTH",
"583 461 OFFCURVE",
"563 523 OFFCURVE",
"475 523 CURVE SMOOTH",
"406 523 OFFCURVE",
"359 486 OFFCURVE",
"339 412 CURVE",
"338 412 LINE",
"330 456 OFFCURVE",
"318 489 OFFCURVE",
"293 523 CURVE",
"273 510 LINE",
"299 475 OFFCURVE",
"321 423 OFFCURVE",
"321 369 CURVE SMOOTH",
"321 135 LINE SMOOTH",
"321 55 OFFCURVE",
"287 15 OFFCURVE",
"215 15 CURVE SMOOTH",
"143 15 OFFCURVE",
"110 55 OFFCURVE",
"110 135 CURVE SMOOTH",
"110 515 LINE",
"84 515 LINE",
"84 134 LINE SMOOTH",
"84 50 OFFCURVE",
"123 -9 OFFCURVE",
"215 -9 CURVE SMOOTH"
);
}
);
width = 904;
},
{
anchors = (
{
name = bottom;
position = "{876, 0}";
},
{
name = top;
position = "{876, 504}";
}
);
layerId = "6449CA81-A7C3-4005-93E5-765657812F1B";
paths = (
{
closed = 1;
nodes = (
"345 -9 OFFCURVE",
"400 46 OFFCURVE",
"400 150 CURVE SMOOTH",
"400 377 LINE SMOOTH",
"400 427 OFFCURVE",
"427 452 OFFCURVE",
"477 452 CURVE SMOOTH",
"528 452 OFFCURVE",
"553 427 OFFCURVE",
"553 377 CURVE SMOOTH",
"553 174 LINE SMOOTH",
"553 118 OFFCURVE",
"533 72 OFFCURVE",
"497 39 CURVE",
"561 -9 LINE",
"580 7 OFFCURVE",
"596 31 OFFCURVE",
"607 63 CURVE",
"610 63 LINE",
"637 15 OFFCURVE",
"682 -9 OFFCURVE",
"742 -9 CURVE SMOOTH",
"830 -9 OFFCURVE",
"876 44 OFFCURVE",
"876 147 CURVE SMOOTH",
"876 515 LINE",
"789 515 LINE",
"789 152 LINE SMOOTH",
"789 92 OFFCURVE",
"765 63 OFFCURVE",
"717 63 CURVE SMOOTH",
"668 63 OFFCURVE",
"639 91 OFFCURVE",
"639 144 CURVE SMOOTH",
"639 391 LINE SMOOTH",
"639 479 OFFCURVE",
"595 525 OFFCURVE",
"511 525 CURVE SMOOTH",
"461 525 OFFCURVE",
"419 508 OFFCURVE",
"389 477 CURVE",
"386 477 LINE",
"372 503 OFFCURVE",
"353 521 OFFCURVE",
"332 531 CURVE",
"270 487 LINE",
"300 467 OFFCURVE",
"315 438 OFFCURVE",
"315 404 CURVE SMOOTH",
"315 144 LINE SMOOTH",
"315 91 OFFCURVE",
"289 63 OFFCURVE",
"240 63 CURVE SMOOTH",
"191 63 OFFCURVE",
"165 91 OFFCURVE",
"165 144 CURVE SMOOTH",
"165 515 LINE",
"77 515 LINE",
"77 150 LINE SMOOTH",
"77 46 OFFCURVE",
"133 -9 OFFCURVE",
"239 -9 CURVE SMOOTH"
);
}
);
width = 957;
},
{
anchors = (
{
name = bottom;
position = "{900, 0}";
},
{
name = top;
position = "{910, 504}";
}
);
layerId = "E5D3352E-10FF-4C03-AD9F-F95B1FD01257";
paths = (
{
closed = 1;
nodes = (
"367 -9 OFFCURVE",
"439 59 OFFCURVE",
"439 173 CURVE SMOOTH",
"439 355 LINE SMOOTH",
"439 369 OFFCURVE",
"451 383 OFFCURVE",
"477 383 CURVE SMOOTH",
"504 383 OFFCURVE",
"515 369 OFFCURVE",
"515 355 CURVE SMOOTH",
"515 231 LINE SMOOTH",
"515 164 OFFCURVE",
"499 112 OFFCURVE",
"468 77 CURVE",
"589 -9 LINE",
"611 11 OFFCURVE",
"628 35 OFFCURVE",
"639 61 CURVE",
"642 61 LINE",
"683 15 OFFCURVE",
"733 -9 OFFCURVE",
"788 -9 CURVE SMOOTH",
"870 -9 OFFCURVE",
"910 43 OFFCURVE",
"910 144 CURVE SMOOTH",
"910 520 LINE",
"729 520 LINE",
"729 156 LINE SMOOTH",
"729 145 OFFCURVE",
"719 137 OFFCURVE",
"703 137 CURVE SMOOTH",
"686 137 OFFCURVE",
"677 145 OFFCURVE",
"677 158 CURVE SMOOTH",
"677 394 LINE SMOOTH",
"677 480 OFFCURVE",
"640 530 OFFCURVE",
"563 530 CURVE SMOOTH",
"507 530 OFFCURVE",
"457 502 OFFCURVE",
"430 456 CURVE",
"429 456 LINE",
"418 489 OFFCURVE",
"395 517 OFFCURVE",
"369 531 CURVE",
"243 455 LINE",
"265 437 OFFCURVE",
"278 404 OFFCURVE",
"278 368 CURVE SMOOTH",
"278 158 LINE SMOOTH",
"278 145 OFFCURVE",
"268 137 OFFCURVE",
"252 137 CURVE SMOOTH",
"236 137 OFFCURVE",
"226 145 OFFCURVE",
"226 158 CURVE SMOOTH",
"226 520 LINE",
"44 520 LINE",
"44 173 LINE SMOOTH",
"44 59 OFFCURVE",
"120 -9 OFFCURVE",
"244 -9 CURVE SMOOTH"
);
}
);
width = 954;
}
);
note = uni0EDC;
unicode = 0EDC;
},
{
glyphname = "hoMo-lao";
lastChange = "2017-01-30 19:51:08 +0000";
layers = (
{
anchors = (
{
name = bottom;
position = "{810, 0}";
},
{
name = top;
position = "{820, 504}";
}
);
layerId = "64BC062E-13E4-450B-B24E-D8A474022433";
paths = (
{
closed = 1;
nodes = (
"307 -9 OFFCURVE",
"347 50 OFFCURVE",
"347 134 CURVE SMOOTH",
"347 321 LINE SMOOTH",
"347 422 OFFCURVE",
"386 498 OFFCURVE",
"472 498 CURVE SMOOTH",
"540 498 OFFCURVE",
"557 450 OFFCURVE",
"557 379 CURVE SMOOTH",
"557 60 LINE SMOOTH",
"557 32 OFFCURVE",
"543 15 OFFCURVE",
"513 15 CURVE SMOOTH",
"490 15 OFFCURVE",
"473 25 OFFCURVE",
"463 56 CURVE",
"440 51 LINE",
"449 8 OFFCURVE",
"480 -9 OFFCURVE",
"514 -9 CURVE SMOOTH",
"555 -9 OFFCURVE",
"582 18 OFFCURVE",
"582 58 CURVE SMOOTH",
"582 100 LINE",
"568 80 LINE",
"583 80 LINE",
"607 15 OFFCURVE",
"648 -9 OFFCURVE",
"704 -9 CURVE SMOOTH",
"794 -9 OFFCURVE",
"820 52 OFFCURVE",
"820 134 CURVE SMOOTH",
"820 515 LINE",
"794 515 LINE",
"794 135 LINE SMOOTH",
"794 59 OFFCURVE",
"774 15 OFFCURVE",
"708 15 CURVE SMOOTH",
"621 15 OFFCURVE",
"583 90 OFFCURVE",
"583 193 CURVE SMOOTH",
"583 380 LINE SMOOTH",
"583 461 OFFCURVE",
"563 523 OFFCURVE",
"475 523 CURVE SMOOTH",
"406 523 OFFCURVE",
"359 486 OFFCURVE",
"339 412 CURVE",
"338 412 LINE",
"330 456 OFFCURVE",
"318 489 OFFCURVE",
"293 523 CURVE",
"273 510 LINE",
"299 475 OFFCURVE",
"321 423 OFFCURVE",
"321 369 CURVE SMOOTH",
"321 135 LINE SMOOTH",
"321 55 OFFCURVE",
"287 15 OFFCURVE",
"215 15 CURVE SMOOTH",
"143 15 OFFCURVE",
"110 55 OFFCURVE",
"110 135 CURVE SMOOTH",
"110 515 LINE",
"84 515 LINE",
"84 134 LINE SMOOTH",
"84 50 OFFCURVE",
"123 -9 OFFCURVE",
"215 -9 CURVE SMOOTH"
);
}
);
width = 904;
},
{
anchors = (
{
name = bottom;
position = "{877, 0}";
},
{
name = top;
position = "{877, 504}";
}
);
layerId = "6449CA81-A7C3-4005-93E5-765657812F1B";
paths = (
{
closed = 1;
nodes = (
"345 -9 OFFCURVE",
"400 46 OFFCURVE",
"400 150 CURVE SMOOTH",
"400 376 LINE SMOOTH",
"400 424 OFFCURVE",
"433 453 OFFCURVE",
"487 453 CURVE SMOOTH",
"542 453 OFFCURVE",
"574 424 OFFCURVE",
"574 376 CURVE SMOOTH",
"574 85 LINE SMOOTH",
"574 68 OFFCURVE",
"565 59 OFFCURVE",
"550 59 CURVE SMOOTH",
"534 59 OFFCURVE",
"522 69 OFFCURVE",
"515 89 CURVE",
"451 74 LINE",
"460 20 OFFCURVE",
"492 -9 OFFCURVE",
"552 -9 CURVE SMOOTH",
"605 -9 OFFCURVE",
"643 14 OFFCURVE",
"643 59 CURVE SMOOTH",
"643 76 LINE",
"619 50 LINE",
"646 50 LINE",
"668 12 OFFCURVE",
"705 -9 OFFCURVE",
"762 -9 CURVE SMOOTH",
"851 -9 OFFCURVE",
"897 47 OFFCURVE",
"897 151 CURVE SMOOTH",
"897 515 LINE",
"810 515 LINE",
"810 144 LINE SMOOTH",
"810 91 OFFCURVE",
"787 63 OFFCURVE",
"739 63 CURVE SMOOTH",
"688 63 OFFCURVE",
"660 94 OFFCURVE",
"660 152 CURVE SMOOTH",
"660 391 LINE SMOOTH",
"660 479 OFFCURVE",
"616 525 OFFCURVE",
"521 525 CURVE SMOOTH",
"437 525 OFFCURVE",
"419 507 OFFCURVE",
"389 477 CURVE",
"386 477 LINE",
"372 502 OFFCURVE",
"354 521 OFFCURVE",
"332 531 CURVE",
"270 487 LINE",
"300 467 OFFCURVE",
"315 438 OFFCURVE",
"315 404 CURVE SMOOTH",
"315 144 LINE SMOOTH",
"315 91 OFFCURVE",
"289 63 OFFCURVE",
"240 63 CURVE SMOOTH",
"191 63 OFFCURVE",
"165 91 OFFCURVE",
"165 144 CURVE SMOOTH",
"165 515 LINE",
"77 515 LINE",
"77 150 LINE SMOOTH",
"77 46 OFFCURVE",
"133 -9 OFFCURVE",
"239 -9 CURVE SMOOTH"
);
}
);
width = 978;
},
{
anchors = (
{
name = bottom;
position = "{947, 0}";
},
{
name = top;
position = "{957, 504}";
}
);
layerId = "E5D3352E-10FF-4C03-AD9F-F95B1FD01257";
paths = (
{
closed = 1;
nodes = (
"385 -9 OFFCURVE",
"439 59 OFFCURVE",
"439 173 CURVE SMOOTH",
"439 347 LINE SMOOTH",
"439 378 OFFCURVE",
"461 399 OFFCURVE",
"501 399 CURVE SMOOTH",
"541 399 OFFCURVE",
"561 378 OFFCURVE",
"561 345 CURVE SMOOTH",
"561 139 LINE SMOOTH",
"561 122 OFFCURVE",
"554 113 OFFCURVE",
"543 113 CURVE SMOOTH",
"532 113 OFFCURVE",
"522 123 OFFCURVE",
"515 143 CURVE",
"440 128 LINE",
"452 34 OFFCURVE",
"498 -9 OFFCURVE",
"585 -9 CURVE SMOOTH",
"655 -9 OFFCURVE",
"703 21 OFFCURVE",
"703 66 CURVE SMOOTH",
"703 83 LINE",
"669 51 LINE",
"705 51 LINE",
"727 13 OFFCURVE",
"764 -9 OFFCURVE",
"821 -9 CURVE SMOOTH",
"910 -9 OFFCURVE",
"956 47 OFFCURVE",
"956 151 CURVE SMOOTH",
"956 520 LINE",
"775 520 LINE",
"775 157 LINE SMOOTH",
"775 145 OFFCURVE",
"765 137 OFFCURVE",
"749 137 CURVE SMOOTH",
"732 137 OFFCURVE",
"723 145 OFFCURVE",
"723 157 CURVE SMOOTH",
"723 394 LINE SMOOTH",
"723 480 OFFCURVE",
"663 530 OFFCURVE",
"577 530 CURVE SMOOTH",
"492 530 OFFCURVE",
"446 486 OFFCURVE",
"430 456 CURVE",
"429 456 LINE",
"418 489 OFFCURVE",
"395 517 OFFCURVE",
"369 531 CURVE",
"243 455 LINE",
"265 437 OFFCURVE",
"278 404 OFFCURVE",
"278 368 CURVE SMOOTH",
"278 158 LINE SMOOTH",
"278 145 OFFCURVE",
"268 137 OFFCURVE",
"252 137 CURVE SMOOTH",
"236 137 OFFCURVE",
"226 145 OFFCURVE",
"226 158 CURVE SMOOTH",
"226 520 LINE",
"44 520 LINE",
"44 173 LINE SMOOTH",
"44 59 OFFCURVE",
"120 -9 OFFCURVE",
"244 -9 CURVE SMOOTH"
);
}
);
width = 1000;
}
);
note = uni0EDD;
unicode = 0EDD;
},
{
glyphname = "zero-lao";
lastChange = "2017-01-30 19:51:08 +0000";
layers = (
{
layerId = "64BC062E-13E4-450B-B24E-D8A474022433";
paths = (
{
closed = 1;
nodes = (
"430 -9 OFFCURVE",
"517 65 OFFCURVE",
"517 257 CURVE SMOOTH",
"517 447 OFFCURVE",
"430 523 OFFCURVE",
"291 523 CURVE SMOOTH",
"151 523 OFFCURVE",
"64 447 OFFCURVE",
"64 257 CURVE SMOOTH",
"64 65 OFFCURVE",
"151 -9 OFFCURVE",
"291 -9 CURVE SMOOTH"
);
},
{
closed = 1;
nodes = (
"158 15 OFFCURVE",
"92 93 OFFCURVE",
"92 258 CURVE SMOOTH",
"92 423 OFFCURVE",
"158 498 OFFCURVE",
"291 498 CURVE SMOOTH",
"423 498 OFFCURVE",
"490 423 OFFCURVE",
"490 258 CURVE SMOOTH",
"490 93 OFFCURVE",
"423 15 OFFCURVE",
"291 15 CURVE SMOOTH"
);
}
);
width = 581;
},
{
layerId = "6449CA81-A7C3-4005-93E5-765657812F1B";
paths = (
{
closed = 1;
nodes = (
"451 -9 OFFCURVE",
"541 67 OFFCURVE",
"541 258 CURVE SMOOTH",
"541 449 OFFCURVE",
"451 525 OFFCURVE",
"305 525 CURVE SMOOTH",
"159 525 OFFCURVE",
"69 449 OFFCURVE",
"69 258 CURVE SMOOTH",
"69 67 OFFCURVE",
"159 -9 OFFCURVE",
"305 -9 CURVE SMOOTH"
);
},
{
closed = 1;
nodes = (
"201 63 OFFCURVE",
"157 126 OFFCURVE",
"157 258 CURVE SMOOTH",
"157 390 OFFCURVE",
"201 452 OFFCURVE",
"305 452 CURVE SMOOTH",
"409 452 OFFCURVE",
"453 390 OFFCURVE",
"453 258 CURVE SMOOTH",
"453 126 OFFCURVE",
"409 63 OFFCURVE",
"305 63 CURVE SMOOTH"
);
}
);
width = 610;
},
{
layerId = "E5D3352E-10FF-4C03-AD9F-F95B1FD01257";
paths = (
{
closed = 1;
nodes = (
"453 -9 OFFCURVE",
"554 64 OFFCURVE",
"554 261 CURVE SMOOTH",
"554 458 OFFCURVE",
"453 531 OFFCURVE",
"290 531 CURVE SMOOTH",
"127 531 OFFCURVE",
"27 458 OFFCURVE",
"27 261 CURVE SMOOTH",
"27 64 OFFCURVE",
"127 -9 OFFCURVE",
"290 -9 CURVE SMOOTH"
);
},
{
closed = 1;
nodes = (
"239 140 OFFCURVE",
"215 177 OFFCURVE",
"215 261 CURVE SMOOTH",
"215 345 OFFCURVE",
"239 381 OFFCURVE",
"290 381 CURVE SMOOTH",
"341 381 OFFCURVE",
"366 345 OFFCURVE",
"366 261 CURVE SMOOTH",
"366 177 OFFCURVE",
"341 140 OFFCURVE",
"290 140 CURVE SMOOTH"
);
}
);
width = 581;
}
);
note = uni0ED0;
unicode = 0ED0;
},
{
glyphname = "one-lao";
lastChange = "2017-01-30 19:51:08 +0000";
layers = (
{
layerId = "64BC062E-13E4-450B-B24E-D8A474022433";
paths = (
{
closed = 1;
nodes = (
"409 -9 OFFCURVE",
"492 55 OFFCURVE",
"492 259 CURVE SMOOTH",
"492 440 OFFCURVE",
"426 523 OFFCURVE",
"277 523 CURVE SMOOTH",
"155 523 OFFCURVE",
"64 468 OFFCURVE",
"64 356 CURVE SMOOTH",
"64 269 OFFCURVE",
"119 212 OFFCURVE",
"217 212 CURVE SMOOTH",
"223 212 OFFCURVE",
"229 212 OFFCURVE",
"234 213 CURVE",
"241 238 LINE",
"235 237 OFFCURVE",
"224 236 OFFCURVE",
"213 236 CURVE SMOOTH",
"138 236 OFFCURVE",
"92 280 OFFCURVE",
"92 355 CURVE SMOOTH",
"92 444 OFFCURVE",
"157 498 OFFCURVE",
"275 498 CURVE SMOOTH",
"416 498 OFFCURVE",
"464 419 OFFCURVE",
"464 258 CURVE SMOOTH",
"464 75 OFFCURVE",
"402 15 OFFCURVE",
"282 15 CURVE SMOOTH",
"223 15 OFFCURVE",
"143 30 OFFCURVE",
"98 48 CURVE",
"98 22 LINE",
"140 4 OFFCURVE",
"229 -9 OFFCURVE",
"285 -9 CURVE SMOOTH"
);
}
);
width = 547;
},
{
layerId = "6449CA81-A7C3-4005-93E5-765657812F1B";
paths = (
{
closed = 1;
nodes = (
"421 -9 OFFCURVE",
"509 67 OFFCURVE",
"509 261 CURVE SMOOTH",
"509 453 OFFCURVE",
"422 525 OFFCURVE",
"278 525 CURVE SMOOTH",
"153 525 OFFCURVE",
"67 470 OFFCURVE",
"67 360 CURVE SMOOTH",
"67 259 OFFCURVE",
"141 202 OFFCURVE",
"254 202 CURVE SMOOTH",
"269 202 OFFCURVE",
"278 203 OFFCURVE",
"284 204 CURVE",
"298 274 LINE",
"291 273 OFFCURVE",
"274 272 OFFCURVE",
"260 272 CURVE SMOOTH",
"190 272 OFFCURVE",
"155 296 OFFCURVE",
"155 358 CURVE SMOOTH",
"155 422 OFFCURVE",
"192 452 OFFCURVE",
"272 452 CURVE SMOOTH",
"380 452 OFFCURVE",
"421 397 OFFCURVE",
"421 262 CURVE SMOOTH",
"421 122 OFFCURVE",
"377 63 OFFCURVE",
"261 63 CURVE SMOOTH",
"198 63 OFFCURVE",
"147 82 OFFCURVE",
"97 107 CURVE",
"97 30 LINE",
"141 7 OFFCURVE",
"201 -9 OFFCURVE",
"270 -9 CURVE SMOOTH"
);
}
);
width = 580;
},
{
layerId = "E5D3352E-10FF-4C03-AD9F-F95B1FD01257";
paths = (
{
closed = 1;
nodes = (
"429 -9 OFFCURVE",
"548 69 OFFCURVE",
"548 270 CURVE SMOOTH",
"548 460 OFFCURVE",
"439 530 OFFCURVE",
"277 530 CURVE SMOOTH",
"125 530 OFFCURVE",
"27 467 OFFCURVE",
"27 344 CURVE SMOOTH",
"27 224 OFFCURVE",
"121 176 OFFCURVE",
"256 176 CURVE SMOOTH",
"263 176 OFFCURVE",
"270 176 OFFCURVE",
"278 177 CURVE",
"312 307 LINE",
"299 304 OFFCURVE",
"277 302 OFFCURVE",
"266 302 CURVE SMOOTH",
"236 302 OFFCURVE",
"215 319 OFFCURVE",
"215 341 CURVE SMOOTH",
"215 363 OFFCURVE",
"235 380 OFFCURVE",
"274 380 CURVE SMOOTH",
"334 380 OFFCURVE",
"360 341 OFFCURVE",
"360 266 CURVE SMOOTH",
"360 173 OFFCURVE",
"322 140 OFFCURVE",
"245 140 CURVE SMOOTH",
"176 140 OFFCURVE",
"105 171 OFFCURVE",
"54 210 CURVE",
"54 46 LINE",
"110 12 OFFCURVE",
"186 -9 OFFCURVE",
"268 -9 CURVE SMOOTH"
);
}
);
width = 575;
}
);
note = uni0ED1;
unicode = 0ED1;
},
{
glyphname = "two-lao";
lastChange = "2017-01-30 19:51:08 +0000";
layers = (
{
layerId = "64BC062E-13E4-450B-B24E-D8A474022433";
paths = (
{
closed = 1;
nodes = (
"423 -9 OFFCURVE",
"508 48 OFFCURVE",
"508 160 CURVE SMOOTH",
"508 247 OFFCURVE",
"456 301 OFFCURVE",
"344 301 CURVE",
"337 278 LINE",
"343 279 OFFCURVE",
"349 279 OFFCURVE",
"355 279 CURVE SMOOTH",
"441 279 OFFCURVE",
"480 231 OFFCURVE",
"480 161 CURVE SMOOTH",
"480 68 OFFCURVE",
"413 15 OFFCURVE",
"306 15 CURVE SMOOTH",
"188 15 OFFCURVE",
"113 79 OFFCURVE",
"113 239 CURVE SMOOTH",
"113 380 OFFCURVE",
"173 442 OFFCURVE",
"257 489 CURVE SMOOTH",
"354 543 OFFCURVE",
"470 572 OFFCURVE",
"470 675 CURVE SMOOTH",
"470 685 LINE",
"444 685 LINE",
"444 675 LINE SMOOTH",
"444 584 OFFCURVE",
"329 558 OFFCURVE",
"235 505 CURVE SMOOTH",
"153 459 OFFCURVE",
"85 392 OFFCURVE",
"85 239 CURVE SMOOTH",
"85 58 OFFCURVE",
"179 -9 OFFCURVE",
"306 -9 CURVE SMOOTH"
);
}
);
width = 551;
},
{
layerId = "6449CA81-A7C3-4005-93E5-765657812F1B";
paths = (
{
closed = 1;
nodes = (
"416 -9 OFFCURVE",
"508 51 OFFCURVE",
"508 167 CURVE SMOOTH",
"508 273 OFFCURVE",
"430 324 OFFCURVE",
"303 324 CURVE",
"284 251 LINE",
"290 252 OFFCURVE",
"296 252 OFFCURVE",
"303 252 CURVE SMOOTH",
"385 252 OFFCURVE",
"420 227 OFFCURVE",
"420 165 CURVE SMOOTH",
"420 104 OFFCURVE",
"386 63 OFFCURVE",
"297 63 CURVE SMOOTH",
"202 63 OFFCURVE",
"148 111 OFFCURVE",
"148 247 CURVE SMOOTH",
"148 371 OFFCURVE",
"193 424 OFFCURVE",
"288 485 CURVE SMOOTH",
"399 556 OFFCURVE",
"478 586 OFFCURVE",
"478 663 CURVE SMOOTH",
"478 685 LINE",
"400 685 LINE",
"400 661 LINE SMOOTH",
"400 611 OFFCURVE",
"307 576 OFFCURVE",
"235 533 CURVE SMOOTH",
"146 480 OFFCURVE",
"60 406 OFFCURVE",
"60 241 CURVE SMOOTH",
"60 63 OFFCURVE",
"155 -9 OFFCURVE",
"292 -9 CURVE SMOOTH"
);
}
);
width = 577;
},
{
layerId = "E5D3352E-10FF-4C03-AD9F-F95B1FD01257";
paths = (
{
closed = 1;
nodes = (
"450 -9 OFFCURVE",
"550 58 OFFCURVE",
"550 192 CURVE SMOOTH",
"550 306 OFFCURVE",
"476 362 OFFCURVE",
"299 362 CURVE",
"269 223 LINE",
"283 225 OFFCURVE",
"296 226 OFFCURVE",
"306 226 CURVE SMOOTH",
"346 226 OFFCURVE",
"362 209 OFFCURVE",
"362 183 CURVE SMOOTH",
"362 155 OFFCURVE",
"342 138 OFFCURVE",
"305 138 CURVE SMOOTH",
"252 138 OFFCURVE",
"215 173 OFFCURVE",
"215 253 CURVE SMOOTH",
"215 336 OFFCURVE",
"256 382 OFFCURVE",
"350 430 CURVE SMOOTH",
"432 472 OFFCURVE",
"507 492 OFFCURVE",
"507 605 CURVE SMOOTH",
"507 620 LINE",
"325 620 LINE",
"325 612 LINE SMOOTH",
"325 558 OFFCURVE",
"237 545 OFFCURVE",
"162 494 CURVE SMOOTH",
"78 437 OFFCURVE",
"27 347 OFFCURVE",
"27 241 CURVE SMOOTH",
"27 67 OFFCURVE",
"148 -9 OFFCURVE",
"304 -9 CURVE SMOOTH"
);
}
);
width = 577;
}
);
note = uni0ED2;
unicode = 0ED2;
},
{
glyphname = "three-lao";
lastChange = "2017-01-30 19:51:08 +0000";
layers = (
{
layerId = "64BC062E-13E4-450B-B24E-D8A474022433";
paths = (
{
closed = 1;
nodes = (
"137 -9 OFFCURVE",
"159 20 OFFCURVE",
"159 86 CURVE SMOOTH",
"159 112 LINE",
"146 99 LINE",
"160 99 LINE",
"189 33 OFFCURVE",
"260 -9 OFFCURVE",
"342 -9 CURVE SMOOTH",
"435 -9 OFFCURVE",
"509 47 OFFCURVE",
"509 159 CURVE SMOOTH",
"509 286 LINE SMOOTH",
"509 403 OFFCURVE",
"434 442 OFFCURVE",
"292 496 CURVE SMOOTH",
"184 537 OFFCURVE",
"143 548 OFFCURVE",
"143 593 CURVE SMOOTH",
"143 630 OFFCURVE",
"169 643 OFFCURVE",
"205 643 CURVE SMOOTH",
"215 643 OFFCURVE",
"230 643 OFFCURVE",
"254 636 CURVE SMOOTH",
"488 568 LINE",
"488 594 LINE",
"257 659 LINE SMOOTH",
"233 666 OFFCURVE",
"215 668 OFFCURVE",
"201 668 CURVE SMOOTH",
"158 668 OFFCURVE",
"115 644 OFFCURVE",
"115 594 CURVE SMOOTH",
"115 532 OFFCURVE",
"166 518 OFFCURVE",
"281 474 CURVE SMOOTH",
"413 424 OFFCURVE",
"483 388 OFFCURVE",
"483 286 CURVE SMOOTH",
"483 160 LINE SMOOTH",
"483 67 OFFCURVE",
"428 15 OFFCURVE",
"341 15 CURVE SMOOTH",
"241 15 OFFCURVE",
"159 83 OFFCURVE",
"159 184 CURVE SMOOTH",
"159 384 LINE",
"133 384 LINE",
"133 80 LINE SMOOTH",
"133 29 OFFCURVE",
"115 14 OFFCURVE",
"81 14 CURVE SMOOTH",
"66 14 OFFCURVE",
"56 17 OFFCURVE",
"43 21 CURVE",
"38 -2 LINE",
"51 -7 OFFCURVE",
"67 -9 OFFCURVE",
"83 -9 CURVE SMOOTH"
);
}
);
width = 593;
},
{
layerId = "6449CA81-A7C3-4005-93E5-765657812F1B";
paths = (
{
closed = 1;
nodes = (
"134 -9 OFFCURVE",
"182 11 OFFCURVE",
"182 52 CURVE SMOOTH",
"182 68 LINE",
"148 48 LINE",
"185 48 LINE",
"232 -2 OFFCURVE",
"278 -9 OFFCURVE",
"326 -9 CURVE SMOOTH",
"440 -9 OFFCURVE",
"509 46 OFFCURVE",
"509 175 CURVE SMOOTH",
"509 334 LINE SMOOTH",
"509 420 OFFCURVE",
"442 474 OFFCURVE",
"374 514 CURVE SMOOTH",
"307 553 OFFCURVE",
"237 575 OFFCURVE",
"237 600 CURVE SMOOTH",
"237 609 OFFCURVE",
"246 615 OFFCURVE",
"260 615 CURVE SMOOTH",
"270 615 OFFCURVE",
"284 614 OFFCURVE",
"301 607 CURVE SMOOTH",
"494 532 LINE",
"494 601 LINE",
"314 670 LINE SMOOTH",
"291 679 OFFCURVE",
"269 681 OFFCURVE",
"251 681 CURVE SMOOTH",
"198 681 OFFCURVE",
"162 646 OFFCURVE",
"162 604 CURVE SMOOTH",
"162 538 OFFCURVE",
"260 506 OFFCURVE",
"335 454 CURVE SMOOTH",
"382 421 OFFCURVE",
"421 385 OFFCURVE",
"421 327 CURVE SMOOTH",
"421 181 LINE SMOOTH",
"421 103 OFFCURVE",
"386 63 OFFCURVE",
"312 63 CURVE SMOOTH",
"246 63 OFFCURVE",
"194 96 OFFCURVE",
"194 181 CURVE SMOOTH",
"194 402 LINE",
"106 402 LINE",
"106 99 LINE SMOOTH",
"106 70 OFFCURVE",
"89 60 OFFCURVE",
"67 60 CURVE SMOOTH",
"57 60 OFFCURVE",
"45 62 OFFCURVE",
"33 66 CURVE",
"20 5 LINE",
"44 -4 OFFCURVE",
"70 -9 OFFCURVE",
"90 -9 CURVE SMOOTH"
);
}
);
width = 590;
},
{
layerId = "E5D3352E-10FF-4C03-AD9F-F95B1FD01257";
paths = (
{
closed = 1;
nodes = (
"188 -9 OFFCURVE",
"236 23 OFFCURVE",
"236 67 CURVE SMOOTH",
"236 88 LINE",
"209 63 LINE",
"238 63 LINE",
"267 15 OFFCURVE",
"315 -9 OFFCURVE",
"382 -9 CURVE SMOOTH",
"495 -9 OFFCURVE",
"567 53 OFFCURVE",
"567 196 CURVE SMOOTH",
"567 232 LINE SMOOTH",
"567 308 OFFCURVE",
"554 371 OFFCURVE",
"405 461 CURVE SMOOTH",
"347 496 OFFCURVE",
"297 515 OFFCURVE",
"297 529 CURVE SMOOTH",
"297 534 OFFCURVE",
"305 535 OFFCURVE",
"310 535 CURVE SMOOTH",
"323 535 OFFCURVE",
"355 522 OFFCURVE",
"367 518 CURVE SMOOTH",
"546 453 LINE",
"546 600 LINE",
"354 665 LINE SMOOTH",
"317 677 OFFCURVE",
"282 681 OFFCURVE",
"259 681 CURVE SMOOTH",
"170 681 OFFCURVE",
"115 635 OFFCURVE",
"115 548 CURVE SMOOTH",
"115 462 OFFCURVE",
"160 446 OFFCURVE",
"269 379 CURVE SMOOTH",
"355 326 OFFCURVE",
"380 304 OFFCURVE",
"380 238 CURVE SMOOTH",
"380 201 LINE SMOOTH",
"380 160 OFFCURVE",
"361 143 OFFCURVE",
"329 143 CURVE SMOOTH",
"300 143 OFFCURVE",
"281 158 OFFCURVE",
"281 200 CURVE SMOOTH",
"281 327 LINE",
"95 327 LINE",
"95 157 LINE SMOOTH",
"95 141 OFFCURVE",
"88 134 OFFCURVE",
"70 134 CURVE SMOOTH",
"57 134 OFFCURVE",
"45 138 OFFCURVE",
"35 142 CURVE",
"8 21 LINE",
"43 1 OFFCURVE",
"81 -9 OFFCURVE",
"119 -9 CURVE SMOOTH"
);
}
);
width = 608;
}
);
note = uni0ED3;
unicode = 0ED3;
},
{
glyphname = "four-lao";
lastChange = "2017-01-30 19:51:08 +0000";
layers = (
{
layerId = "64BC062E-13E4-450B-B24E-D8A474022433";
paths = (
{
closed = 1;
nodes = (
"360 -9 OFFCURVE",
"406 38 OFFCURVE",
"429 106 CURVE",
"431 106 LINE",
"444 61 OFFCURVE",
"470 24 OFFCURVE",
"499 -9 CURVE",
"519 4 LINE",
"489 38 OFFCURVE",
"447 91 OFFCURVE",
"447 146 CURVE SMOOTH",
"447 258 LINE SMOOTH",
"447 304 OFFCURVE",
"462 316 OFFCURVE",
"497 316 CURVE SMOOTH",
"511 316 OFFCURVE",
"528 314 OFFCURVE",
"540 309 CURVE",
"545 333 LINE",
"532 339 OFFCURVE",
"512 341 OFFCURVE",
"497 341 CURVE SMOOTH",
"446 341 OFFCURVE",
"421 317 OFFCURVE",
"421 258 CURVE SMOOTH",
"421 193 LINE SMOOTH",
"421 95 OFFCURVE",
"378 15 OFFCURVE",
"260 15 CURVE SMOOTH",
"168 15 OFFCURVE",
"111 64 OFFCURVE",
"111 183 CURVE SMOOTH",
"111 291 LINE SMOOTH",
"111 486 OFFCURVE",
"213 495 OFFCURVE",
"328 502 CURVE SMOOTH",
"415 507 OFFCURVE",
"523 513 OFFCURVE",
"523 674 CURVE SMOOTH",
"523 685 LINE",
"497 685 LINE",
"497 674 LINE SMOOTH",
"497 534 OFFCURVE",
"420 529 OFFCURVE",
"328 524 CURVE SMOOTH",
"217 518 OFFCURVE",
"85 510 OFFCURVE",
"85 291 CURVE SMOOTH",
"85 179 LINE SMOOTH",
"85 53 OFFCURVE",
"146 -9 OFFCURVE",
"260 -9 CURVE SMOOTH"
);
}
);
width = 631;
},
{
layerId = "6449CA81-A7C3-4005-93E5-765657812F1B";
paths = (
{
closed = 1;
nodes = (
"310 -9 OFFCURVE",
"359 6 OFFCURVE",
"405 65 CURVE",
"408 65 LINE",
"420 36 OFFCURVE",
"443 5 OFFCURVE",
"460 -9 CURVE",
"524 38 LINE",
"497 63 OFFCURVE",
"470 95 OFFCURVE",
"470 163 CURVE SMOOTH",
"470 255 LINE SMOOTH",
"470 284 OFFCURVE",
"487 295 OFFCURVE",
"508 295 CURVE SMOOTH",
"519 295 OFFCURVE",
"531 292 OFFCURVE",
"543 289 CURVE",
"557 350 LINE",
"532 359 OFFCURVE",
"507 364 OFFCURVE",
"483 364 CURVE SMOOTH",
"430 364 OFFCURVE",
"382 338 OFFCURVE",
"382 263 CURVE SMOOTH",
"382 170 LINE SMOOTH",
"382 85 OFFCURVE",
"328 63 OFFCURVE",
"266 63 CURVE SMOOTH",
"189 63 OFFCURVE",
"155 98 OFFCURVE",
"155 179 CURVE SMOOTH",
"155 291 LINE SMOOTH",
"155 442 OFFCURVE",
"231 446 OFFCURVE",
"344 452 CURVE SMOOTH",
"421 456 OFFCURVE",
"535 471 OFFCURVE",
"535 648 CURVE SMOOTH",
"535 671 LINE",
"456 671 LINE",
"456 649 LINE SMOOTH",
"456 539 OFFCURVE",
"411 528 OFFCURVE",
"333 524 CURVE SMOOTH",
"228 519 OFFCURVE",
"67 508 OFFCURVE",
"67 291 CURVE SMOOTH",
"67 178 LINE SMOOTH",
"67 49 OFFCURVE",
"135 -9 OFFCURVE",
"251 -9 CURVE SMOOTH"
);
}
);
width = 604;
},
{
layerId = "E5D3352E-10FF-4C03-AD9F-F95B1FD01257";
paths = (
{
closed = 1;
nodes = (
"334 -9 OFFCURVE",
"381 20 OFFCURVE",
"418 61 CURVE",
"421 61 LINE",
"431 36 OFFCURVE",
"451 13 OFFCURVE",
"475 -9 CURVE",
"614 95 LINE",
"562 139 OFFCURVE",
"546 167 OFFCURVE",
"546 218 CURVE SMOOTH",
"546 223 LINE SMOOTH",
"546 240 OFFCURVE",
"555 248 OFFCURVE",
"571 248 CURVE SMOOTH",
"583 248 OFFCURVE",
"594 244 OFFCURVE",
"604 240 CURVE",
"631 359 LINE",
"593 379 OFFCURVE",
"532 389 OFFCURVE",
"492 389 CURVE SMOOTH",
"395 389 OFFCURVE",
"356 332 OFFCURVE",
"356 250 CURVE SMOOTH",
"356 201 LINE SMOOTH",
"356 161 OFFCURVE",
"322 135 OFFCURVE",
"283 135 CURVE SMOOTH",
"233 135 OFFCURVE",
"217 178 OFFCURVE",
"217 212 CURVE SMOOTH",
"217 272 LINE SMOOTH",
"217 391 OFFCURVE",
"280 397 OFFCURVE",
"356 402 CURVE SMOOTH",
"518 413 OFFCURVE",
"572 483 OFFCURVE",
"572 567 CURVE SMOOTH",
"572 671 LINE",
"392 671 LINE",
"392 599 LINE SMOOTH",
"392 542 OFFCURVE",
"359 547 OFFCURVE",
"294 543 CURVE SMOOTH",
"181 536 OFFCURVE",
"27 513 OFFCURVE",
"27 267 CURVE SMOOTH",
"27 212 LINE SMOOTH",
"27 74 OFFCURVE",
"117 -9 OFFCURVE",
"254 -9 CURVE SMOOTH"
);
}
);
width = 642;
}
);
note = uni0ED4;
unicode = 0ED4;
},
{
glyphname = "five-lao";
lastChange = "2017-01-30 19:51:08 +0000";
layers = (
{
layerId = "64BC062E-13E4-450B-B24E-D8A474022433";
paths = (
{
closed = 1;
nodes = (
"360 -9 OFFCURVE",
"406 38 OFFCURVE",
"429 106 CURVE",
"431 106 LINE",
"444 61 OFFCURVE",
"470 24 OFFCURVE",
"499 -9 CURVE",
"519 4 LINE",
"489 38 OFFCURVE",
"447 91 OFFCURVE",
"447 146 CURVE SMOOTH",
"447 258 LINE SMOOTH",
"447 304 OFFCURVE",
"462 316 OFFCURVE",
"497 316 CURVE SMOOTH",
"511 316 OFFCURVE",
"528 314 OFFCURVE",
"540 309 CURVE",
"545 333 LINE",
"532 339 OFFCURVE",
"512 341 OFFCURVE",
"497 341 CURVE SMOOTH",
"446 341 OFFCURVE",
"421 317 OFFCURVE",
"421 258 CURVE SMOOTH",
"421 193 LINE SMOOTH",
"421 95 OFFCURVE",
"378 15 OFFCURVE",
"260 15 CURVE SMOOTH",
"168 15 OFFCURVE",
"111 64 OFFCURVE",
"111 183 CURVE SMOOTH",
"111 299 LINE SMOOTH",
"111 486 OFFCURVE",
"213 495 OFFCURVE",
"328 502 CURVE SMOOTH",
"415 507 OFFCURVE",
"523 513 OFFCURVE",
"523 674 CURVE SMOOTH",
"523 685 LINE",
"497 685 LINE",
"497 674 LINE SMOOTH",
"497 534 OFFCURVE",
"412 524 OFFCURVE",
"319 524 CURVE SMOOTH",
"293 524 OFFCURVE",
"273 510 OFFCURVE",
"262 510 CURVE SMOOTH",
"240 510 LINE SMOOTH",
"157 510 OFFCURVE",
"85 442 OFFCURVE",
"85 310 CURVE SMOOTH",
"85 179 LINE SMOOTH",
"85 53 OFFCURVE",
"146 -9 OFFCURVE",
"260 -9 CURVE SMOOTH"
);
},
{
closed = 1;
nodes = (
"315 498 OFFCURVE",
"352 533 OFFCURVE",
"352 580 CURVE SMOOTH",
"352 628 OFFCURVE",
"315 663 OFFCURVE",
"264 663 CURVE SMOOTH",
"212 663 OFFCURVE",
"175 632 OFFCURVE",
"175 580 CURVE SMOOTH",
"175 528 OFFCURVE",
"212 498 OFFCURVE",
"264 498 CURVE SMOOTH"
);
},
{
closed = 1;
nodes = (
"227 523 OFFCURVE",
"201 544 OFFCURVE",
"201 580 CURVE SMOOTH",
"201 617 OFFCURVE",
"227 638 OFFCURVE",
"264 638 CURVE SMOOTH",
"300 638 OFFCURVE",
"326 614 OFFCURVE",
"326 580 CURVE SMOOTH",
"326 547 OFFCURVE",
"300 523 OFFCURVE",
"264 523 CURVE SMOOTH"
);
}
);
width = 631;
},
{
layerId = "6449CA81-A7C3-4005-93E5-765657812F1B";
paths = (
{
closed = 1;
nodes = (
"310 -9 OFFCURVE",
"359 6 OFFCURVE",
"405 65 CURVE",
"408 65 LINE",
"420 36 OFFCURVE",
"443 5 OFFCURVE",
"460 -9 CURVE",
"524 38 LINE",
"497 63 OFFCURVE",
"470 95 OFFCURVE",
"470 163 CURVE SMOOTH",
"470 255 LINE SMOOTH",
"470 284 OFFCURVE",
"487 295 OFFCURVE",
"508 295 CURVE SMOOTH",
"519 295 OFFCURVE",
"531 292 OFFCURVE",
"543 289 CURVE",
"557 350 LINE",
"532 359 OFFCURVE",
"507 364 OFFCURVE",
"483 364 CURVE SMOOTH",
"430 364 OFFCURVE",
"382 338 OFFCURVE",
"382 263 CURVE SMOOTH",
"382 170 LINE SMOOTH",
"382 85 OFFCURVE",
"328 63 OFFCURVE",
"266 63 CURVE SMOOTH",
"189 63 OFFCURVE",
"155 98 OFFCURVE",
"155 179 CURVE SMOOTH",
"155 291 LINE SMOOTH",
"155 442 OFFCURVE",
"231 446 OFFCURVE",
"344 452 CURVE SMOOTH",
"421 456 OFFCURVE",
"535 471 OFFCURVE",
"535 648 CURVE SMOOTH",
"535 671 LINE",
"456 671 LINE",
"456 649 LINE SMOOTH",
"456 552 OFFCURVE",
"429 524 OFFCURVE",
"333 524 CURVE SMOOTH",
"314 524 OFFCURVE",
"308 502 OFFCURVE",
"278 502 CURVE SMOOTH",
"229 502 LINE SMOOTH",
"152 502 OFFCURVE",
"67 442 OFFCURVE",
"67 291 CURVE SMOOTH",
"67 178 LINE SMOOTH",
"67 49 OFFCURVE",
"135 -9 OFFCURVE",
"251 -9 CURVE SMOOTH"
);
},
{
closed = 1;
nodes = (
"341 460 OFFCURVE",
"386 503 OFFCURVE",
"386 563 CURVE SMOOTH",
"386 622 OFFCURVE",
"341 666 OFFCURVE",
"278 666 CURVE SMOOTH",
"212 666 OFFCURVE",
"168 628 OFFCURVE",
"168 563 CURVE SMOOTH",
"168 498 OFFCURVE",
"212 460 OFFCURVE",
"278 460 CURVE SMOOTH"
);
},
{
closed = 1;
nodes = (
"247 518 OFFCURVE",
"228 536 OFFCURVE",
"228 562 CURVE SMOOTH",
"228 589 OFFCURVE",
"248 605 OFFCURVE",
"276 605 CURVE SMOOTH",
"303 605 OFFCURVE",
"323 588 OFFCURVE",
"323 562 CURVE SMOOTH",
"323 536 OFFCURVE",
"303 518 OFFCURVE",
"276 518 CURVE SMOOTH"
);
}
);
width = 604;
},
{
layerId = "E5D3352E-10FF-4C03-AD9F-F95B1FD01257";
paths = (
{
closed = 1;
nodes = (
"334 -9 OFFCURVE",
"381 20 OFFCURVE",
"418 61 CURVE",
"421 61 LINE",
"431 36 OFFCURVE",
"451 13 OFFCURVE",
"475 -9 CURVE",
"614 95 LINE",
"562 139 OFFCURVE",
"546 167 OFFCURVE",
"546 218 CURVE SMOOTH",
"546 223 LINE SMOOTH",
"546 238 OFFCURVE",
"555 248 OFFCURVE",
"571 248 CURVE SMOOTH",
"583 248 OFFCURVE",
"594 244 OFFCURVE",
"604 240 CURVE",
"631 359 LINE",
"593 379 OFFCURVE",
"532 389 OFFCURVE",
"492 389 CURVE SMOOTH",
"395 389 OFFCURVE",
"356 332 OFFCURVE",
"356 250 CURVE SMOOTH",
"356 201 LINE SMOOTH",
"356 161 OFFCURVE",
"322 135 OFFCURVE",
"283 135 CURVE SMOOTH",
"233 135 OFFCURVE",
"217 178 OFFCURVE",
"217 212 CURVE SMOOTH",
"217 272 LINE SMOOTH",
"217 391 OFFCURVE",
"280 397 OFFCURVE",
"356 402 CURVE SMOOTH",
"518 413 OFFCURVE",
"572 483 OFFCURVE",
"572 567 CURVE SMOOTH",
"572 671 LINE",
"392 671 LINE",
"392 599 LINE SMOOTH",
"392 540 OFFCURVE",
"359 543 OFFCURVE",
"294 543 CURVE SMOOTH",
"267 543 OFFCURVE",
"259 475 OFFCURVE",
"228 475 CURVE SMOOTH",
"177 475 LINE SMOOTH",
"105 475 OFFCURVE",
"27 407 OFFCURVE",
"27 267 CURVE SMOOTH",
"27 212 LINE SMOOTH",
"27 74 OFFCURVE",
"117 -9 OFFCURVE",
"254 -9 CURVE SMOOTH"
);
},
{
closed = 1;
nodes = (
"302 408 OFFCURVE",
"359 459 OFFCURVE",
"359 537 CURVE SMOOTH",
"359 614 OFFCURVE",
"302 666 OFFCURVE",
"219 666 CURVE SMOOTH",
"133 666 OFFCURVE",
"77 622 OFFCURVE",
"77 537 CURVE SMOOTH",
"77 452 OFFCURVE",
"133 408 OFFCURVE",
"219 408 CURVE SMOOTH"
);
},
{
closed = 1;
nodes = (
"195 504 OFFCURVE",
"180 515 OFFCURVE",
"180 537 CURVE SMOOTH",
"180 559 OFFCURVE",
"195 569 OFFCURVE",
"218 569 CURVE SMOOTH",
"240 569 OFFCURVE",
"255 556 OFFCURVE",
"255 537 CURVE SMOOTH",
"255 518 OFFCURVE",
"240 504 OFFCURVE",
"218 504 CURVE SMOOTH"
);
}
);
width = 642;
}
);
note = uni0ED5;
unicode = 0ED5;
},
{
glyphname = "six-lao";
lastChange = "2017-01-30 19:51:08 +0000";
layers = (
{
layerId = "64BC062E-13E4-450B-B24E-D8A474022433";
paths = (
{
closed = 1;
nodes = (
"229 -9 OFFCURVE",
"266 12 OFFCURVE",
"288 65 CURVE",
"290 65 LINE",
"312 12 OFFCURVE",
"348 -9 OFFCURVE",
"398 -9 CURVE SMOOTH",
"481 -9 OFFCURVE",
"514 52 OFFCURVE",
"514 147 CURVE SMOOTH",
"514 286 LINE SMOOTH",
"514 403 OFFCURVE",
"439 442 OFFCURVE",
"298 496 CURVE SMOOTH",
"189 538 OFFCURVE",
"148 548 OFFCURVE",
"148 593 CURVE SMOOTH",
"148 630 OFFCURVE",
"173 643 OFFCURVE",
"209 643 CURVE SMOOTH",
"219 643 OFFCURVE",
"234 642 OFFCURVE",
"259 635 CURVE SMOOTH",
"493 568 LINE",
"493 594 LINE",
"262 659 LINE SMOOTH",
"237 666 OFFCURVE",
"219 668 OFFCURVE",
"205 668 CURVE SMOOTH",
"162 668 OFFCURVE",
"120 644 OFFCURVE",
"120 594 CURVE SMOOTH",
"120 532 OFFCURVE",
"171 518 OFFCURVE",
"287 474 CURVE SMOOTH",
"418 424 OFFCURVE",
"488 388 OFFCURVE",
"488 286 CURVE SMOOTH",
"488 143 LINE SMOOTH",
"488 62 OFFCURVE",
"464 15 OFFCURVE",
"396 15 CURVE SMOOTH",
"326 15 OFFCURVE",
"301 62 OFFCURVE",
"301 129 CURVE SMOOTH",
"301 262 LINE",
"277 262 LINE",
"277 129 LINE SMOOTH",
"277 62 OFFCURVE",
"251 15 OFFCURVE",
"183 15 CURVE SMOOTH",
"114 15 OFFCURVE",
"90 62 OFFCURVE",
"90 143 CURVE SMOOTH",
"90 300 LINE SMOOTH",
"90 349 OFFCURVE",
"108 370 OFFCURVE",
"146 370 CURVE SMOOTH",
"172 370 OFFCURVE",
"198 361 OFFCURVE",
"215 352 CURVE",
"224 375 LINE",
"206 384 OFFCURVE",
"172 395 OFFCURVE",
"144 395 CURVE SMOOTH",
"96 395 OFFCURVE",
"64 364 OFFCURVE",
"64 300 CURVE SMOOTH",
"64 147 LINE SMOOTH",
"64 52 OFFCURVE",
"97 -9 OFFCURVE",
"180 -9 CURVE SMOOTH"
);
}
);
width = 578;
},
{
layerId = "6449CA81-A7C3-4005-93E5-765657812F1B";
paths = (
{
closed = 1;
nodes = (
"263 -9 OFFCURVE",
"296 19 OFFCURVE",
"309 53 CURVE",
"313 53 LINE",
"327 19 OFFCURVE",
"360 -9 OFFCURVE",
"414 -9 CURVE SMOOTH",
"499 -9 OFFCURVE",
"546 57 OFFCURVE",
"546 149 CURVE SMOOTH",
"546 334 LINE SMOOTH",
"546 420 OFFCURVE",
"480 474 OFFCURVE",
"412 514 CURVE SMOOTH",
"345 553 OFFCURVE",
"275 575 OFFCURVE",
"275 600 CURVE SMOOTH",
"275 609 OFFCURVE",
"284 615 OFFCURVE",
"298 615 CURVE SMOOTH",
"308 615 OFFCURVE",
"322 612 OFFCURVE",
"338 606 CURVE SMOOTH",
"532 532 LINE",
"532 601 LINE",
"352 669 LINE SMOOTH",
"329 678 OFFCURVE",
"306 681 OFFCURVE",
"288 681 CURVE SMOOTH",
"236 681 OFFCURVE",
"200 646 OFFCURVE",
"200 604 CURVE SMOOTH",
"200 538 OFFCURVE",
"297 504 OFFCURVE",
"372 455 CURVE SMOOTH",
"421 423 OFFCURVE",
"458 385 OFFCURVE",
"458 327 CURVE SMOOTH",
"458 155 LINE SMOOTH",
"458 100 OFFCURVE",
"438 63 OFFCURVE",
"400 63 CURVE SMOOTH",
"373 63 OFFCURVE",
"349 83 OFFCURVE",
"349 125 CURVE SMOOTH",
"349 302 LINE",
"273 302 LINE",
"273 125 LINE SMOOTH",
"273 83 OFFCURVE",
"251 63 OFFCURVE",
"223 63 CURVE SMOOTH",
"186 63 OFFCURVE",
"165 100 OFFCURVE",
"165 155 CURVE SMOOTH",
"165 344 LINE SMOOTH",
"165 374 OFFCURVE",
"182 384 OFFCURVE",
"203 384 CURVE SMOOTH",
"214 384 OFFCURVE",
"227 381 OFFCURVE",
"239 377 CURVE",
"252 438 LINE",
"229 447 OFFCURVE",
"203 453 OFFCURVE",
"178 453 CURVE SMOOTH",
"125 453 OFFCURVE",
"77 426 OFFCURVE",
"77 351 CURVE SMOOTH",
"77 149 LINE SMOOTH",
"77 57 OFFCURVE",
"125 -9 OFFCURVE",
"209 -9 CURVE SMOOTH"
);
}
);
width = 627;
},
{
layerId = "E5D3352E-10FF-4C03-AD9F-F95B1FD01257";
paths = (
{
closed = 1;
nodes = (
"248 -9 OFFCURVE",
"292 17 OFFCURVE",
"316 46 CURVE",
"318 46 LINE",
"345 15 OFFCURVE",
"389 -9 OFFCURVE",
"453 -9 CURVE SMOOTH",
"563 -9 OFFCURVE",
"608 62 OFFCURVE",
"608 162 CURVE SMOOTH",
"608 232 LINE SMOOTH",
"608 308 OFFCURVE",
"597 372 OFFCURVE",
"447 461 CURVE SMOOTH",
"389 496 OFFCURVE",
"339 515 OFFCURVE",
"339 529 CURVE SMOOTH",
"339 534 OFFCURVE",
"345 535 OFFCURVE",
"350 535 CURVE SMOOTH",
"363 535 OFFCURVE",
"395 524 OFFCURVE",
"408 519 CURVE SMOOTH",
"588 453 LINE",
"588 600 LINE",
"396 665 LINE SMOOTH",
"359 677 OFFCURVE",
"323 681 OFFCURVE",
"300 681 CURVE SMOOTH",
"212 681 OFFCURVE",
"157 635 OFFCURVE",
"157 548 CURVE SMOOTH",
"157 475 OFFCURVE",
"199 443 OFFCURVE",
"273 402 CURVE SMOOTH",
"393 335 OFFCURVE",
"434 309 OFFCURVE",
"434 228 CURVE SMOOTH",
"434 149 LINE SMOOTH",
"434 134 OFFCURVE",
"420 132 OFFCURVE",
"407 132 CURVE SMOOTH",
"396 132 OFFCURVE",
"382 137 OFFCURVE",
"382 153 CURVE SMOOTH",
"382 235 LINE",
"254 235 LINE",
"254 153 LINE SMOOTH",
"254 137 OFFCURVE",
"241 132 OFFCURVE",
"228 132 CURVE SMOOTH",
"217 132 OFFCURVE",
"202 134 OFFCURVE",
"202 149 CURVE SMOOTH",
"202 231 LINE SMOOTH",
"202 253 OFFCURVE",
"219 265 OFFCURVE",
"240 265 CURVE SMOOTH",
"252 265 OFFCURVE",
"265 261 OFFCURVE",
"275 257 CURVE",
"302 359 LINE",
"264 376 OFFCURVE",
"217 389 OFFCURVE",
"170 389 CURVE SMOOTH",
"72 389 OFFCURVE",
"27 331 OFFCURVE",
"27 235 CURVE SMOOTH",
"27 168 LINE SMOOTH",
"27 60 OFFCURVE",
"80 -9 OFFCURVE",
"184 -9 CURVE SMOOTH"
);
}
);
width = 645;
}
);
note = uni0ED6;
unicode = 0ED6;
},
{
glyphname = "seven-lao";
lastChange = "2017-01-30 19:51:08 +0000";
layers = (
{
layerId = "64BC062E-13E4-450B-B24E-D8A474022433";
paths = (
{
closed = 1;
nodes = (
"497 -180 LINE",
"497 343 LINE SMOOTH",
"497 468 OFFCURVE",
"436 523 OFFCURVE",
"336 523 CURVE SMOOTH",
"231 523 OFFCURVE",
"166 464 OFFCURVE",
"134 403 CURVE",
"133 403 LINE",
"123 452 OFFCURVE",
"109 488 OFFCURVE",
"84 523 CURVE",
"64 510 LINE",
"90 474 OFFCURVE",
"112 422 OFFCURVE",
"112 367 CURVE SMOOTH",
"112 80 LINE SMOOTH",
"112 29 OFFCURVE",
"94 14 OFFCURVE",
"60 14 CURVE SMOOTH",
"45 14 OFFCURVE",
"35 17 OFFCURVE",
"22 21 CURVE",
"17 -2 LINE",
"30 -7 OFFCURVE",
"46 -9 OFFCURVE",
"62 -9 CURVE SMOOTH",
"110 -9 OFFCURVE",
"138 18 OFFCURVE",
"138 84 CURVE SMOOTH",
"138 337 LINE SMOOTH",
"138 400 OFFCURVE",
"211 498 OFFCURVE",
"339 498 CURVE SMOOTH",
"445 498 OFFCURVE",
"471 428 OFFCURVE",
"471 344 CURVE SMOOTH",
"471 -180 LINE"
);
}
);
width = 581;
},
{
layerId = "6449CA81-A7C3-4005-93E5-765657812F1B";
paths = (
{
closed = 1;
nodes = (
"527 -180 LINE",
"527 333 LINE SMOOTH",
"527 459 OFFCURVE",
"460 525 OFFCURVE",
"340 525 CURVE SMOOTH",
"276 525 OFFCURVE",
"216 505 OFFCURVE",
"171 449 CURVE",
"168 449 LINE",
"156 478 OFFCURVE",
"133 509 OFFCURVE",
"116 525 CURVE",
"52 476 LINE",
"80 450 OFFCURVE",
"106 410 OFFCURVE",
"106 341 CURVE SMOOTH",
"106 99 LINE SMOOTH",
"106 70 OFFCURVE",
"89 60 OFFCURVE",
"67 60 CURVE SMOOTH",
"57 60 OFFCURVE",
"45 62 OFFCURVE",
"33 66 CURVE",
"20 5 LINE",
"44 -4 OFFCURVE",
"70 -9 OFFCURVE",
"92 -9 CURVE SMOOTH",
"156 -9 OFFCURVE",
"194 32 OFFCURVE",
"194 101 CURVE SMOOTH",
"194 335 LINE SMOOTH",
"194 428 OFFCURVE",
"263 452 OFFCURVE",
"323 452 CURVE SMOOTH",
"407 452 OFFCURVE",
"439 406 OFFCURVE",
"439 326 CURVE SMOOTH",
"439 -180 LINE"
);
}
);
width = 608;
},
{
layerId = "E5D3352E-10FF-4C03-AD9F-F95B1FD01257";
paths = (
{
closed = 1;
nodes = (
"599 -180 LINE",
"599 351 LINE SMOOTH",
"599 449 OFFCURVE",
"546 530 OFFCURVE",
"415 530 CURVE SMOOTH",
"337 530 OFFCURVE",
"280 500 OFFCURVE",
"243 460 CURVE",
"240 460 LINE",
"230 485 OFFCURVE",
"210 507 OFFCURVE",
"186 530 CURVE",
"47 426 LINE",
"100 382 OFFCURVE",
"115 350 OFFCURVE",
"115 284 CURVE SMOOTH",
"115 155 LINE SMOOTH",
"115 139 OFFCURVE",
"108 132 OFFCURVE",
"90 132 CURVE SMOOTH",
"77 132 OFFCURVE",
"65 136 OFFCURVE",
"55 140 CURVE",
"28 21 LINE",
"66 1 OFFCURVE",
"123 -9 OFFCURVE",
"162 -9 CURVE SMOOTH",
"251 -9 OFFCURVE",
"305 42 OFFCURVE",
"305 134 CURVE SMOOTH",
"305 323 LINE SMOOTH",
"305 362 OFFCURVE",
"328 380 OFFCURVE",
"360 380 CURVE SMOOTH",
"394 380 OFFCURVE",
"409 361 OFFCURVE",
"409 322 CURVE SMOOTH",
"409 -180 LINE"
);
}
);
width = 646;
}
);
note = uni0ED7;
unicode = 0ED7;
},
{
glyphname = "eight-lao";
lastChange = "2017-01-30 19:51:08 +0000";
layers = (
{
layerId = "64BC062E-13E4-450B-B24E-D8A474022433";
paths = (
{
closed = 1;
nodes = (
"269 -144 OFFCURVE",
"332 -119 OFFCURVE",
"386 -83 CURVE",
"387 -117 OFFCURVE",
"412 -143 OFFCURVE",
"447 -143 CURVE SMOOTH",
"483 -143 OFFCURVE",
"512 -116 OFFCURVE",
"512 -81 CURVE SMOOTH",
"512 -51 OFFCURVE",
"490 -29 OFFCURVE",
"458 -24 CURVE",
"493 12 OFFCURVE",
"516 46 OFFCURVE",
"516 88 CURVE SMOOTH",
"516 400 LINE SMOOTH",
"516 480 OFFCURVE",
"478 523 OFFCURVE",
"405 523 CURVE SMOOTH",
"344 523 OFFCURVE",
"315 495 OFFCURVE",
"302 462 CURVE",
"300 462 LINE",
"289 496 OFFCURVE",
"261 523 OFFCURVE",
"202 523 CURVE SMOOTH",
"126 523 OFFCURVE",
"64 479 OFFCURVE",
"64 303 CURVE SMOOTH",
"64 151 OFFCURVE",
"110 66 OFFCURVE",
"227 66 CURVE SMOOTH",
"254 66 OFFCURVE",
"280 70 OFFCURVE",
"293 76 CURVE",
"289 98 LINE",
"274 94 OFFCURVE",
"255 90 OFFCURVE",
"231 90 CURVE SMOOTH",
"129 90 OFFCURVE",
"90 162 OFFCURVE",
"90 305 CURVE SMOOTH",
"90 449 OFFCURVE",
"130 498 OFFCURVE",
"202 498 CURVE SMOOTH",
"249 498 OFFCURVE",
"282 476 OFFCURVE",
"290 431 CURVE",
"312 431 LINE",
"323 472 OFFCURVE",
"343 498 OFFCURVE",
"400 498 CURVE SMOOTH",
"459 498 OFFCURVE",
"490 470 OFFCURVE",
"490 402 CURVE SMOOTH",
"490 89 LINE",
"205 -33 LINE SMOOTH",
"178 -44 OFFCURVE",
"155 -63 OFFCURVE",
"155 -94 CURVE SMOOTH",
"155 -124 OFFCURVE",
"176 -144 OFFCURVE",
"219 -144 CURVE SMOOTH"
);
},
{
closed = 1;
nodes = (
"192 -119 OFFCURVE",
"181 -111 OFFCURVE",
"181 -93 CURVE SMOOTH",
"181 -77 OFFCURVE",
"190 -65 OFFCURVE",
"223 -51 CURVE SMOOTH",
"491 63 LINE",
"465 -20 OFFCURVE",
"309 -119 OFFCURVE",
"218 -119 CURVE SMOOTH"
);
},
{
closed = 1;
nodes = (
"426 -123 OFFCURVE",
"409 -105 OFFCURVE",
"409 -83 CURVE SMOOTH",
"409 -62 OFFCURVE",
"425 -45 OFFCURVE",
"449 -45 CURVE SMOOTH",
"472 -45 OFFCURVE",
"491 -62 OFFCURVE",
"491 -83 CURVE SMOOTH",
"491 -104 OFFCURVE",
"472 -123 OFFCURVE",
"449 -123 CURVE SMOOTH"
);
}
);
width = 600;
},
{
guideLines = (
{
position = "{324, -254}";
}
);
layerId = "6449CA81-A7C3-4005-93E5-765657812F1B";
paths = (
{
closed = 1;
nodes = (
"246 -180 OFFCURVE",
"307 -151 OFFCURVE",
"356 -114 CURVE",
"363 -151 OFFCURVE",
"396 -180 OFFCURVE",
"438 -180 CURVE SMOOTH",
"485 -180 OFFCURVE",
"523 -143 OFFCURVE",
"523 -98 CURVE SMOOTH",
"523 -68 OFFCURVE",
"506 -41 OFFCURVE",
"480 -28 CURVE",
"513 3 OFFCURVE",
"539 42 OFFCURVE",
"539 91 CURVE SMOOTH",
"539 366 LINE SMOOTH",
"539 464 OFFCURVE",
"495 525 OFFCURVE",
"411 525 CURVE SMOOTH",
"354 525 OFFCURVE",
"320 499 OFFCURVE",
"305 463 CURVE",
"301 463 LINE",
"284 503 OFFCURVE",
"255 525 OFFCURVE",
"203 525 CURVE SMOOTH",
"112 525 OFFCURVE",
"48 460 OFFCURVE",
"48 290 CURVE SMOOTH",
"48 84 OFFCURVE",
"144 61 OFFCURVE",
"196 61 CURVE SMOOTH",
"223 61 OFFCURVE",
"248 66 OFFCURVE",
"270 75 CURVE",
"257 137 LINE",
"246 133 OFFCURVE",
"235 130 OFFCURVE",
"219 130 CURVE SMOOTH",
"197 130 OFFCURVE",
"136 137 OFFCURVE",
"136 296 CURVE SMOOTH",
"136 408 OFFCURVE",
"167 452 OFFCURVE",
"215 452 CURVE SMOOTH",
"254 452 OFFCURVE",
"268 424 OFFCURVE",
"274 381 CURVE",
"331 381 LINE",
"336 421 OFFCURVE",
"355 452 OFFCURVE",
"393 452 CURVE SMOOTH",
"434 452 OFFCURVE",
"451 417 OFFCURVE",
"451 360 CURVE SMOOTH",
"451 98 LINE",
"254 10 LINE SMOOTH",
"169 -28 OFFCURVE",
"123 -57 OFFCURVE",
"123 -108 CURVE SMOOTH",
"123 -150 OFFCURVE",
"155 -180 OFFCURVE",
"202 -180 CURVE SMOOTH"
);
},
{
closed = 1;
nodes = (
"196 -118 OFFCURVE",
"189 -112 OFFCURVE",
"189 -103 CURVE SMOOTH",
"189 -89 OFFCURVE",
"207 -73 OFFCURVE",
"247 -55 CURVE SMOOTH",
"436 32 LINE",
"403 -32 OFFCURVE",
"259 -118 OFFCURVE",
"209 -118 CURVE SMOOTH"
);
},
{
closed = 1;
nodes = (
"418 -133 OFFCURVE",
"402 -117 OFFCURVE",
"402 -97 CURVE SMOOTH",
"402 -79 OFFCURVE",
"418 -64 OFFCURVE",
"438 -64 CURVE SMOOTH",
"458 -64 OFFCURVE",
"475 -79 OFFCURVE",
"475 -97 CURVE SMOOTH",
"475 -117 OFFCURVE",
"458 -133 OFFCURVE",
"438 -133 CURVE SMOOTH"
);
}
);
width = 620;
},
{
layerId = "E5D3352E-10FF-4C03-AD9F-F95B1FD01257";
paths = (
{
closed = 1;
nodes = (
"256 -180 OFFCURVE",
"334 -150 OFFCURVE",
"393 -104 CURVE",
"400 -149 OFFCURVE",
"438 -180 OFFCURVE",
"493 -180 CURVE SMOOTH",
"556 -180 OFFCURVE",
"598 -140 OFFCURVE",
"598 -82 CURVE SMOOTH",
"598 -35 OFFCURVE",
"571 -3 OFFCURVE",
"537 7 CURVE",
"565 26 OFFCURVE",
"583 68 OFFCURVE",
"583 108 CURVE SMOOTH",
"583 358 LINE SMOOTH",
"583 465 OFFCURVE",
"544 530 OFFCURVE",
"438 530 CURVE SMOOTH",
"382 530 OFFCURVE",
"337 512 OFFCURVE",
"316 482 CURVE",
"314 482 LINE",
"295 511 OFFCURVE",
"255 530 OFFCURVE",
"208 530 CURVE SMOOTH",
"110 530 OFFCURVE",
"27 462 OFFCURVE",
"27 299 CURVE SMOOTH",
"27 166 OFFCURVE",
"87 88 OFFCURVE",
"219 88 CURVE SMOOTH",
"264 88 OFFCURVE",
"293 96 OFFCURVE",
"323 108 CURVE",
"300 235 LINE",
"287 230 OFFCURVE",
"274 226 OFFCURVE",
"261 226 CURVE SMOOTH",
"226 226 OFFCURVE",
"216 254 OFFCURVE",
"216 304 CURVE SMOOTH",
"216 359 OFFCURVE",
"228 380 OFFCURVE",
"251 380 CURVE SMOOTH",
"267 380 OFFCURVE",
"275 372 OFFCURVE",
"277 349 CURVE",
"344 349 LINE",
"347 373 OFFCURVE",
"355 380 OFFCURVE",
"370 380 CURVE SMOOTH",
"386 380 OFFCURVE",
"394 373 OFFCURVE",
"394 351 CURVE SMOOTH",
"394 108 LINE",
"151 -1 LINE SMOOTH",
"107 -21 OFFCURVE",
"82 -55 OFFCURVE",
"82 -99 CURVE SMOOTH",
"82 -153 OFFCURVE",
"120 -180 OFFCURVE",
"189 -180 CURVE SMOOTH"
);
},
{
closed = 1;
nodes = (
"247 -70 OFFCURVE",
"242 -66 OFFCURVE",
"242 -60 CURVE SMOOTH",
"242 -56 OFFCURVE",
"246 -53 OFFCURVE",
"256 -49 CURVE SMOOTH",
"393 9 LINE",
"370 -30 OFFCURVE",
"286 -70 OFFCURVE",
"254 -70 CURVE SMOOTH"
);
},
{
closed = 1;
nodes = (
"475 -100 OFFCURVE",
"463 -88 OFFCURVE",
"463 -73 CURVE SMOOTH",
"463 -60 OFFCURVE",
"475 -49 OFFCURVE",
"490 -49 CURVE SMOOTH",
"505 -49 OFFCURVE",
"518 -60 OFFCURVE",
"518 -73 CURVE SMOOTH",
"518 -88 OFFCURVE",
"505 -100 OFFCURVE",
"490 -100 CURVE SMOOTH"
);
}
);
width = 630;
}
);
note = uni0ED8;
unicode = 0ED8;
},
{
glyphname = "nine-lao";
lastChange = "2017-01-30 19:51:08 +0000";
layers = (
{
layerId = "64BC062E-13E4-450B-B24E-D8A474022433";
paths = (
{
closed = 1;
nodes = (
"237 -9 OFFCURVE",
"258 -7 OFFCURVE",
"273 -1 CURVE",
"267 22 LINE",
"257 18 OFFCURVE",
"238 15 OFFCURVE",
"220 15 CURVE SMOOTH",
"115 15 OFFCURVE",
"92 117 OFFCURVE",
"92 251 CURVE SMOOTH",
"92 448 OFFCURVE",
"141 498 OFFCURVE",
"236 498 CURVE SMOOTH",
"329 498 OFFCURVE",
"355 451 OFFCURVE",
"355 374 CURVE SMOOTH",
"355 145 LINE SMOOTH",
"355 55 OFFCURVE",
"398 -9 OFFCURVE",
"511 -9 CURVE SMOOTH",
"617 -9 OFFCURVE",
"662 46 OFFCURVE",
"662 145 CURVE SMOOTH",
"662 515 LINE",
"636 515 LINE",
"636 148 LINE SMOOTH",
"636 63 OFFCURVE",
"595 15 OFFCURVE",
"508 15 CURVE SMOOTH",
"421 15 OFFCURVE",
"381 63 OFFCURVE",
"381 148 CURVE SMOOTH",
"381 377 LINE SMOOTH",
"381 477 OFFCURVE",
"332 523 OFFCURVE",
"234 523 CURVE SMOOTH",
"135 523 OFFCURVE",
"64 475 OFFCURVE",
"64 253 CURVE SMOOTH",
"64 84 OFFCURVE",
"105 -9 OFFCURVE",
"217 -9 CURVE SMOOTH"
);
}
);
width = 746;
},
{
layerId = "6449CA81-A7C3-4005-93E5-765657812F1B";
paths = (
{
closed = 1;
nodes = (
"240 -9 OFFCURVE",
"267 -4 OFFCURVE",
"285 4 CURVE",
"271 66 LINE",
"259 62 OFFCURVE",
"248 60 OFFCURVE",
"236 60 CURVE SMOOTH",
"169 60 OFFCURVE",
"151 117 OFFCURVE",
"151 240 CURVE SMOOTH",
"151 386 OFFCURVE",
"176 452 OFFCURVE",
"258 452 CURVE SMOOTH",
"315 452 OFFCURVE",
"337 420 OFFCURVE",
"337 351 CURVE SMOOTH",
"337 162 LINE SMOOTH",
"337 57 OFFCURVE",
"391 -9 OFFCURVE",
"499 -9 CURVE SMOOTH",
"608 -9 OFFCURVE",
"661 57 OFFCURVE",
"661 162 CURVE SMOOTH",
"661 515 LINE",
"575 515 LINE",
"575 157 LINE SMOOTH",
"575 99 OFFCURVE",
"555 63 OFFCURVE",
"498 63 CURVE SMOOTH",
"442 63 OFFCURVE",
"423 99 OFFCURVE",
"423 157 CURVE SMOOTH",
"423 355 LINE SMOOTH",
"423 456 OFFCURVE",
"369 525 OFFCURVE",
"255 525 CURVE SMOOTH",
"121 525 OFFCURVE",
"63 427 OFFCURVE",
"63 242 CURVE SMOOTH",
"63 69 OFFCURVE",
"114 -9 OFFCURVE",
"213 -9 CURVE SMOOTH"
);
}
);
width = 742;
},
{
layerId = "E5D3352E-10FF-4C03-AD9F-F95B1FD01257";
paths = (
{
closed = 1;
nodes = (
"240 -9 OFFCURVE",
"270 -4 OFFCURVE",
"303 9 CURVE",
"277 142 LINE",
"266 138 OFFCURVE",
"255 137 OFFCURVE",
"249 137 CURVE SMOOTH",
"226 137 OFFCURVE",
"214 152 OFFCURVE",
"214 249 CURVE SMOOTH",
"214 371 OFFCURVE",
"230 380 OFFCURVE",
"256 380 CURVE SMOOTH",
"280 380 OFFCURVE",
"292 370 OFFCURVE",
"292 338 CURVE SMOOTH",
"292 226 LINE SMOOTH",
"292 82 OFFCURVE",
"344 -9 OFFCURVE",
"514 -9 CURVE SMOOTH",
"685 -9 OFFCURVE",
"737 84 OFFCURVE",
"737 226 CURVE SMOOTH",
"737 520 LINE",
"548 520 LINE",
"548 190 LINE SMOOTH",
"548 155 OFFCURVE",
"540 140 OFFCURVE",
"513 140 CURVE SMOOTH",
"486 140 OFFCURVE",
"475 155 OFFCURVE",
"475 190 CURVE SMOOTH",
"475 310 LINE SMOOTH",
"475 454 OFFCURVE",
"427 530 OFFCURVE",
"258 530 CURVE SMOOTH",
"98 530 OFFCURVE",
"27 464 OFFCURVE",
"27 241 CURVE SMOOTH",
"27 94 OFFCURVE",
"59 -9 OFFCURVE",
"205 -9 CURVE SMOOTH"
);
}
);
width = 784;
}
);
note = uni0ED9;
unicode = 0ED9;
},
{
glyphname = "koLa-lao";
lastChange = "2017-01-30 19:51:08 +0000";
layers = (
{
layerId = "64BC062E-13E4-450B-B24E-D8A474022433";
paths = (
{
closed = 1;
nodes = (
"483 -139 LINE",
"483 428 LINE SMOOTH",
"483 490 OFFCURVE",
"449 523 OFFCURVE",
"393 523 CURVE SMOOTH",
"347 523 OFFCURVE",
"315 499 OFFCURVE",
"292 457 CURVE",
"291 457 LINE",
"269 499 OFFCURVE",
"236 523 OFFCURVE",
"193 523 CURVE SMOOTH",
"135 523 OFFCURVE",
"99 478 OFFCURVE",
"99 408 CURVE SMOOTH",
"99 336 OFFCURVE",
"136 293 OFFCURVE",
"211 293 CURVE SMOOTH",
"230 293 OFFCURVE",
"251 296 OFFCURVE",
"265 302 CURVE",
"259 325 LINE",
"250 321 OFFCURVE",
"231 318 OFFCURVE",
"213 318 CURVE SMOOTH",
"156 318 OFFCURVE",
"127 347 OFFCURVE",
"127 409 CURVE SMOOTH",
"127 465 OFFCURVE",
"151 498 OFFCURVE",
"195 498 CURVE SMOOTH",
"237 498 OFFCURVE",
"262 470 OFFCURVE",
"278 436 CURVE",
"305 436 LINE",
"325 474 OFFCURVE",
"347 498 OFFCURVE",
"392 498 CURVE SMOOTH",
"443 498 OFFCURVE",
"457 470 OFFCURVE",
"457 424 CURVE SMOOTH",
"457 -139 LINE"
);
}
);
width = 590;
},
{
layerId = "6449CA81-A7C3-4005-93E5-765657812F1B";
paths = (
{
closed = 1;
nodes = (
"522 -180 LINE",
"522 410 LINE SMOOTH",
"522 485 OFFCURVE",
"473 525 OFFCURVE",
"406 525 CURVE SMOOTH",
"355 525 OFFCURVE",
"313 503 OFFCURVE",
"289 466 CURVE",
"286 466 LINE",
"263 500 OFFCURVE",
"223 525 OFFCURVE",
"168 525 CURVE SMOOTH",
"93 525 OFFCURVE",
"43 477 OFFCURVE",
"43 392 CURVE SMOOTH",
"43 302 OFFCURVE",
"100 257 OFFCURVE",
"169 257 CURVE SMOOTH",
"194 257 OFFCURVE",
"220 263 OFFCURVE",
"239 271 CURVE",
"226 333 LINE",
"214 329 OFFCURVE",
"202 327 OFFCURVE",
"190 327 CURVE SMOOTH",
"155 327 OFFCURVE",
"131 343 OFFCURVE",
"131 390 CURVE SMOOTH",
"131 433 OFFCURVE",
"151 452 OFFCURVE",
"188 452 CURVE SMOOTH",
"228 452 OFFCURVE",
"252 428 OFFCURVE",
"272 396 CURVE",
"303 396 LINE",
"322 426 OFFCURVE",
"348 452 OFFCURVE",
"386 452 CURVE SMOOTH",
"421 452 OFFCURVE",
"434 432 OFFCURVE",
"434 400 CURVE SMOOTH",
"434 -180 LINE"
);
}
);
width = 621;
},
{
layerId = "E5D3352E-10FF-4C03-AD9F-F95B1FD01257";
paths = (
{
closed = 1;
nodes = (
"556 -180 LINE",
"556 379 LINE SMOOTH",
"556 473 OFFCURVE",
"505 530 OFFCURVE",
"412 530 CURVE SMOOTH",
"351 530 OFFCURVE",
"305 507 OFFCURVE",
"283 470 CURVE",
"281 470 LINE",
"260 507 OFFCURVE",
"226 530 OFFCURVE",
"174 530 CURVE SMOOTH",
"80 530 OFFCURVE",
"24 455 OFFCURVE",
"24 341 CURVE SMOOTH",
"24 206 OFFCURVE",
"102 146 OFFCURVE",
"200 146 CURVE SMOOTH",
"242 146 OFFCURVE",
"290 157 OFFCURVE",
"318 175 CURVE",
"283 297 LINE",
"270 294 OFFCURVE",
"254 290 OFFCURVE",
"237 290 CURVE SMOOTH",
"209 290 OFFCURVE",
"192 300 OFFCURVE",
"192 341 CURVE SMOOTH",
"192 369 OFFCURVE",
"200 378 OFFCURVE",
"214 378 CURVE SMOOTH",
"234 378 OFFCURVE",
"238 355 OFFCURVE",
"238 330 CURVE",
"319 330 LINE",
"319 358 OFFCURVE",
"325 378 OFFCURVE",
"345 378 CURVE SMOOTH",
"360 378 OFFCURVE",
"365 367 OFFCURVE",
"365 351 CURVE SMOOTH",
"365 -180 LINE"
);
}
);
width = 625;
}
);
note = uni0EC6;
unicode = 0EC6;
},
{
glyphname = "ellipsis-lao";
lastChange = "2017-01-30 19:51:08 +0000";
layers = (
{
layerId = "64BC062E-13E4-450B-B24E-D8A474022433";
paths = (
{
closed = 1;
nodes = (
"411 -89 LINE",
"411 515 LINE",
"385 515 LINE",
"385 512 LINE SMOOTH",
"385 430 OFFCURVE",
"334 381 OFFCURVE",
"227 381 CURVE SMOOTH",
"147 381 OFFCURVE",
"105 426 OFFCURVE",
"105 506 CURVE SMOOTH",
"105 515 LINE",
"79 515 LINE",
"79 506 LINE SMOOTH",
"79 410 OFFCURVE",
"131 357 OFFCURVE",
"231 357 CURVE SMOOTH",
"292 357 OFFCURVE",
"353 379 OFFCURVE",
"383 425 CURVE",
"385 425 LINE",
"385 -89 LINE"
);
}
);
width = 495;
},
{
layerId = "6449CA81-A7C3-4005-93E5-765657812F1B";
paths = (
{
closed = 1;
nodes = (
"491 -111 LINE",
"491 515 LINE",
"412 515 LINE",
"412 506 LINE SMOOTH",
"412 436 OFFCURVE",
"347 401 OFFCURVE",
"267 401 CURVE SMOOTH",
"194 401 OFFCURVE",
"156 428 OFFCURVE",
"156 498 CURVE SMOOTH",
"156 515 LINE",
"68 515 LINE",
"68 498 LINE SMOOTH",
"68 381 OFFCURVE",
"135 329 OFFCURVE",
"250 329 CURVE SMOOTH",
"326 329 OFFCURVE",
"375 351 OFFCURVE",
"398 374 CURVE",
"403 374 LINE",
"403 -111 LINE"
);
}
);
width = 573;
},
{
layerId = "E5D3352E-10FF-4C03-AD9F-F95B1FD01257";
paths = (
{
closed = 1;
nodes = (
"529 -111 LINE",
"529 520 LINE",
"356 520 LINE",
"356 495 LINE SMOOTH",
"356 443 OFFCURVE",
"332 421 OFFCURVE",
"289 421 CURVE SMOOTH",
"246 421 OFFCURVE",
"225 443 OFFCURVE",
"225 496 CURVE SMOOTH",
"225 520 LINE",
"34 520 LINE",
"34 482 LINE SMOOTH",
"34 331 OFFCURVE",
"109 270 OFFCURVE",
"215 270 CURVE SMOOTH",
"267 270 OFFCURVE",
"308 279 OFFCURVE",
"334 299 CURVE",
"337 299 LINE",
"337 -111 LINE"
);
}
);
width = 573;
}
);
note = uni0EAF;
unicode = 0EAF;
},
{
glyphname = kip;
lastChange = "2017-01-30 19:51:08 +0000";
layers = (
{
layerId = "64BC062E-13E4-450B-B24E-D8A474022433";
paths = (
{
closed = 1;
nodes = (
"129 0 LINE",
"129 323 LINE",
"174 368 LINE",
"484 0 LINE",
"518 0 LINE",
"211 369 LINE",
"495 369 LINE",
"495 394 LINE",
"200 394 LINE",
"512 714 LINE",
"474 714 LINE",
"162 394 LINE",
"129 394 LINE",
"129 714 LINE",
"103 714 LINE",
"103 394 LINE",
"22 394 LINE",
"22 369 LINE",
"103 369 LINE",
"103 0 LINE"
);
}
);
width = 572;
},
{
layerId = "6449CA81-A7C3-4005-93E5-765657812F1B";
paths = (
{
closed = 1;
nodes = (
"188 0 LINE",
"188 272 LINE",
"244 334 LINE",
"472 0 LINE",
"579 0 LINE",
"342 334 LINE",
"520 334 LINE",
"520 400 LINE",
"314 400 LINE",
"568 714 LINE",
"464 714 LINE",
"214 400 LINE",
"188 400 LINE",
"188 714 LINE",
"97 714 LINE",
"97 400 LINE",
"10 400 LINE",
"10 334 LINE",
"97 334 LINE",
"97 0 LINE"
);
}
);
width = 572;
},
{
layerId = "E5D3352E-10FF-4C03-AD9F-F95B1FD01257";
paths = (
{
closed = 1;
nodes = (
"243 0 LINE",
"243 254 LINE",
"264 283 LINE",
"370 0 LINE",
"572 0 LINE",
"442 283 LINE",
"536 283 LINE",
"536 400 LINE",
"416 400 LINE",
"577 714 LINE",
"384 714 LINE",
"249 400 LINE",
"243 400 LINE",
"243 714 LINE",
"52 714 LINE",
"52 400 LINE",
"3 400 LINE",
"3 283 LINE",
"52 283 LINE",
"52 0 LINE"
);
}
);
width = 572;
}
);
note = uni20AD;
unicode = 20AD;
},
{
glyphname = "maiKanVowel-lao";
lastChange = "2017-01-30 19:51:08 +0000";
layers = (
{
anchors = (
{
name = _top;
position = "{-84, 504}";
},
{
name = top;
position = "{-174, 716}";
}
);
layerId = "64BC062E-13E4-450B-B24E-D8A474022433";
paths = (
{
closed = 1;
nodes = (
"-84 608 LINE",
"-84 632 LINE",
"-355 632 LINE SMOOTH",
"-387 632 OFFCURVE",
"-397 643 OFFCURVE",
"-397 663 CURVE SMOOTH",
"-397 676 OFFCURVE",
"-393 691 OFFCURVE",
"-388 698 CURVE",
"-413 698 LINE",
"-418 688 OFFCURVE",
"-422 673 OFFCURVE",
"-422 659 CURVE SMOOTH",
"-422 630 OFFCURVE",
"-403 608 OFFCURVE",
"-358 608 CURVE SMOOTH"
);
}
);
width = 0;
},
{
anchors = (
{
name = _top;
position = "{-81, 504}";
},
{
name = top;
position = "{-162, 745}";
}
);
layerId = "6449CA81-A7C3-4005-93E5-765657812F1B";
paths = (
{
closed = 1;
nodes = (
"-81 599 LINE",
"-81 667 LINE",
"-348 667 LINE SMOOTH",
"-379 667 OFFCURVE",
"-393 681 OFFCURVE",
"-393 702 CURVE SMOOTH",
"-393 713 OFFCURVE",
"-389 726 OFFCURVE",
"-383 738 CURVE",
"-459 738 LINE",
"-469 723 OFFCURVE",
"-475 700 OFFCURVE",
"-475 677 CURVE SMOOTH",
"-475 624 OFFCURVE",
"-442 599 OFFCURVE",
"-371 599 CURVE SMOOTH"
);
}
);
width = 0;
},
{
anchors = (
{
name = _top;
position = "{-44, 504}";
},
{
name = top;
position = "{-139, 802}";
}
);
layerId = "E5D3352E-10FF-4C03-AD9F-F95B1FD01257";
paths = (
{
closed = 1;
nodes = (
"-44 599 LINE",
"-44 713 LINE",
"-312 713 LINE SMOOTH",
"-335 713 OFFCURVE",
"-345 721 OFFCURVE",
"-345 743 CURVE SMOOTH",
"-345 754 OFFCURVE",
"-342 768 OFFCURVE",
"-337 778 CURVE",
"-469 778 LINE",
"-481 754 OFFCURVE",
"-489 710 OFFCURVE",
"-489 685 CURVE SMOOTH",
"-489 632 OFFCURVE",
"-455 599 OFFCURVE",
"-380 599 CURVE SMOOTH"
);
}
);
width = 0;
}
);
note = uni0EB1;
unicode = 0EB1;
},
{
glyphname = "iVowel-lao";
lastChange = "2017-01-30 19:51:08 +0000";
layers = (
{
anchors = (
{
name = _top;
position = "{-84, 504}";
},
{
name = top;
position = "{-91, 788}";
}
);
layerId = "64BC062E-13E4-450B-B24E-D8A474022433";
paths = (
{
closed = 1;
nodes = (
"-339 612 LINE",
"-382 612 OFFCURVE",
"-442 630 OFFCURVE",
"-442 684 CURVE SMOOTH",
"-442 739 OFFCURVE",
"-374 765 OFFCURVE",
"-280 765 CURVE SMOOTH",
"-186 765 OFFCURVE",
"-118 739 OFFCURVE",
"-118 684 CURVE SMOOTH",
"-118 630 OFFCURVE",
"-178 612 OFFCURVE",
"-220 612 CURVE",
"-214 589 LINE",
"-155 589 OFFCURVE",
"-91 620 OFFCURVE",
"-91 683 CURVE SMOOTH",
"-91 753 OFFCURVE",
"-170 788 OFFCURVE",
"-280 788 CURVE SMOOTH",
"-390 788 OFFCURVE",
"-469 753 OFFCURVE",
"-469 683 CURVE SMOOTH",
"-469 620 OFFCURVE",
"-405 589 OFFCURVE",
"-345 589 CURVE"
);
}
);
width = 0;
},
{
anchors = (
{
name = _top;
position = "{-81, 504}";
},
{
name = top;
position = "{-81, 809}";
}
);
layerId = "6449CA81-A7C3-4005-93E5-765657812F1B";
paths = (
{
closed = 1;
nodes = (
"-366 638 LINE",
"-370 639 OFFCURVE",
"-435 646 OFFCURVE",
"-435 689 CURVE SMOOTH",
"-435 726 OFFCURVE",
"-389 749 OFFCURVE",
"-302 749 CURVE SMOOTH",
"-215 749 OFFCURVE",
"-169 726 OFFCURVE",
"-169 689 CURVE SMOOTH",
"-169 646 OFFCURVE",
"-233 639 OFFCURVE",
"-239 638 CURVE",
"-225 589 LINE",
"-157 589 OFFCURVE",
"-87 622 OFFCURVE",
"-87 688 CURVE SMOOTH",
"-87 766 OFFCURVE",
"-189 809 OFFCURVE",
"-302 809 CURVE SMOOTH",
"-415 809 OFFCURVE",
"-517 766 OFFCURVE",
"-517 688 CURVE SMOOTH",
"-517 623 OFFCURVE",
"-450 589 OFFCURVE",
"-379 589 CURVE"
);
}
);
width = 0;
},
{
anchors = (
{
name = _top;
position = "{-44, 504}";
},
{
name = top;
position = "{-44, 820}";
}
);
layerId = "E5D3352E-10FF-4C03-AD9F-F95B1FD01257";
paths = (
{
closed = 1;
nodes = (
"-330 653 LINE",
"-371 655 OFFCURVE",
"-393 673 OFFCURVE",
"-393 692 CURVE SMOOTH",
"-393 720 OFFCURVE",
"-355 739 OFFCURVE",
"-288 739 CURVE SMOOTH",
"-221 739 OFFCURVE",
"-182 720 OFFCURVE",
"-182 692 CURVE SMOOTH",
"-182 673 OFFCURVE",
"-204 655 OFFCURVE",
"-246 653 CURVE",
"-227 589 LINE",
"-125 589 OFFCURVE",
"-44 619 OFFCURVE",
"-44 701 CURVE SMOOTH",
"-44 787 OFFCURVE",
"-136 820 OFFCURVE",
"-288 820 CURVE SMOOTH",
"-440 820 OFFCURVE",
"-532 787 OFFCURVE",
"-532 701 CURVE SMOOTH",
"-532 619 OFFCURVE",
"-451 589 OFFCURVE",
"-349 589 CURVE"
);
}
);
width = 0;
}
);
note = uni0EB4;
unicode = 0EB4;
},
{
glyphname = "iiVowel-lao";
lastChange = "2017-01-30 19:51:08 +0000";
layers = (
{
anchors = (
{
name = _top;
position = "{-84, 504}";
},
{
name = top;
position = "{-100, 788}";
}
);
layerId = "64BC062E-13E4-450B-B24E-D8A474022433";
paths = (
{
closed = 1;
nodes = (
"-339 612 LINE",
"-382 612 OFFCURVE",
"-442 630 OFFCURVE",
"-442 684 CURVE SMOOTH",
"-442 739 OFFCURVE",
"-374 765 OFFCURVE",
"-285 765 CURVE SMOOTH",
"-195 765 OFFCURVE",
"-127 739 OFFCURVE",
"-127 687 CURVE SMOOTH",
"-127 632 OFFCURVE",
"-203 611 OFFCURVE",
"-244 611 CURVE",
"-238 589 LINE",
"-75 589 LINE",
"-75 611 LINE",
"-122 611 LINE SMOOTH",
"-136 611 OFFCURVE",
"-161 609 OFFCURVE",
"-180 605 CURVE",
"-180 607 LINE",
"-139 620 OFFCURVE",
"-100 640 OFFCURVE",
"-100 686 CURVE SMOOTH",
"-100 754 OFFCURVE",
"-181 788 OFFCURVE",
"-285 788 CURVE SMOOTH",
"-388 788 OFFCURVE",
"-469 754 OFFCURVE",
"-469 683 CURVE SMOOTH",
"-469 620 OFFCURVE",
"-405 589 OFFCURVE",
"-345 589 CURVE"
);
}
);
width = 0;
},
{
anchors = (
{
name = _top;
position = "{-81, 504}";
},
{
name = top;
position = "{-81, 809}";
}
);
layerId = "6449CA81-A7C3-4005-93E5-765657812F1B";
paths = (
{
closed = 1;
nodes = (
"-366 638 LINE",
"-370 639 OFFCURVE",
"-435 646 OFFCURVE",
"-435 689 CURVE SMOOTH",
"-435 726 OFFCURVE",
"-389 749 OFFCURVE",
"-302 749 CURVE SMOOTH",
"-215 749 OFFCURVE",
"-169 726 OFFCURVE",
"-169 689 CURVE SMOOTH",
"-169 646 OFFCURVE",
"-233 639 OFFCURVE",
"-239 638 CURVE",
"-225 589 LINE",
"-35 589 LINE",
"-35 649 LINE",
"-69 649 LINE SMOOTH",
"-81 649 OFFCURVE",
"-104 648 OFFCURVE",
"-116 644 CURVE",
"-116 646 LINE",
"-95 659 OFFCURVE",
"-87 673 OFFCURVE",
"-87 693 CURVE SMOOTH",
"-87 764 OFFCURVE",
"-187 809 OFFCURVE",
"-303 809 CURVE SMOOTH",
"-415 809 OFFCURVE",
"-517 766 OFFCURVE",
"-517 688 CURVE SMOOTH",
"-517 623 OFFCURVE",
"-450 589 OFFCURVE",
"-379 589 CURVE"
);
}
);
width = 0;
},
{
anchors = (
{
name = _top;
position = "{-44, 504}";
},
{
name = top;
position = "{-44, 820}";
}
);
layerId = "E5D3352E-10FF-4C03-AD9F-F95B1FD01257";
paths = (
{
closed = 1;
nodes = (
"-330 653 LINE",
"-371 655 OFFCURVE",
"-393 673 OFFCURVE",
"-393 692 CURVE SMOOTH",
"-393 720 OFFCURVE",
"-353 739 OFFCURVE",
"-287 739 CURVE SMOOTH",
"-218 739 OFFCURVE",
"-180 720 OFFCURVE",
"-180 692 CURVE SMOOTH",
"-180 673 OFFCURVE",
"-202 655 OFFCURVE",
"-244 653 CURVE",
"-225 589 LINE",
"-2 589 LINE",
"-2 689 LINE",
"-7 689 LINE SMOOTH",
"-32 689 OFFCURVE",
"-59 685 OFFCURVE",
"-82 677 CURVE",
"-82 679 LINE",
"-65 688 OFFCURVE",
"-55 706 OFFCURVE",
"-55 727 CURVE SMOOTH",
"-55 783 OFFCURVE",
"-130 820 OFFCURVE",
"-290 820 CURVE SMOOTH",
"-439 820 OFFCURVE",
"-532 787 OFFCURVE",
"-532 702 CURVE SMOOTH",
"-532 620 OFFCURVE",
"-451 589 OFFCURVE",
"-349 589 CURVE"
);
}
);
width = 0;
}
);
note = uni0EB5;
unicode = 0EB5;
},
{
glyphname = "euVowel-lao";
lastChange = "2017-01-30 19:51:08 +0000";
layers = (
{
anchors = (
{
name = _top;
position = "{-84, 504}";
},
{
name = top;
position = "{-91, 788}";
}
);
layerId = "64BC062E-13E4-450B-B24E-D8A474022433";
paths = (
{
closed = 1;
nodes = (
"-339 612 LINE",
"-382 612 OFFCURVE",
"-442 630 OFFCURVE",
"-442 684 CURVE SMOOTH",
"-442 739 OFFCURVE",
"-374 765 OFFCURVE",
"-280 765 CURVE SMOOTH",
"-186 765 OFFCURVE",
"-118 739 OFFCURVE",
"-118 684 CURVE SMOOTH",
"-118 630 OFFCURVE",
"-178 612 OFFCURVE",
"-220 612 CURVE",
"-214 589 LINE",
"-155 589 OFFCURVE",
"-91 620 OFFCURVE",
"-91 683 CURVE SMOOTH",
"-91 753 OFFCURVE",
"-170 788 OFFCURVE",
"-280 788 CURVE SMOOTH",
"-390 788 OFFCURVE",
"-469 753 OFFCURVE",
"-469 683 CURVE SMOOTH",
"-469 620 OFFCURVE",
"-405 589 OFFCURVE",
"-345 589 CURVE"
);
},
{
closed = 1;
nodes = (
"-264 656 OFFCURVE",
"-252 665 OFFCURVE",
"-252 681 CURVE SMOOTH",
"-252 696 OFFCURVE",
"-264 706 OFFCURVE",
"-280 706 CURVE SMOOTH",
"-296 706 OFFCURVE",
"-309 696 OFFCURVE",
"-309 681 CURVE SMOOTH",
"-309 665 OFFCURVE",
"-296 656 OFFCURVE",
"-280 656 CURVE SMOOTH"
);
}
);
width = 0;
},
{
anchors = (
{
name = _top;
position = "{-81, 504}";
},
{
name = top;
position = "{-81, 809}";
}
);
layerId = "6449CA81-A7C3-4005-93E5-765657812F1B";
paths = (
{
closed = 1;
nodes = (
"-366 638 LINE",
"-370 639 OFFCURVE",
"-435 646 OFFCURVE",
"-435 689 CURVE SMOOTH",
"-435 726 OFFCURVE",
"-389 749 OFFCURVE",
"-302 749 CURVE SMOOTH",
"-215 749 OFFCURVE",
"-169 726 OFFCURVE",
"-169 689 CURVE SMOOTH",
"-169 646 OFFCURVE",
"-233 639 OFFCURVE",
"-239 638 CURVE",
"-225 589 LINE",
"-157 589 OFFCURVE",
"-87 622 OFFCURVE",
"-87 688 CURVE SMOOTH",
"-87 766 OFFCURVE",
"-189 809 OFFCURVE",
"-302 809 CURVE SMOOTH",
"-415 809 OFFCURVE",
"-517 766 OFFCURVE",
"-517 688 CURVE SMOOTH",
"-517 623 OFFCURVE",
"-450 589 OFFCURVE",
"-379 589 CURVE"
);
},
{
closed = 1;
nodes = (
"-277 645 OFFCURVE",
"-260 660 OFFCURVE",
"-260 685 CURVE SMOOTH",
"-260 709 OFFCURVE",
"-277 725 OFFCURVE",
"-302 725 CURVE SMOOTH",
"-328 725 OFFCURVE",
"-344 709 OFFCURVE",
"-344 685 CURVE SMOOTH",
"-344 660 OFFCURVE",
"-328 645 OFFCURVE",
"-302 645 CURVE SMOOTH"
);
}
);
width = 0;
},
{
anchors = (
{
name = _top;
position = "{-44, 504}";
},
{
name = top;
position = "{-44, 820}";
}
);
layerId = "E5D3352E-10FF-4C03-AD9F-F95B1FD01257";
paths = (
{
closed = 1;
nodes = (
"-330 653 LINE",
"-371 655 OFFCURVE",
"-393 673 OFFCURVE",
"-393 692 CURVE SMOOTH",
"-393 720 OFFCURVE",
"-355 739 OFFCURVE",
"-288 739 CURVE SMOOTH",
"-221 739 OFFCURVE",
"-182 720 OFFCURVE",
"-182 692 CURVE SMOOTH",
"-182 673 OFFCURVE",
"-204 655 OFFCURVE",
"-246 653 CURVE",
"-227 589 LINE",
"-125 589 OFFCURVE",
"-44 619 OFFCURVE",
"-44 701 CURVE SMOOTH",
"-44 787 OFFCURVE",
"-136 820 OFFCURVE",
"-288 820 CURVE SMOOTH",
"-440 820 OFFCURVE",
"-532 787 OFFCURVE",
"-532 701 CURVE SMOOTH",
"-532 619 OFFCURVE",
"-451 589 OFFCURVE",
"-349 589 CURVE"
);
},
{
closed = 1;
nodes = (
"-261 654 OFFCURVE",
"-246 668 OFFCURVE",
"-246 692 CURVE SMOOTH",
"-246 715 OFFCURVE",
"-261 729 OFFCURVE",
"-288 729 CURVE SMOOTH",
"-315 729 OFFCURVE",
"-330 715 OFFCURVE",
"-330 692 CURVE SMOOTH",
"-330 668 OFFCURVE",
"-315 654 OFFCURVE",
"-288 654 CURVE SMOOTH"
);
}
);
width = 0;
}
);
note = uni0EB6;
unicode = 0EB6;
},
{
glyphname = "euuVowel-lao";
lastChange = "2017-01-30 19:51:08 +0000";
layers = (
{
anchors = (
{
name = _top;
position = "{-84, 504}";
},
{
name = top;
position = "{-110, 788}";
}
);
layerId = "64BC062E-13E4-450B-B24E-D8A474022433";
paths = (
{
closed = 1;
nodes = (
"-339 612 LINE",
"-383 612 OFFCURVE",
"-442 630 OFFCURVE",
"-442 684 CURVE SMOOTH",
"-442 738 OFFCURVE",
"-380 765 OFFCURVE",
"-290 765 CURVE SMOOTH",
"-201 765 OFFCURVE",
"-137 739 OFFCURVE",
"-137 688 CURVE SMOOTH",
"-137 631 OFFCURVE",
"-213 611 OFFCURVE",
"-254 611 CURVE",
"-248 589 LINE",
"-84 589 LINE",
"-84 611 LINE",
"-132 611 LINE SMOOTH",
"-146 611 OFFCURVE",
"-171 609 OFFCURVE",
"-190 605 CURVE",
"-190 607 LINE",
"-153 619 OFFCURVE",
"-110 637 OFFCURVE",
"-110 687 CURVE SMOOTH",
"-110 754 OFFCURVE",
"-186 788 OFFCURVE",
"-289 788 CURVE SMOOTH",
"-394 788 OFFCURVE",
"-469 753 OFFCURVE",
"-469 684 CURVE SMOOTH",
"-469 620 OFFCURVE",
"-405 589 OFFCURVE",
"-345 589 CURVE"
);
},
{
closed = 1;
nodes = (
"-274 656 OFFCURVE",
"-262 665 OFFCURVE",
"-262 681 CURVE SMOOTH",
"-262 696 OFFCURVE",
"-274 706 OFFCURVE",
"-290 706 CURVE SMOOTH",
"-306 706 OFFCURVE",
"-318 696 OFFCURVE",
"-318 681 CURVE SMOOTH",
"-318 665 OFFCURVE",
"-306 656 OFFCURVE",
"-290 656 CURVE SMOOTH"
);
}
);
width = 0;
},
{
anchors = (
{
name = _top;
position = "{-81, 504}";
},
{
name = top;
position = "{-81, 809}";
}
);
layerId = "6449CA81-A7C3-4005-93E5-765657812F1B";
paths = (
{
closed = 1;
nodes = (
"-366 638 LINE",
"-370 639 OFFCURVE",
"-435 646 OFFCURVE",
"-435 689 CURVE SMOOTH",
"-435 726 OFFCURVE",
"-389 749 OFFCURVE",
"-302 749 CURVE SMOOTH",
"-215 749 OFFCURVE",
"-169 726 OFFCURVE",
"-169 689 CURVE SMOOTH",
"-169 646 OFFCURVE",
"-233 639 OFFCURVE",
"-239 638 CURVE",
"-225 589 LINE",
"-35 589 LINE",
"-35 649 LINE",
"-69 649 LINE SMOOTH",
"-81 649 OFFCURVE",
"-104 648 OFFCURVE",
"-116 644 CURVE",
"-116 646 LINE",
"-95 659 OFFCURVE",
"-87 673 OFFCURVE",
"-87 693 CURVE SMOOTH",
"-87 764 OFFCURVE",
"-187 809 OFFCURVE",
"-303 809 CURVE SMOOTH",
"-415 809 OFFCURVE",
"-517 766 OFFCURVE",
"-517 688 CURVE SMOOTH",
"-517 623 OFFCURVE",
"-450 589 OFFCURVE",
"-379 589 CURVE"
);
},
{
closed = 1;
nodes = (
"-277 645 OFFCURVE",
"-260 660 OFFCURVE",
"-260 685 CURVE SMOOTH",
"-260 709 OFFCURVE",
"-277 725 OFFCURVE",
"-302 725 CURVE SMOOTH",
"-328 725 OFFCURVE",
"-344 709 OFFCURVE",
"-344 685 CURVE SMOOTH",
"-344 660 OFFCURVE",
"-328 645 OFFCURVE",
"-302 645 CURVE SMOOTH"
);
}
);
width = 0;
},
{
anchors = (
{
name = _top;
position = "{-44, 504}";
},
{
name = top;
position = "{-44, 820}";
}
);
layerId = "E5D3352E-10FF-4C03-AD9F-F95B1FD01257";
paths = (
{
closed = 1;
nodes = (
"-330 653 LINE",
"-371 655 OFFCURVE",
"-393 673 OFFCURVE",
"-393 692 CURVE SMOOTH",
"-393 720 OFFCURVE",
"-353 739 OFFCURVE",
"-287 739 CURVE SMOOTH",
"-218 739 OFFCURVE",
"-180 720 OFFCURVE",
"-180 692 CURVE SMOOTH",
"-180 673 OFFCURVE",
"-202 655 OFFCURVE",
"-244 653 CURVE",
"-225 589 LINE",
"-2 589 LINE",
"-2 689 LINE",
"-7 689 LINE SMOOTH",
"-32 689 OFFCURVE",
"-59 685 OFFCURVE",
"-82 677 CURVE",
"-82 679 LINE",
"-65 688 OFFCURVE",
"-55 706 OFFCURVE",
"-55 727 CURVE SMOOTH",
"-55 783 OFFCURVE",
"-130 820 OFFCURVE",
"-290 820 CURVE SMOOTH",
"-439 820 OFFCURVE",
"-532 787 OFFCURVE",
"-532 702 CURVE SMOOTH",
"-532 620 OFFCURVE",
"-451 589 OFFCURVE",
"-349 589 CURVE"
);
},
{
closed = 1;
nodes = (
"-260 654 OFFCURVE",
"-245 668 OFFCURVE",
"-245 692 CURVE SMOOTH",
"-245 715 OFFCURVE",
"-260 729 OFFCURVE",
"-287 729 CURVE SMOOTH",
"-314 729 OFFCURVE",
"-329 715 OFFCURVE",
"-329 692 CURVE SMOOTH",
"-329 668 OFFCURVE",
"-314 654 OFFCURVE",
"-287 654 CURVE SMOOTH"
);
}
);
width = 0;
}
);
note = uni0EB7;
unicode = 0EB7;
},
{
glyphname = "maiKonVowel-lao";
lastChange = "2017-01-30 19:51:08 +0000";
layers = (
{
anchors = (
{
name = _top;
position = "{-84, 504}";
},
{
name = top;
position = "{-174, 744}";
}
);
layerId = "64BC062E-13E4-450B-B24E-D8A474022433";
paths = (
{
closed = 1;
nodes = (
"-388 599 LINE",
"-393 605 OFFCURVE",
"-397 621 OFFCURVE",
"-397 634 CURVE SMOOTH",
"-397 653 OFFCURVE",
"-387 665 OFFCURVE",
"-355 665 CURVE SMOOTH",
"-84 665 LINE",
"-84 688 LINE",
"-358 688 LINE SMOOTH",
"-403 688 OFFCURVE",
"-422 666 OFFCURVE",
"-422 637 CURVE SMOOTH",
"-422 623 OFFCURVE",
"-418 608 OFFCURVE",
"-413 599 CURVE"
);
}
);
width = 0;
},
{
anchors = (
{
name = _top;
position = "{-81, 504}";
},
{
name = top;
position = "{-176, 775}";
}
);
layerId = "6449CA81-A7C3-4005-93E5-765657812F1B";
paths = (
{
closed = 1;
nodes = (
"-388 599 LINE",
"-393 608 OFFCURVE",
"-396 627 OFFCURVE",
"-396 636 CURVE SMOOTH",
"-396 659 OFFCURVE",
"-381 667 OFFCURVE",
"-353 667 CURVE SMOOTH",
"-81 667 LINE",
"-81 735 LINE",
"-376 735 LINE SMOOTH",
"-457 735 OFFCURVE",
"-480 697 OFFCURVE",
"-480 657 CURVE SMOOTH",
"-480 635 OFFCURVE",
"-473 612 OFFCURVE",
"-464 599 CURVE"
);
}
);
width = 0;
},
{
anchors = (
{
name = _top;
position = "{-44, 504}";
},
{
name = top;
position = "{-139, 813}";
}
);
layerId = "E5D3352E-10FF-4C03-AD9F-F95B1FD01257";
paths = (
{
closed = 1;
nodes = (
"-337 599 LINE",
"-342 609 OFFCURVE",
"-345 622 OFFCURVE",
"-345 633 CURVE SMOOTH",
"-345 655 OFFCURVE",
"-336 664 OFFCURVE",
"-312 664 CURVE SMOOTH",
"-44 664 LINE",
"-44 778 LINE",
"-380 778 LINE SMOOTH",
"-455 778 OFFCURVE",
"-489 744 OFFCURVE",
"-489 690 CURVE SMOOTH",
"-489 664 OFFCURVE",
"-481 622 OFFCURVE",
"-469 599 CURVE"
);
}
);
width = 0;
}
);
note = uni0EBB;
unicode = 0EBB;
},
{
glyphname = "uVowel-lao";
lastChange = "2017-01-30 19:51:08 +0000";
layers = (
{
anchors = (
{
name = _bottom;
position = "{-85, 0}";
}
);
layerId = "64BC062E-13E4-450B-B24E-D8A474022433";
paths = (
{
closed = 1;
nodes = (
"-85 -251 LINE",
"-85 -112 LINE SMOOTH",
"-85 -90 OFFCURVE",
"-100 -75 OFFCURVE",
"-133 -75 CURVE SMOOTH",
"-145 -75 OFFCURVE",
"-159 -77 OFFCURVE",
"-168 -81 CURVE",
"-165 -103 LINE",
"-157 -100 OFFCURVE",
"-146 -99 OFFCURVE",
"-139 -99 CURVE SMOOTH",
"-119 -99 OFFCURVE",
"-111 -105 OFFCURVE",
"-111 -122 CURVE SMOOTH",
"-111 -251 LINE"
);
}
);
width = 0;
},
{
anchors = (
{
name = _bottom;
position = "{-81, 0}";
}
);
layerId = "6449CA81-A7C3-4005-93E5-765657812F1B";
paths = (
{
closed = 1;
nodes = (
"-81 -261 LINE",
"-81 -160 LINE SMOOTH",
"-81 -93 OFFCURVE",
"-113 -74 OFFCURVE",
"-156 -74 CURVE SMOOTH",
"-180 -74 OFFCURVE",
"-209 -80 OFFCURVE",
"-224 -87 CURVE",
"-210 -142 LINE",
"-202 -139 OFFCURVE",
"-191 -136 OFFCURVE",
"-180 -136 CURVE SMOOTH",
"-164 -136 OFFCURVE",
"-154 -144 OFFCURVE",
"-154 -166 CURVE SMOOTH",
"-154 -261 LINE"
);
}
);
width = 0;
},
{
anchors = (
{
name = _bottom;
position = "{-44, 0}";
}
);
layerId = "E5D3352E-10FF-4C03-AD9F-F95B1FD01257";
paths = (
{
closed = 1;
nodes = (
"-44 -256 LINE",
"-44 -130 LINE SMOOTH",
"-44 -90 OFFCURVE",
"-80 -54 OFFCURVE",
"-147 -54 CURVE SMOOTH",
"-184 -54 OFFCURVE",
"-244 -65 OFFCURVE",
"-274 -82 CURVE",
"-252 -165 LINE",
"-246 -163 OFFCURVE",
"-233 -160 OFFCURVE",
"-223 -160 CURVE SMOOTH",
"-207 -160 OFFCURVE",
"-201 -168 OFFCURVE",
"-201 -173 CURVE SMOOTH",
"-201 -256 LINE"
);
}
);
width = 0;
}
);
note = uni0EB8;
unicode = 0EB8;
},
{
glyphname = "uuVowel-lao";
lastChange = "2017-01-30 19:51:08 +0000";
layers = (
{
anchors = (
{
name = _bottom;
position = "{-84, 0}";
}
);
layerId = "64BC062E-13E4-450B-B24E-D8A474022433";
paths = (
{
closed = 1;
nodes = (
"-116 -251 OFFCURVE",
"-84 -221 OFFCURVE",
"-84 -165 CURVE SMOOTH",
"-84 -78 LINE",
"-110 -78 LINE",
"-110 -168 LINE SMOOTH",
"-110 -208 OFFCURVE",
"-133 -229 OFFCURVE",
"-177 -229 CURVE SMOOTH",
"-222 -229 OFFCURVE",
"-245 -208 OFFCURVE",
"-245 -168 CURVE SMOOTH",
"-245 -111 LINE SMOOTH",
"-245 -88 OFFCURVE",
"-257 -75 OFFCURVE",
"-286 -75 CURVE SMOOTH",
"-297 -75 OFFCURVE",
"-309 -77 OFFCURVE",
"-317 -80 CURVE",
"-313 -102 LINE",
"-304 -100 OFFCURVE",
"-297 -99 OFFCURVE",
"-292 -99 CURVE SMOOTH",
"-278 -99 OFFCURVE",
"-271 -104 OFFCURVE",
"-271 -116 CURVE SMOOTH",
"-271 -167 LINE SMOOTH",
"-271 -222 OFFCURVE",
"-239 -251 OFFCURVE",
"-177 -251 CURVE SMOOTH"
);
}
);
width = 0;
},
{
anchors = (
{
name = _bottom;
position = "{-81, 0}";
}
);
layerId = "6449CA81-A7C3-4005-93E5-765657812F1B";
paths = (
{
closed = 1;
nodes = (
"-124 -266 OFFCURVE",
"-81 -229 OFFCURVE",
"-81 -168 CURVE SMOOTH",
"-81 -77 LINE",
"-159 -77 LINE",
"-159 -165 LINE SMOOTH",
"-159 -189 OFFCURVE",
"-172 -206 OFFCURVE",
"-210 -206 CURVE SMOOTH",
"-252 -206 OFFCURVE",
"-263 -189 OFFCURVE",
"-263 -165 CURVE SMOOTH",
"-263 -133 LINE SMOOTH",
"-263 -97 OFFCURVE",
"-283 -74 OFFCURVE",
"-329 -74 CURVE SMOOTH",
"-342 -74 OFFCURVE",
"-361 -77 OFFCURVE",
"-378 -81 CURVE",
"-372 -139 LINE",
"-367 -138 OFFCURVE",
"-362 -137 OFFCURVE",
"-357 -137 CURVE SMOOTH",
"-344 -137 OFFCURVE",
"-340 -143 OFFCURVE",
"-340 -158 CURVE SMOOTH",
"-340 -173 LINE SMOOTH",
"-340 -232 OFFCURVE",
"-298 -266 OFFCURVE",
"-211 -266 CURVE SMOOTH"
);
}
);
width = 0;
},
{
anchors = (
{
name = _bottom;
position = "{-44, 0}";
}
);
layerId = "E5D3352E-10FF-4C03-AD9F-F95B1FD01257";
paths = (
{
closed = 1;
nodes = (
"-104 -261 OFFCURVE",
"-44 -227 OFFCURVE",
"-44 -176 CURVE SMOOTH",
"-44 -61 LINE",
"-186 -61 LINE",
"-186 -156 LINE SMOOTH",
"-186 -170 OFFCURVE",
"-197 -178 OFFCURVE",
"-217 -178 CURVE SMOOTH",
"-235 -178 OFFCURVE",
"-244 -171 OFFCURVE",
"-244 -158 CURVE SMOOTH",
"-244 -133 LINE SMOOTH",
"-244 -91 OFFCURVE",
"-266 -54 OFFCURVE",
"-333 -54 CURVE SMOOTH",
"-370 -54 OFFCURVE",
"-425 -66 OFFCURVE",
"-455 -82 CURVE",
"-441 -165 LINE",
"-435 -163 OFFCURVE",
"-414 -160 OFFCURVE",
"-404 -160 CURVE SMOOTH",
"-387 -160 OFFCURVE",
"-381 -168 OFFCURVE",
"-381 -174 CURVE SMOOTH",
"-381 -183 LINE SMOOTH",
"-381 -227 OFFCURVE",
"-333 -261 OFFCURVE",
"-219 -261 CURVE SMOOTH"
);
}
);
width = 0;
}
);
note = uni0EB9;
unicode = 0EB9;
},
{
glyphname = "loVowel-lao";
lastChange = "2017-01-30 19:51:08 +0000";
layers = (
{
anchors = (
{
name = _bottom;
position = "{-84, 0}";
},
{
name = bottom;
position = "{-84, -141}";
}
);
layerId = "64BC062E-13E4-450B-B24E-D8A474022433";
paths = (
{
closed = 1;
nodes = (
"-348 -163 LINE",
"-355 -152 OFFCURVE",
"-358 -139 OFFCURVE",
"-358 -129 CURVE SMOOTH",
"-358 -109 OFFCURVE",
"-345 -100 OFFCURVE",
"-317 -100 CURVE SMOOTH",
"-265 -100 OFFCURVE",
"-222 -131 OFFCURVE",
"-164 -131 CURVE SMOOTH",
"-136 -131 OFFCURVE",
"-107 -124 OFFCURVE",
"-82 -111 CURVE",
"-82 -85 LINE",
"-107 -99 OFFCURVE",
"-135 -106 OFFCURVE",
"-163 -106 CURVE SMOOTH",
"-222 -106 OFFCURVE",
"-265 -75 OFFCURVE",
"-322 -75 CURVE SMOOTH",
"-364 -75 OFFCURVE",
"-386 -92 OFFCURVE",
"-386 -126 CURVE SMOOTH",
"-386 -138 OFFCURVE",
"-383 -151 OFFCURVE",
"-377 -163 CURVE"
);
}
);
width = 0;
},
{
anchors = (
{
name = _bottom;
position = "{-80, 0}";
},
{
name = bottom;
position = "{-81, -190}";
}
);
layerId = "6449CA81-A7C3-4005-93E5-765657812F1B";
paths = (
{
closed = 1;
nodes = (
"-337 -199 LINE",
"-343 -190 OFFCURVE",
"-347 -175 OFFCURVE",
"-347 -165 CURVE SMOOTH",
"-347 -149 OFFCURVE",
"-338 -141 OFFCURVE",
"-316 -141 CURVE SMOOTH",
"-270 -141 OFFCURVE",
"-222 -175 OFFCURVE",
"-167 -175 CURVE SMOOTH",
"-138 -175 OFFCURVE",
"-107 -166 OFFCURVE",
"-81 -152 CURVE",
"-81 -85 LINE",
"-107 -99 OFFCURVE",
"-137 -108 OFFCURVE",
"-164 -108 CURVE SMOOTH",
"-215 -108 OFFCURVE",
"-261 -74 OFFCURVE",
"-331 -74 CURVE SMOOTH",
"-394 -74 OFFCURVE",
"-431 -102 OFFCURVE",
"-431 -149 CURVE SMOOTH",
"-431 -168 OFFCURVE",
"-425 -186 OFFCURVE",
"-416 -199 CURVE"
);
}
);
width = 0;
},
{
anchors = (
{
name = _bottom;
position = "{-43, 0}";
},
{
name = bottom;
position = "{-44, -150}";
}
);
layerId = "E5D3352E-10FF-4C03-AD9F-F95B1FD01257";
paths = (
{
closed = 1;
nodes = (
"-301 -229 LINE",
"-307 -219 OFFCURVE",
"-311 -205 OFFCURVE",
"-311 -194 CURVE SMOOTH",
"-311 -175 OFFCURVE",
"-300 -164 OFFCURVE",
"-275 -164 CURVE SMOOTH",
"-239 -164 OFFCURVE",
"-181 -187 OFFCURVE",
"-128 -187 CURVE SMOOTH",
"-95 -187 OFFCURVE",
"-66 -178 OFFCURVE",
"-43 -163 CURVE",
"-43 -53 LINE",
"-68 -70 OFFCURVE",
"-99 -80 OFFCURVE",
"-135 -80 CURVE SMOOTH",
"-193 -80 OFFCURVE",
"-258 -54 OFFCURVE",
"-323 -54 CURVE SMOOTH",
"-394 -54 OFFCURVE",
"-435 -85 OFFCURVE",
"-435 -151 CURVE SMOOTH",
"-435 -176 OFFCURVE",
"-429 -209 OFFCURVE",
"-420 -229 CURVE"
);
}
);
width = 0;
}
);
note = uni0EBC;
unicode = 0EBC;
},
{
glyphname = "maiEk-lao";
lastChange = "2017-01-30 19:51:08 +0000";
layers = (
{
anchors = (
{
name = _top;
position = "{-84, 504}";
}
);
layerId = "64BC062E-13E4-450B-B24E-D8A474022433";
paths = (
{
closed = 1;
nodes = (
"-84 589 LINE",
"-84 761 LINE",
"-110 761 LINE",
"-110 589 LINE"
);
}
);
width = 0;
},
{
anchors = (
{
name = _top;
position = "{-81, 504}";
}
);
layerId = "6449CA81-A7C3-4005-93E5-765657812F1B";
paths = (
{
closed = 1;
nodes = (
"-81 590 LINE",
"-81 755 LINE",
"-169 755 LINE",
"-169 590 LINE"
);
}
);
width = 0;
},
{
anchors = (
{
name = _top;
position = "{-44, 504}";
}
);
layerId = "E5D3352E-10FF-4C03-AD9F-F95B1FD01257";
paths = (
{
closed = 1;
nodes = (
"-56 599 LINE",
"-56 799 LINE",
"-224 799 LINE",
"-224 599 LINE"
);
}
);
width = 0;
}
);
note = uni0EC8;
unicode = 0EC8;
},
{
glyphname = "maiTho-lao";
lastChange = "2017-01-30 19:51:08 +0000";
layers = (
{
anchors = (
{
name = _top;
position = "{-84, 504}";
}
);
layerId = "64BC062E-13E4-450B-B24E-D8A474022433";
paths = (
{
closed = 1;
nodes = (
"-3 599 LINE",
"-3 622 LINE",
"-206 622 LINE",
"-173 639 OFFCURVE",
"-149 672 OFFCURVE",
"-149 705 CURVE SMOOTH",
"-149 746 OFFCURVE",
"-178 773 OFFCURVE",
"-225 773 CURVE SMOOTH",
"-244 773 OFFCURVE",
"-264 768 OFFCURVE",
"-288 756 CURVE",
"-280 736 LINE",
"-264 743 OFFCURVE",
"-246 751 OFFCURVE",
"-226 751 CURVE SMOOTH",
"-194 751 OFFCURVE",
"-175 732 OFFCURVE",
"-175 704 CURVE SMOOTH",
"-175 659 OFFCURVE",
"-226 626 OFFCURVE",
"-291 615 CURVE",
"-291 599 LINE"
);
}
);
width = 0;
},
{
anchors = (
{
name = _top;
position = "{-81, 504}";
}
);
layerId = "6449CA81-A7C3-4005-93E5-765657812F1B";
paths = (
{
closed = 1;
nodes = (
"-46 599 LINE",
"-46 664 LINE",
"-253 664 LINE",
"-237 675 OFFCURVE",
"-227 697 OFFCURVE",
"-227 721 CURVE SMOOTH",
"-227 765 OFFCURVE",
"-259 791 OFFCURVE",
"-317 791 CURVE SMOOTH",
"-345 791 OFFCURVE",
"-376 784 OFFCURVE",
"-394 772 CURVE",
"-376 728 LINE",
"-366 733 OFFCURVE",
"-353 737 OFFCURVE",
"-341 737 CURVE SMOOTH",
"-316 737 OFFCURVE",
"-301 724 OFFCURVE",
"-301 701 CURVE SMOOTH",
"-301 668 OFFCURVE",
"-333 645 OFFCURVE",
"-385 638 CURVE",
"-385 599 LINE"
);
}
);
width = 0;
},
{
anchors = (
{
name = _top;
position = "{-44, 504}";
}
);
layerId = "E5D3352E-10FF-4C03-AD9F-F95B1FD01257";
paths = (
{
closed = 1;
nodes = (
"1 599 LINE",
"1 712 LINE",
"-160 712 LINE",
"-153 721 OFFCURVE",
"-149 734 OFFCURVE",
"-149 749 CURVE SMOOTH",
"-149 797 OFFCURVE",
"-185 828 OFFCURVE",
"-255 828 CURVE SMOOTH",
"-302 828 OFFCURVE",
"-341 813 OFFCURVE",
"-362 800 CURVE",
"-343 727 LINE",
"-334 730 OFFCURVE",
"-324 732 OFFCURVE",
"-317 732 CURVE SMOOTH",
"-299 732 OFFCURVE",
"-289 723 OFFCURVE",
"-289 705 CURVE SMOOTH",
"-289 669 OFFCURVE",
"-331 657 OFFCURVE",
"-352 651 CURVE",
"-352 599 LINE"
);
}
);
width = 0;
}
);
note = uni0EC9;
unicode = 0EC9;
},
